<?xml version="1.0" encoding="utf-8"?>
<!-- Generator: Adobe Illustrator 25.4.1, SVG Export Plug-In . SVG Version: 6.00 Build 0)  -->
<svg version="1.1" id="圖層_1" xmlns="http://www.w3.org/2000/svg" xmlns:xlink="http://www.w3.org/1999/xlink" x="0px" y="0px"
	 viewBox="0 0 388.9 80.8" style="enable-background:new 0 0 388.9 80.8;" xml:space="preserve">
<style type="text/css">
	.st0{fill:#FFFFFF;}
</style>
<g>
	<path class="st0" d="M95.2,71.9c2.2-2.8,3.9-5.9,5.1-9.2c1.3-3.3,1.9-6.4,1.9-9.2c0-3.1-0.9-5.6-2.6-7.4c-1.8-1.8-4.2-2.7-7.2-2.7
		L77.2,80.8l0,0h1.3c0.3,0,0.5,0,0.7,0C85.6,80.5,90.9,77.6,95.2,71.9z"/>
	<path class="st0" d="M22.3,52.3c-1.4,2.2-2,4.4-2,6.6c0,2,0.7,3.8,2,5.2c1.3,1.4,2.9,2.2,4.8,2.2c3.2,0,6.1-2.1,8.6-6.4l9.6-16.5
		h-2.7c-6.1,0-11,1.1-14.6,3.4C25.4,48.3,23.6,50.1,22.3,52.3z"/>
	<path class="st0" d="M60.5,33.6l-1.3,2.2h7.8l4.6-11.4c-2.3,0.2-4.2,0.9-5.7,2.2C64.3,27.8,62.5,30.1,60.5,33.6z"/>
	<path class="st0" d="M98.3,80.8C98.4,80.8,98.4,80.8,98.3,80.8L98.3,80.8C98.3,80.8,98.3,80.8,98.3,80.8z"/>
	<path class="st0" d="M122.7,55.1c0-14.2-11.5-25.7-25.7-25.7c-0.9,0-1.9,0.1-2.8,0.1C93,13,79.1,0,62.2,0
		C48.5,0,36.8,8.6,32.2,20.7c-0.7,0-1.4-0.1-2.1-0.1C13.5,20.7,0,34.1,0,50.7s13.4,30.1,30,30.1c0.4,0,1.3,0,1.3,0h36.9l15.1-37.3
		l-10.4,0l-3.6,8.8c0,0-1.4,3.5-1.4,3.5c-0.6,1.5-2.1,2.5-3.8,2.5c-2.3,0-4.1-1.8-4.1-4.1c0-0.1,0-0.5,0-0.5c0.2-1,0.6-2.3,1.2-3.8
		l2.5-6.3h-8.9L44.2,61.9c-5,8.7-11,13.1-17.9,13.1c-4.2,0-7.8-1.5-10.6-4.6c-2.9-3-4.3-6.8-4.3-11.3c0-3.6,1.1-7.2,3.3-10.5
		c2.2-3.4,5.2-6.2,9-8.4c2.9-1.6,6-2.8,9.5-3.4c3.5-0.7,8.1-1,13.9-1h2.4l2.5-4.7c3.5-6.5,7.9-10.8,13-13c3.3-1.4,7.6-2.1,12.9-2.1
		c1.4,0,2.4,0.3,3.2,0.9c0.8,0.6,1.2,1.4,1.2,2.5c0,0.5-0.1,1.1-0.4,1.7l-0.3,0.7L76,35.7l15,0c6.3,0,11.1,1.5,14.5,4.5
		c3.4,3,5.1,7.3,5.1,13c0,8.6-2.9,16.5-8.6,23.7c-1.1,1.4-2.4,2.8-3.7,3.9h0C111.9,80,122.7,68.8,122.7,55.1z"/>
	<g>
		<path class="st0" d="M155.5,80.5c2,0.4,4.1,0.4,6.2,0.2l0,0c7.1-0.6,12.9-5.6,14-6.8l-4.1-6.4c-0.9,0.8-2.1,2.3-5.5,3.9
			c-1.2,0.6-2.5,0.9-3.8,1.1c-4.8,0.5-7.9-1.2-9.6-2.9c-2.9-2.7-4.2-6.9-3.6-11.4c0.7-4.6,3.3-8.9,7.2-11.5c3.5-2.4,7.7-3.2,12-2.2
			c3.3,0.4,5.8,2.3,6.6,3.1l4.9-5.3c-0.9-1.2-5-5.8-11.8-6.4c-0.8-0.1-1.7-0.2-2.5-0.2c-1.2,0-2.5,0.1-3.7,0.3
			c-10.6,1.7-20.1,11.5-21.7,22.3C138.7,69.1,145.4,78.8,155.5,80.5z"/>
		<path class="st0" d="M211.1,80.8c8.6,0,17.3-7.5,18.5-16c0.6-4-0.6-8-3.3-11.1c-2.7-3.1-6.5-4.8-10.6-4.8c-8.7,0-17.4,7.5-18.6,16
			c-0.6,4,0.6,8,3.3,11C203,79,206.9,80.8,211.1,80.8z M205.3,64.8c0.7-4.9,4.6-8.5,9.2-8.5c2.2,0,4,0.8,5.3,2.3
			c1.4,1.6,2,3.9,1.6,6.4c-0.7,4.9-4.6,8.5-9.2,8.5c0,0-0.1,0-0.1,0c-2.1,0-3.9-0.8-5.2-2.2C205.5,69.6,204.9,67.3,205.3,64.8z"/>
		<path class="st0" d="M246.7,80.8c8.4,0,14.7-4.9,16.3-12.1c0.2-0.8,0.3-1.6,0.5-2.5l0.1-0.6l2.4-16.6h-8l-2,14.1
			c-0.2,1.5-0.4,3-0.7,4.4c-0.8,3.9-3.4,6.4-7.4,6.4c-2,0-3.5-0.5-4.5-1.6c-1-1-1.4-3-1.3-4.9c0.1-0.4,0.1-0.9,0.1-1.3
			c0.1-1,0.2-2.1,0.4-3.2l2-13.9h-8l-2.5,18.1c-0.5,3.8,0.1,7.5,2.1,9.7C238.2,79.4,241.9,80.7,246.7,80.8z"/>
		<path class="st0" d="M311,80.8l4.9-9.2h18.9l2.4,9.2h9.1l-12.5-45h-7.1l-24.8,45H311z M328.5,47.9l4.3,16h-12.7L328.5,47.9z"/>
		<path class="st0" d="M368.1,80.4c11.1,0,19.1-9.6,20.7-22.6c0.7-5.9-0.5-11.4-3.7-15.6c-2.6-3.5-6.4-5.7-10.7-6.2
			c-1.5-0.2-3.1-0.3-4.8-0.3l-13.1,0l-6.3,45h12.9C364.8,80.8,366.4,80.4,368.1,80.4z M359.7,73.1l0.1-0.5l4.1-29.1h0.4
			c3,0,5.7,0.2,8.4,0.6l0,0c5.8,1.1,8.4,6.2,7.3,14c-1.1,7.7-5.2,13.3-11.1,14.4c-3,0.4-5.8,0.6-8.6,0.6H359.7z"/>
		<polygon class="st0" points="194.9,35.8 186.9,35.8 180.9,80.8 188.9,80.8 		"/>
		<polygon class="st0" points="289.8,80.8 289.8,80.8 298,80.8 298,80.8 		"/>
		<path class="st0" d="M304.3,35.8h-8l-2,14.8l-0.5-0.2c-2.1-0.9-4.4-1.3-6.5-1.3c-1.6,0-3.1,0.1-4.2,0.3c-6.9,1-13.1,6.9-14.7,14.2
			c-0.2,0.8-0.3,1.6-0.4,2.6c-0.3,4.1,0.8,7.9,3.2,10.7c2.1,2.4,4.9,3.8,8.2,4c1,0.1,2,0.1,2.9,0.1c2.5-0.1,4.8-0.6,7-1.6l0.7-0.3
			l-0.3,1.9h8.2L304.3,35.8z M292,66.6c-1.2,4.3-4.7,7-8.8,7c-2.2,0-4-0.8-5.3-2.2c-1.4-1.6-1.9-3.9-1.5-6.6
			c0.7-5.1,4.5-8.7,9.2-8.7c4.2,0.1,6.9,2.9,6.9,7.2L292,66.6z"/>
	</g>
</g>
</svg>
