<?xml version="1.0" encoding="utf-8"?>
<!-- Generator: Adobe Illustrator 25.4.1, SVG Export Plug-In . SVG Version: 6.00 Build 0)  -->
<svg version="1.1" id="Capa_1" xmlns="http://www.w3.org/2000/svg" xmlns:xlink="http://www.w3.org/1999/xlink" x="0px" y="0px"
	 viewBox="0 0 200 200" style="enable-background:new 0 0 200 200;" xml:space="preserve">
<style type="text/css">
	.st0{fill:#FFFFFF;}
	.st1{fill:#F1D83C;}
</style>
<g>
	<g>
		<path class="st0" d="M137.8,171.3H103c-6.4,0-9.8-2.7-12.4-4.6c-2-1.6-3.1-2.3-4.9-2.3h-3.5c-1.9,0-3.5-1.6-3.5-3.5
			c0-1.9,1.6-3.5,3.5-3.5h3.5c4.3,0,6.8,2,9.2,3.7c2.2,1.7,4.3,3.2,8.2,3.2h34.8c0.7,0,2.2,0,3.6-4.5c0.4-1.8,2.1-17,3.4-30.7v-0.3
			c0.3-1.7-0.3-3-1-3.8c-1.3-1.6-3.6-2.6-6-2.6h-6.9c-1.9,0-3.5-1.6-3.5-3.5s1.6-3.5,3.5-3.5h6.9c4.5,0,8.7,1.9,11.4,5
			c2.2,2.7,3.1,5.9,2.6,9.3c-0.7,6.9-2.7,29-3.6,31.9C145.8,169.7,141.2,171.3,137.8,171.3z"/>
	</g>
	<g>
		<path class="st0" d="M99.6,143.5c-1.9,0-3.5-1.6-3.5-3.5c0-1.9,1.6-3.5,3.5-3.5c7.7,0,12.4-5.3,13.5-10.5c0.6-2.6,1.5-5.7,3-8.6
			c1.2-2.5,1.6-3.1,1.6-3.2c0.1-0.3,0.2-0.7,0.4-1.1c0.6-1.3,1.5-3.5,1.5-7.7c0-5.9-0.8-7.5-3.1-9.5c-1.1-1-2.5-0.9-2.9-0.7v3.1
			c0,7-4.1,10.5-8.1,13.8c-1.2,1.1-2.6,2.1-3.9,3.5c-0.3,0.3-7.6,7.2-15.9,7.2h-3.5c-1.9,0-3.5-1.6-3.5-3.5s1.6-3.5,3.5-3.5h3.5
			c4.5,0,9.5-3.7,11.1-5.1c1.5-1.5,3-2.7,4.4-3.8c3.8-3.1,5.5-4.7,5.5-8.4V95c0-2.6,1.5-4.8,4-5.9c3.2-1.6,7.5-0.9,10.4,1.7
			c4.7,4,5.6,8.2,5.6,14.8c0,5.6-1.2,8.7-2,10.4c-0.1,0.2-0.2,0.4-0.2,0.6c-0.2,0.6-0.6,1.7-2,4.4c-1.2,2.2-1.9,4.8-2.3,6.9
			C117.8,136.9,109.4,143.5,99.6,143.5z"/>
	</g>
	<g>
		<path class="st0" d="M85.7,171.3H57.8v-62.7h27.9V171.3z M64.8,164.3h14v-48.7h-14V164.3z"/>
	</g>
	<g>
		<path class="st1" d="M157.7,114.8c-0.6,0-1.1-0.1-1.7-0.4l-22.4-12.5c-1.7-0.9-2.2-3-1.3-4.7c0.9-1.7,3-2.2,4.7-1.3l15.8,8.8
			l-4.3-21.3c-0.2-1.2,0.1-2.5,1-3.2l15.9-14.7L144,62.9c-1.2-0.1-2.2-0.9-2.8-2l-9.1-19.7l-9.1,19.7c-0.6,1.1-1.6,1.9-2.8,2
			l-21.5,2.6l11.5,10.6c1.5,1.3,1.5,3.5,0.2,4.9c-1.3,1.5-3.5,1.5-4.9,0.2L88.7,65.4c-1-0.9-1.3-2.3-0.9-3.6s1.6-2.2,2.9-2.3
			l27.1-3.2l11.3-24.7c0.6-1.2,1.8-2,3.1-2l0,0c1.3,0,2.6,0.8,3.1,2l11.4,24.7l27.1,3.2c1.3,0.1,2.5,1.1,2.9,2.3s0,2.7-0.9,3.6
			l-20,18.5l5.4,26.7c0.2,1.3-0.2,2.7-1.3,3.5C159.2,114.5,158.5,114.8,157.7,114.8z"/>
	</g>
	<g>
		<path class="st0" d="M66.6,101.8c-0.9,0-1.8-0.3-2.5-1c-6.2-6-12.4-11-18-15.3C35.2,77,25.9,69.7,23.5,58
			c-1.5-6.9,0.1-14.1,4.3-19.8c4-5.4,9.7-8.7,16.1-9.4c8.6-0.9,17.5,2.7,22.7,8.7c5.3-6,14.1-9.6,22.7-8.7c9.5,1,17.3,7.9,19.9,17.6
			c0.4,1.9-0.6,3.8-2.5,4.3c-1.9,0.4-3.8-0.6-4.3-2.5c-1.9-6.8-7.4-11.7-14-12.5c-7.6-0.8-16,3.5-18.8,9.5c-0.6,1.2-1.8,2-3.1,2
			c-1.3,0-2.6-0.8-3.1-2c-2.8-6-11.2-10.4-18.8-9.5c-4.5,0.4-8.4,2.8-11.2,6.6c-3,4.1-4.1,9.3-3.1,14.3c1.9,9.1,10,15.3,20,23.3
			c4.9,3.9,10.5,8.2,16.1,13.5c5.6-5.3,11.2-9.6,16.1-13.5c0.9-0.7,1.8-1.3,2.7-2.1c1.5-1.2,3.7-0.9,4.9,0.6
			c1.2,1.5,0.9,3.7-0.6,4.9c-0.9,0.7-1.8,1.3-2.7,2.1c-5.5,4.4-11.9,9.3-17.9,15.3C68.3,101.5,67.4,101.8,66.6,101.8z"/>
	</g>
</g>
</svg>
