<?xml version="1.0" encoding="utf-8"?>
<!-- Generator: Adobe Illustrator 25.4.1, SVG Export Plug-In . SVG Version: 6.00 Build 0)  -->
<svg version="1.1" id="Capa_1" xmlns="http://www.w3.org/2000/svg" xmlns:xlink="http://www.w3.org/1999/xlink" x="0px" y="0px"
	 viewBox="0 0 200 200" style="enable-background:new 0 0 200 200;" xml:space="preserve">
<style type="text/css">
	.st0{fill:#F1D83C;}
	.st1{fill:#FFFFFF;}
</style>
<g>
	<g>
		<path class="st0" d="M71.4,124.9c-9,0-16.1-7.7-16.1-17.3V103c0-9.7,7.1-17.3,16.1-17.3s16.1,7.7,16.1,17.3v4.6
			C87.4,117.4,80.4,124.9,71.4,124.9z M71.4,92.8c-5,0-8.9,4.5-8.9,10.2v4.6c0,5.7,3.9,10.2,8.9,10.2c5,0,8.9-4.5,8.9-10.2V103
			C80.4,97.3,76.4,92.8,71.4,92.8z"/>
	</g>
	<g>
		<path class="st0" d="M87.4,182.1c-1.9,0-3.5-1.6-3.5-3.5v-21.4c0-1.3,0.7-2.4,1.8-3.2c1.1-0.6,2.4-0.6,3.6,0l11.6,6.9
			c0.9,0.5,1.8,0.6,2.8,0.4c1-0.2,1.7-0.9,2.2-1.7l10.7-18.6c1-1.7,3.2-2.3,4.9-1.3c1.7,1,2.3,3.2,1.3,4.9l-10.7,18.6
			c-1.5,2.6-3.8,4.3-6.6,5c-2.8,0.7-5.7,0.4-8.3-1.2l-6.2-3.8v15.1C91.1,180.5,89.5,182.1,87.4,182.1z"/>
	</g>
	<g>
		<path class="st0" d="M51.8,182.1c-1.9,0-3.5-1.6-3.5-3.5v-27.1l-20.3-20.3c-0.5-0.5-0.9-1.1-1-1.8l-3.6-17.9
			c0-0.2-0.1-0.5-0.1-0.7c0-10.9,5.5-17.9,14.2-17.9c1.6,0,2.9,1,3.4,2.4l6.8,20.6l12.7,12.7h16.4c0.6,0,5.7,0.1,10.5,3.8
			c1.6,1.2,1.8,3.4,0.6,5c-1.2,1.6-3.4,1.8-5,0.6c-2.8-2.2-6.1-2.3-6.1-2.3H59c-1,0-1.8-0.4-2.6-1.1l-14.2-14.2
			c-0.4-0.4-0.7-0.9-0.9-1.3l-6.2-18.6c-3,1.1-4.6,4.4-4.7,10l3.3,16.4l20.7,20.7c0.7,0.7,1.1,1.6,1.1,2.6v28.6
			C55.3,180.5,53.7,182.1,51.8,182.1z"/>
	</g>
	<g>
		<path class="st0" d="M148.1,146.3H91.1c-1.9,0-3.5-1.6-3.5-3.5c0-1.9,1.6-3.5,3.5-3.5h57.1c1.9,0,3.5,1.6,3.5,3.5
			S150.1,146.3,148.1,146.3z"/>
	</g>
	<g>
		<path class="st0" d="M123.2,142.8H116v-17.9h-14.2v17.9h-7.2v-21.4c0-1.9,1.6-3.5,3.5-3.5h21.4c1.9,0,3.5,1.6,3.5,3.5v21.4H123.2z
			"/>
	</g>
	<g>
		<path class="st0" d="M133.9,121.4h-7.2v-17.9h-14.2v17.9h-7.2V100c0-1.9,1.6-3.5,3.5-3.5h21.4c1.9,0,3.5,1.6,3.5,3.5v21.4H133.9z"
			/>
	</g>
	<g>
		<path class="st0" d="M144.6,142.8h-7.2v-17.9h-14.2v17.9H116v-21.4c0-1.9,1.6-3.5,3.5-3.5H141c1.9,0,3.5,1.6,3.5,3.5v21.4H144.6z"
			/>
	</g>
	<g>
		<path class="st1" d="M158.8,78.6c-5.8,0-11.1-2.8-14.2-7.2c-3.3,4.4-8.4,7.2-14.2,7.2s-11.1-2.8-14.2-7.2
			c-3.3,4.4-8.4,7.2-14.2,7.2c-5.8,0-11.1-2.8-14.2-7.2c-3.3,4.4-8.4,7.2-14.2,7.2s-11.1-2.8-14.2-7.2c-3.3,4.4-8.4,7.2-14.2,7.2
			c-9.9,0-17.9-8-17.9-17.9V42.9h7.2v17.9c0,6,4.7,10.7,10.7,10.7c6,0,10.7-4.7,10.7-10.7h7.2c0,6,4.7,10.7,10.7,10.7
			c6,0,10.7-4.7,10.7-10.7h7.2c0,6,4.7,10.7,10.7,10.7c6,0,10.7-4.7,10.7-10.7h7.2c0,6,4.7,10.7,10.7,10.7c6,0,10.7-4.7,10.7-10.7
			h7.2c0,6,4.7,10.7,10.7,10.7c6,0,10.7-4.7,10.7-10.7V42.9h7.2v17.9C176.7,70.6,168.7,78.6,158.8,78.6z"/>
	</g>
	<g>
		<rect x="55.3" y="57.2" class="st1" width="7.2" height="3.5"/>
	</g>
	<g>
		<rect x="83.9" y="57.2" class="st1" width="7.2" height="3.5"/>
	</g>
	<g>
		<rect x="112.5" y="57.2" class="st1" width="7.2" height="3.5"/>
	</g>
	<g>
		<rect x="141" y="57.2" class="st1" width="7.2" height="3.5"/>
	</g>
	<g>
		<path class="st1" d="M173.1,46.5h-30.5c-1.9,0-3.5-1.6-3.5-3.5c0-1.9,1.6-3.5,3.5-3.5H167L147,25.2H56.5L36.5,39.3h84.3
			c1.9,0,3.5,1.6,3.5,3.5c0,1.9-1.6,3.5-3.5,3.5H30.4c-1.9,0-3.5-1.6-3.5-3.5v-3.5c0-1.1,0.6-2.2,1.5-2.9l24.9-17.9
			c0.6-0.5,1.3-0.6,2.1-0.6h92.8c0.7,0,1.5,0.2,2.1,0.6l24.9,17.9c1,0.7,1.5,1.7,1.5,2.9v3.5C176.7,44.9,175.1,46.5,173.1,46.5z
			 M30.4,39.3L30.4,39.3L30.4,39.3z"/>
	</g>
	<g>
		<rect x="155.3" y="75.1" class="st1" width="7.2" height="103.5"/>
	</g>
</g>
</svg>
