<?xml version="1.0" encoding="utf-8"?>
<!-- Generator: Adobe Illustrator 25.4.1, SVG Export Plug-In . SVG Version: 6.00 Build 0)  -->
<svg version="1.1" id="Capa_1" xmlns="http://www.w3.org/2000/svg" xmlns:xlink="http://www.w3.org/1999/xlink" x="0px" y="0px"
	 viewBox="0 0 200 200" style="enable-background:new 0 0 200 200;" xml:space="preserve">
<style type="text/css">
	.st0{fill:#FFFFFF;}
	.st1{fill:#F1D83C;}
</style>
<g>
	<g>
		<path class="st0" d="M469.4,101.8l0.8-14.1c-9-7.1-14.4-18.2-14.4-29.7c0-20.9,17-38,38-38c20.9,0,38,17,38,38c0,20.9-17,38-38,38
			c-4.1,0-8.1-0.6-11.9-1.9L469.4,101.8z M493.8,24.4c-18.5,0-33.6,15.1-33.6,33.6c0,10.6,5.1,20.7,13.6,27l1,0.7l-0.5,7.9l7-4.4
			l1,0.4c3.7,1.3,7.5,2,11.5,2c18.5,0,33.6-15.1,33.6-33.6S512.3,24.4,493.8,24.4z"/>
	</g>
	<g>
		<g>
			<polygon class="st0" points="385.1,162.1 380.7,162.1 380.7,58.4 458.1,58.4 458.1,62.8 385.1,62.8 			"/>
		</g>
		<g>
			<polygon class="st0" points="547.3,162.1 542.9,162.1 542.9,62.8 527.5,62.8 527.5,58.4 547.3,58.4 			"/>
		</g>
	</g>
	<g>
		<g>
			<rect x="525.3" y="70.6" class="st0" width="19" height="4.4"/>
		</g>
		<g>
			<rect x="383.7" y="70.6" class="st0" width="77.2" height="4.4"/>
		</g>
	</g>
	<g>
		<circle class="st0" cx="391.8" cy="66.6" r="2.2"/>
	</g>
	<g>
		<g>
			<polygon class="st0" points="508.7,73.8 479.7,73.8 479.7,44.8 501,44.8 501,49.2 484.1,49.2 484.1,69.4 504.3,69.4 504.3,59.3 
				508.7,59.3 			"/>
		</g>
		<g>
			<polygon class="st0" points="493.8,67 485.4,54.4 489,51.9 495.6,61.7 507.4,43.5 511.1,45.8 497.5,66.9 			"/>
		</g>
	</g>
	<g>
		<path class="st1" d="M464.4,152.6h-69.6v-48h69.6C464.4,104.6,464.4,152.6,464.4,152.6z M399.2,148.2H460V109h-60.8V148.2z"/>
	</g>
	<g>
		<rect x="395.1" y="93.2" class="st1" width="69.8" height="4.4"/>
	</g>
	<g>
		<g>
			<rect x="475" y="104.6" class="st1" width="58" height="4.4"/>
		</g>
		<g>
			<rect x="475" y="117.1" class="st1" width="58" height="4.4"/>
		</g>
		<g>
			<rect x="475" y="129.6" class="st1" width="58" height="4.4"/>
		</g>
		<g>
			<rect x="475" y="142.1" class="st1" width="31.6" height="4.4"/>
		</g>
	</g>
	<g>
		<path class="st1" d="M460.9,88.3h-4.4v-4.4h4.4V88.3z M452.1,88.3h-4.4v-4.4h4.4V88.3z M443.3,88.3H439v-4.4h4.4v4.4H443.3z
			 M434.6,88.3h-4.4v-4.4h4.4V88.3z M425.8,88.3h-4.4v-4.4h4.4V88.3z M417,88.3h-4.4v-4.4h4.4V88.3z M408.2,88.3h-4.4v-4.4h4.4V88.3
			z M399.4,88.3H395v-4.4h4.4V88.3z"/>
	</g>
	<g>
		<path class="st0" d="M544.8,180H383.2c-3.6,0-6.6-3-6.6-6.6v-11.9h58.8l1.8,3.5h53.6l1.8-3.5h58.8v11.9
			C551.4,177,548.4,180,544.8,180z M381,165.9v7.5c0,1.2,1,2.2,2.2,2.2h161.6c1.2,0,2.2-1,2.2-2.2v-7.5h-51.7l-1.8,3.5h-59l-1.8-3.5
			H381z"/>
	</g>
</g>
<g>
	<g>
		<g>
			<g>
				<path class="st0" d="M174.1,163.3H25.9c-1.6,0-2.9-1.3-2.9-2.9V39.6c0-1.6,1.3-2.9,2.9-2.9h148.2c1.6,0,2.9,1.3,2.9,2.9v120.9
					C177,162,175.7,163.3,174.1,163.3z M28.8,157.6h142.5V42.4H28.8V157.6z"/>
			</g>
			<g>
				<rect x="34.9" y="60" class="st0" width="130.2" height="5.8"/>
			</g>
			<g>
				<path class="st0" d="M77.8,54.9H40.4c-1.6,0-2.9-1.3-2.9-2.9c0-1.6,1.3-2.9,2.9-2.9h37.5c1.6,0,2.9,1.3,2.9,2.9
					C80.7,53.6,79.4,54.9,77.8,54.9z"/>
			</g>
			<g>
				<path class="st0" d="M100.1,54.9h-3.7c-1.6,0-2.9-1.3-2.9-2.9c0-1.6,1.3-2.9,2.9-2.9h3.7c1.6,0,2.9,1.3,2.9,2.9
					C103,53.6,101.7,54.9,100.1,54.9z"/>
			</g>
			<g>
				<path class="st0" d="M121.9,54.9h-3.7c-1.6,0-2.9-1.3-2.9-2.9c0-1.6,1.3-2.9,2.9-2.9h3.7c1.6,0,2.9,1.3,2.9,2.9
					C124.7,53.6,123.4,54.9,121.9,54.9z"/>
			</g>
		</g>
		<g>
			<rect x="107.7" y="127.6" class="st0" width="48.4" height="5.8"/>
		</g>
		<g>
			<rect x="107.7" y="139.2" class="st0" width="48.4" height="5.8"/>
		</g>
	</g>
	<g>
		<g>
			<g>
				<path class="st1" d="M45.8,134.1c-5.9,0-10.8-4.8-10.8-10.8c0-5.9,4.8-10.8,10.8-10.8c5.9,0,10.8,4.8,10.8,10.8
					C56.6,129.3,51.8,134.1,45.8,134.1z M45.8,117.2c-3.4,0-6.1,2.7-6.1,6.1c0,3.4,2.7,6.1,6.1,6.1c3.4,0,6.1-2.7,6.1-6.1
					C51.9,120,49.2,117.2,45.8,117.2z"/>
			</g>
		</g>
		<g>
			<g>
				<path class="st1" d="M79.8,111.4c-5.9,0-10.8-4.8-10.8-10.8c0-5.9,4.8-10.8,10.8-10.8c5.9,0,10.8,4.8,10.8,10.8
					C90.6,106.5,85.7,111.4,79.8,111.4z M79.8,94.5c-3.4,0-6.1,2.7-6.1,6.1c0,3.4,2.7,6.1,6.1,6.1c3.4,0,6.1-2.7,6.1-6.1
					C85.9,97.2,83.1,94.5,79.8,94.5z"/>
			</g>
		</g>
		<g>
			<g>
				<path class="st1" d="M112.7,120.1c-5.9,0-10.8-4.8-10.8-10.8c0-5.9,4.8-10.8,10.8-10.8c5.9,0,10.8,4.8,10.8,10.8
					C123.4,115.2,118.6,120.1,112.7,120.1z M112.7,103.2c-3.4,0-6.1,2.7-6.1,6.1c0,3.4,2.7,6.1,6.1,6.1c3.4,0,6.1-2.7,6.1-6.1
					C118.7,105.9,116,103.2,112.7,103.2z"/>
			</g>
		</g>
		<g>
			<g>
				<path class="st1" d="M147.7,95.8c-5.9,0-10.8-4.8-10.8-10.8s4.8-10.8,10.8-10.8c5.9,0,10.8,4.8,10.8,10.8S153.6,95.8,147.7,95.8
					z M147.7,79c-3.4,0-6.1,2.7-6.1,6.1c0,3.4,2.7,6.1,6.1,6.1c3.4,0,6.1-2.7,6.1-6.1C153.8,81.7,151.1,79,147.7,79z"/>
			</g>
		</g>
		<g>
			<g>
				
					<rect x="50.8" y="109.4" transform="matrix(0.8311 -0.5562 0.5562 0.8311 -51.4968 53.974)" class="st1" width="24.6" height="4.7"/>
			</g>
		</g>
		<g>
			<g>
				
					<rect x="93.7" y="96.5" transform="matrix(0.2559 -0.9667 0.9667 0.2559 -29.9295 170.9413)" class="st1" width="4.7" height="16.9"/>
			</g>
		</g>
		<g>
			<g>
				
					<rect x="117.3" y="94.8" transform="matrix(0.8223 -0.5691 0.5691 0.8223 -32.1693 91.3553)" class="st1" width="25.7" height="4.7"/>
			</g>
		</g>
	</g>
</g>
</svg>
