<?xml version="1.0" encoding="utf-8"?>
<!-- Generator: Adobe Illustrator 25.2.1, SVG Export Plug-In . SVG Version: 6.00 Build 0)  -->
<svg version="1.1" id="Capa_1" xmlns="http://www.w3.org/2000/svg" xmlns:xlink="http://www.w3.org/1999/xlink" x="0px" y="0px"
	 viewBox="0 0 200 200" style="enable-background:new 0 0 200 200;" xml:space="preserve">
<g>
	<path d="M113.7,111c-11.6,2.3-24,1.3-34.3-2.1c-9.6-3.2-15.7-11.2-18.1-20.3c-1.2-5.1-1.5-12.4-0.6-18.9h27.8
		c-0.5,4.4-0.6,8.2,0.1,11.6c0.6,2.8,2,4.8,4.7,6.2c6.9,3.2,20.4,3,23.7-6.1c1.8-4.7,0.7-9.2-3-12c-2.9-2.3-7.7-2.8-13.5-2.8h-9.3
		l2-22.7h9.3c6.4,0,15.4-2.1,16.3-9.9c0.2-2.7-1.2-5.9-3.3-7.5c-2.7-2-8-2.5-11.5-2c-4.4,0.7-7.9,3.4-9.8,7.3
		c-1.2,2.5-2.3,5.4-2.4,9.6h-28c2.4-9.2,5.1-17.7,10.5-24.7C80,9.2,87.3,5.4,96.7,3.1c17.2-4.1,42.1-1.7,49.4,15.3
		c2.8,6.5,2.7,14.7-0.2,21.6c-2.3,5.5-7,10.7-12.2,14.1c4.4,1.4,8.3,4.7,10.6,8.5c2.9,5.1,3.2,13.1,2.3,18.9
		c-0.9,6.9-4,13.8-9.7,18.9C130.5,106.1,121.5,109.4,113.7,111z"/>
</g>
</svg>
