<?xml version="1.0" encoding="utf-8"?>
<!-- Generator: Adobe Illustrator 27.7.0, SVG Export Plug-In . SVG Version: 6.00 Build 0)  -->
<svg version="1.1" id="圖層_1" xmlns="http://www.w3.org/2000/svg" xmlns:xlink="http://www.w3.org/1999/xlink" x="0px" y="0px"
	 viewBox="0 0 983.4 543.2" style="enable-background:new 0 0 983.4 543.2;" xml:space="preserve">
<style type="text/css">
	.st0{display:none;}
	.st1{display:inline;}
	.st2{fill:none;stroke:#A95912;stroke-width:1.2864;stroke-miterlimit:10;}
	.st3{fill:none;stroke:#F7DE3E;stroke-width:1.2864;stroke-miterlimit:10;}
	.st4{fill:none;stroke:#F1A923;stroke-width:1.2864;stroke-miterlimit:10;}
	.st5{fill:#AAAAAA;}
	.st6{fill:#F0D200;}
	.st7{fill:none;stroke:#FFFFFF;stroke-width:3;stroke-linecap:round;stroke-linejoin:round;stroke-miterlimit:10;}
	.st8{fill:#FFFFFF;stroke:#F36A00;stroke-width:5;stroke-miterlimit:9.9999;}
	.st9{fill:none;stroke:#F36A00;stroke-width:5;stroke-linecap:round;stroke-linejoin:round;stroke-miterlimit:10;}
	.st10{fill:#F36A00;}
	.st11{fill:#FEA700;}
	.st12{fill:url(#SVGID_1_);}
	.st13{fill:url(#SVGID_00000085211708030768731700000008340022940078133932_);}
	.st14{fill:url(#SVGID_00000070119872204491271700000014007409654632637082_);}
	.st15{fill:url(#SVGID_00000054966263612956124210000013205488363807418511_);}
	.st16{fill:url(#SVGID_00000154402856040872642650000005497690209440275361_);}
	.st17{fill:url(#SVGID_00000005247035861425215500000009039326954702666384_);}
	.st18{fill:url(#SVGID_00000145778154128588766500000008915280490189282963_);}
	.st19{fill:url(#SVGID_00000002375399056592706320000007218043146695045271_);}
	.st20{filter:url(#Adobe_OpacityMaskFilter);}
	.st21{fill:url(#SVGID_00000044881766405990090790000001672238312237077132_);}
	.st22{mask:url(#SVGID_00000143615593695659756850000016131584393151204021_);fill:#C17331;}
	.st23{fill:url(#SVGID_00000025439164697009603390000018378480558984551559_);}
	.st24{fill:url(#SVGID_00000094583313985719704870000002214604837649234867_);}
	.st25{fill:url(#SVGID_00000023276856176339835200000006482585345167103137_);}
	.st26{fill:url(#SVGID_00000031928704371136519070000018277755122708721809_);}
	.st27{fill:url(#SVGID_00000163772970986538288890000016059624950901855397_);}
	.st28{fill:url(#SVGID_00000135669739001259051380000000548529832465951423_);}
	.st29{fill:url(#SVGID_00000094592412379880226320000003665939587493792958_);}
	.st30{fill:url(#SVGID_00000161593600631223456290000007054058374116949436_);}
	.st31{fill:url(#SVGID_00000114062245849626241120000018019346772800315305_);}
	.st32{fill:url(#SVGID_00000012453678536107374150000008241795202078064794_);}
	.st33{fill:url(#SVGID_00000029767319091782965590000002796261591548072604_);}
	.st34{fill:url(#SVGID_00000096780559038637952390000007298050989629144490_);}
	.st35{fill:url(#SVGID_00000065775647410978740610000004822265650735710645_);}
	.st36{fill:url(#SVGID_00000014634868279447557650000004775153397294964366_);}
	.st37{fill:url(#SVGID_00000135651528071530857460000008574803531786073267_);}
	.st38{fill:url(#SVGID_00000096037594169367284430000004028601374920083870_);}
	.st39{fill:url(#SVGID_00000151533255929005464780000009580420544432342186_);}
	.st40{fill:url(#SVGID_00000000944250240030140340000009331708153887571083_);}
	.st41{fill:url(#SVGID_00000121266083465285022260000015819310693366998912_);}
	.st42{fill:url(#SVGID_00000147180334898024025680000008848932245589008263_);}
	.st43{fill:url(#SVGID_00000152253088176879113670000014087606690894078372_);}
	.st44{fill:url(#SVGID_00000155834468986776767670000014160682180671556011_);}
	.st45{fill:url(#SVGID_00000142880564892041708360000012380705250609930418_);}
	.st46{fill:url(#SVGID_00000073691155806123026220000002439359051266050492_);}
	.st47{fill:url(#SVGID_00000165944694315105116690000002358088934698461850_);}
	.st48{fill:url(#SVGID_00000097470503277262359070000005287324639161722286_);}
	.st49{fill:url(#SVGID_00000137847444865969506390000008308567034857576622_);}
	.st50{fill:url(#SVGID_00000140693730051902049280000017587077906854803120_);}
	.st51{fill:url(#SVGID_00000171718516892004199740000014857804220802628517_);}
	.st52{fill:url(#SVGID_00000147192316559166712690000015738450048450572472_);}
	.st53{fill:url(#SVGID_00000095315294712056228380000009821810147950793919_);}
	.st54{filter:url(#Adobe_OpacityMaskFilter_00000141437226628430221710000004803966735540459659_);}
	.st55{fill:url(#SVGID_00000149371237393755524420000004157368857785488312_);}
	
		.st56{mask:url(#SVGID_00000009578132036265052890000011333946160861025980_);fill:url(#SVGID_00000130648159706036027730000014128551075591701417_);}
	.st57{fill:#FFFFFF;}
	.st58{fill:none;stroke:#FEA700;stroke-width:5;stroke-miterlimit:10;}
	.st59{fill:#FFFFFF;stroke:#F36A00;stroke-width:3;stroke-miterlimit:10;}
	.st60{fill:#E56700;}
	.st61{fill:#030000;}
	.st62{fill:#FFAA22;}
	.st63{fill:#783F04;}
	.st64{enable-background:new    ;}
	.st65{fill:none;stroke:#000000;stroke-width:3;stroke-linecap:round;stroke-linejoin:round;stroke-miterlimit:10;}
	.st66{fill:url(#SVGID_00000161614247538488843340000001028631240685846199_);}
	.st67{fill:url(#SVGID_00000062180597798548071050000013249809254655274162_);}
	.st68{fill:url(#SVGID_00000099658944427849981090000004222945106586563725_);}
	.st69{fill:url(#SVGID_00000008848567870109932490000005271179308482344845_);}
	.st70{fill:url(#SVGID_00000005984757253661838810000015773204610626254262_);}
	.st71{fill:#FFFFFF;stroke:#EF6100;stroke-miterlimit:10;}
</style>
<g class="st0">
	<g class="st1">
		<path class="st2" d="M25.5,247.3c23.3,0,23.3,74.5,46.6,74.5s23.3-86.3,46.6-86.3s23.3-12.6,46.6-12.6s23.3,83.2,46.6,83.2
			s23.3-59.7,46.6-59.7s23.3,61.1,46.6,61.1c23.3,0,23.3-45.1,46.6-45.1c23.3,0,23.3,39.2,46.6,39.2c23.3,0,23.3,9.8,46.6,9.8
			c23.3,0,23.3,19.2,46.6,19.2s23.3-55.8,46.6-55.8s23.3,45.8,46.6,45.8s23.3-35.1,46.6-35.1s23.3,2.3,46.6,2.3s23.3-62,46.6-62
			s23.3,67.3,46.6,67.3s23.3-52,46.6-52s23.3,64.4,46.6,64.4s23.3-96,46.6-96s23.3,115.2,46.6,115.2s23.3,6.1,46.6,6.1
			s23.3-65.3,46.6-65.3"/>
	</g>
	<g class="st1">
		<path class="st3" d="M31.6,293.1c23.4,0,23.4-35.5,46.7-35.5c23.4,0,23.4,21.1,46.7,21.1c23.4,0,23.4,43.7,46.7,43.7
			c23.4,0,23.4-41.4,46.7-41.4c23.4,0,23.4-13.5,46.7-13.5c23.4,0,23.4,22.9,46.7,22.9c23.4,0,23.4,16.3,46.7,16.3
			c23.4,0,23.4-27.5,46.7-27.5c23.4,0,23.4-3.2,46.7-3.2c23.4,0,23.4-12.9,46.7-12.9c23.4,0,23.4,29,46.7,29
			c23.4,0,23.4,31.4,46.7,31.4c23.4,0,23.4-53.4,46.7-53.4c23.4,0,23.4,5,46.7,5c23.4,0,23.4,30.7,46.7,30.7c23.4,0,23.4-1,46.7-1
			c23.4,0,23.4-33.3,46.7-33.3c23.4,0,23.4,6.6,46.7,6.6c23.4,0,23.4-0.9,46.7-0.9c23.4,0,23.4,0.3,46.7,0.3S989,325,1012.3,325"/>
	</g>
	<g class="st1">
		<path class="st4" d="M5.1,338.2c15.2,0,15.2-7.8,30.5-7.8c15.2,0,15.2,72.6,30.5,72.6c15.2,0,15.2-85.2,30.5-85.2
			c15.2,0,15.2,29,30.5,29c15.2,0,15.2,23.9,30.5,23.9c15.2,0,15.2-27.5,30.5-27.5c15.2,0,15.2,52.6,30.5,52.6
			c15.2,0,15.2,18.7,30.5,18.7c15.2,0,15.2,15.2,30.5,15.2c15.2,0,15.2-3.4,30.5-3.4c15.2,0,15.2-24.2,30.5-24.2
			c15.2,0,15.2,38.9,30.5,38.9c15.2,0,15.2,11.4,30.5,11.4c15.2,0,15.2-36.5,30.5-36.5c15.2,0,15.2-47.8,30.5-47.8
			c15.2,0,15.2,88,30.5,88c15.2,0,15.2-37,30.5-37c15.2,0,15.2-31.6,30.5-31.6c15.2,0,15.2,48.8,30.5,48.8
			c15.2,0,15.2-113.3,30.5-113.3c15.2,0,15.2,98.2,30.5,98.2c15.2,0,15.2-112,30.5-112c15.2,0,15.2,12.7,30.5,12.7
			c15.2,0,15.2,8,30.5,8c15.2,0,15.2,13.7,30.5,13.7c15.2,0,15.2,32.6,30.5,32.6c15.2,0,15.2,71.8,30.5,71.8
			c15.2,0,15.2-11.2,30.5-11.2c15.2,0,15.2-7.4,30.5-7.4c15.2,0,15.2-115.9,30.5-115.9c15.2,0,15.2-3.3,30.5-3.3
			c15.2,0,15.2,90.2,30.5,90.2c15.2,0,15.2-54.1,30.5-54.1c15.2,0,15.2-34.1,30.5-34.1c15.2,0,15.2,96.4,30.5,96.4
			c15.2,0,15.2-81.1,30.5-81.1c15.2,0,15.2,134.8,30.5,134.8s15.2-105.5,30.5-105.5"/>
	</g>
</g>
<g>
	
		<rect x="447" y="460.2" transform="matrix(0.7071 -0.7071 0.7071 0.7071 -208.738 485.2395)" class="st5" width="68.7" height="68.7"/>
	<path class="st5" d="M815.6,509.6H127c-16.5,0-30-13.5-30-30V90.3c0-16.5,13.5-30,30-30h688.6c16.5,0,30,13.5,30,30v389.3
		C845.6,496.1,832.1,509.6,815.6,509.6z"/>
	<path class="st6" d="M835.6,484.9H147.1c-16.5,0-30-13.5-30-30V65.6c0-16.5,13.5-30,30-30h688.6c16.5,0,30,13.5,30,30v389.3
		C865.6,471.4,852.1,484.9,835.6,484.9z"/>
	<path class="st7" d="M130.1,96V72.7c0-16.5,9.5-26,26-26H273"/>
	<path class="st7" d="M130.1,385.9v29.4c0,16.5,9.5,26,26,26h149.8"/>
	<path class="st7" d="M852.5,96V72.7c0-16.5-9.5-26-26-26H696.9"/>
	<path class="st7" d="M852.5,385.9v29.4c0,16.5-9.5,26-26,26H680.9"/>
	
		<rect x="457" y="450.2" transform="matrix(0.7071 -0.7071 0.7071 0.7071 -198.7291 489.3907)" class="st6" width="68.7" height="68.7"/>
	<g>
		
			<ellipse transform="matrix(0.7071 -0.7071 0.7071 0.7071 -95.2263 622.0511)" class="st8" cx="703.3" cy="426" rx="28.9" ry="28.9"/>
		<line class="st9" x1="723.7" y1="448.4" x2="743.8" y2="468.5"/>
	</g>
	<g>
		<g>
			<g>
				<g>
					<path class="st10" d="M701.3,421.6l-13-7.5c2.8-4.8,7.5-7.5,13-7.5V421.6z"/>
				</g>
			</g>
			<g>
				<g>
					<path class="st11" d="M703.5,426.2v15c-8.3,0-15-6.7-15-15c0-2.8,0.6-5.1,2-7.5L703.5,426.2z"/>
				</g>
			</g>
			<g>
				<g>
					<path class="st6" d="M703.5,426.2v-15c8.3,0,15,6.7,15,15s-6.7,15-15,15l0,0V426.2z"/>
				</g>
			</g>
		</g>
	</g>
	<g>
		
			<linearGradient id="SVGID_1_" gradientUnits="userSpaceOnUse" x1="426" y1="452.8398" x2="472.9" y2="452.8398" gradientTransform="matrix(1 0 0 -1 0 543.8898)">
			<stop  offset="0" style="stop-color:#C17331"/>
			<stop  offset="0.8" style="stop-color:#834C00"/>
		</linearGradient>
		<path class="st12" d="M449.5,79.4l1.9-14.1c0,0-1.6-2.8-1.6-5s2.2-7.8,2.2-7.8l1-8.9c0-1.1-0.4-2.1-1.1-2.9
			c-0.8-0.9-2-1.4-3.2-1.4h-12.1L426,80l28,62.2l18.9,0.6l-22.5-58.4L449.5,79.4z"/>
		
			<linearGradient id="SVGID_00000124874421481450068800000005990452022174434443_" gradientUnits="userSpaceOnUse" x1="449.4629" y1="453.7898" x2="485.5629" y2="453.7898" gradientTransform="matrix(1 0 0 -1 0 543.8898)">
			<stop  offset="0" style="stop-color:#C17331"/>
			<stop  offset="0.8" style="stop-color:#834C00"/>
		</linearGradient>
		<path style="fill:url(#SVGID_00000124874421481450068800000005990452022174434443_);" d="M474.8,42.4l0.9-3.1
			c-0.1,0-0.2,0-0.2,0.1c-0.2-0.3-0.4-0.5-0.6-0.7c-0.7-0.8-2.1-1.7-4.4-1.7h-11.3c-3.5,0-5.9,2.2-6.2,5.7l-0.1,0.9l-1,8.9
			c0,0-2.2,5.6-2.2,7.8s1.6,5,1.6,5l-1.9,14.1l0.9,5l22.5,58.4l12.7,0.4L470.1,86L474.8,42.4z"/>
		
			<linearGradient id="SVGID_00000067943656709754760730000008786919421238433982_" gradientUnits="userSpaceOnUse" x1="542.2422" y1="453.1499" x2="598.4874" y2="453.1499" gradientTransform="matrix(1 0 0 -1 0 543.8898)">
			<stop  offset="0" style="stop-color:#C17331"/>
			<stop  offset="0.8" style="stop-color:#834C00"/>
		</linearGradient>
		<path style="fill:url(#SVGID_00000067943656709754760730000008786919421238433982_);" d="M597.7,54.3c-0.1-1.4-0.6-2.3-1.2-2.8
			l1-1.5c1-1.4,1-2.7,0.8-3.5c-0.2-1.1-0.9-2.1-1.9-2.7l-1.4-0.9c0.4-1.1,0.2-1.9,0.1-2.6c-0.3-1.1-1.1-2-2.1-2.5l-2.4-1.3
			c0,0-0.1,0-0.1-0.1c-1.1-0.6-2.4-0.7-3.5-0.2c-0.7,0.3-1.5,0.8-2.1,1.9c-0.5-0.4-1.2-0.8-1.9-0.9l-1.3-0.3l-4.6,37l-5.3,6.3
			l-29.4,64.9l15,0.5l35.4-58.3c0.6-0.4,1.2-0.9,1.8-1.5c1.5-1.6,2.4-3.2,2.8-4.9c0.8-2.3,0.1-4-0.4-4.8c0,0,0-0.1-0.1-0.1l-2-2.9
			c0.1-0.5,0.2-0.9,0.2-1.3c0.8-0.6,1.4-1.4,1.7-2.4l1-3.2c0.5-1.7,0-3-0.4-3.6c0.5-0.8,0.8-1.8,0.8-2.8L597.7,54.3z"/>
		
			<linearGradient id="SVGID_00000121258226786421185110000012408133058342664596_" gradientUnits="userSpaceOnUse" x1="525.345" y1="453.6766" x2="565.6166" y2="453.6766" gradientTransform="matrix(1 0 0 -1 0 543.8898)">
			<stop  offset="0" style="stop-color:#C17331"/>
			<stop  offset="0.8" style="stop-color:#834C00"/>
		</linearGradient>
		<path style="fill:url(#SVGID_00000121258226786421185110000012408133058342664596_);" d="M559.7,78.7l2.2-7.5l3.1-9.7l-1.9-4.1
			l1.6-12.2l0.9-4.2c-0.1,0.2-0.2,0.5-0.3,0.7v-0.3c0.2-2.4-1.2-4.4-3.6-4.8l-3.7-0.8h-0.1c-1.3-0.2-2.5,0-3.4,0.7
			c-0.7,0.5-1.5,1.5-1.6,3.1v0.1l-6.7,11c-0.1-0.1-0.1-0.1-0.2-0.2V53l-0.9,8.5L542,71.8c0,0,6-0.6,6,3.4c0,4.1-3.1,11.3-3.1,11.3
			l-19.4,57.8l13,0.4L559.4,86L559.7,78.7z"/>
		
			<linearGradient id="SVGID_00000067234303524339464960000005194425581924353981_" gradientUnits="userSpaceOnUse" x1="401.5255" y1="454.8007" x2="453.9601" y2="454.8007" gradientTransform="matrix(1 0 0 -1 0 543.8898)">
			<stop  offset="0" style="stop-color:#C17331"/>
			<stop  offset="0.8" style="stop-color:#834C00"/>
		</linearGradient>
		<path style="fill:url(#SVGID_00000067234303524339464960000005194425581924353981_);" d="M436.5,39.2h-2.2c-0.8-2-2.7-3.2-4.9-3
			l-4.5,0.4c-1.9,0.2-2.8,1.2-3.2,1.8c-0.1,0.2-0.3,0.5-0.4,0.8h-11c-3.5,0-5.8,2.2-6.2,5.7l-0.3,4c-0.1,0.8,0,1.5,0.3,2.1
			c-0.4,0.5-0.6,1-0.8,1.6l-1,2.7v0.1c-0.6,1.9,0.1,3.1,0.5,3.7c0.4,0.6,1.5,1.6,3.4,1.6h2.7c-0.8,0.9-1.3,2.2-1.5,3.7l-1,10.9
			c0,0.6,0,1.1,0,1.5c-0.4,0.1-0.8,0.1-1.2,0.1c-1.9,0.2-2.9,1.3-3.2,1.9c-0.4,0.6-0.9,2-0.2,3.7l1.2,2.9c0.4,1.1,1.2,1.9,2.1,2.4
			l29.2,53.6l19.5,0.6L426,80L436.5,39.2z"/>
		
			<linearGradient id="SVGID_00000155848929319514474970000001987151764919456142_" gradientUnits="userSpaceOnUse" x1="497.0851" y1="453.4702" x2="547.8403" y2="453.4702" gradientTransform="matrix(1 0 0 -1 0 543.8898)">
			<stop  offset="0" style="stop-color:#C17331"/>
			<stop  offset="0.8" style="stop-color:#834C00"/>
		</linearGradient>
		<path style="fill:url(#SVGID_00000155848929319514474970000001987151764919456142_);" d="M541.9,71.9l3.1-10.3l0.9-8.5v-2.5
			c-0.6-0.5-1.5-1.1-3-1.1h-7.7h-4.3l0.7-7.5c0.2-2.5-1.3-4.5-3.7-4.8l-5.4-0.9h-0.1c-1.2-0.2-2.4,0.1-3.3,0.8
			c-0.6,0.5-1.4,1.5-1.6,3.1l-1.9,5.7L505.9,71l-0.6,0.3l-4.7,1.6l-3.4,11.3l4.7,60.2h18l5.5,0.2l19.4-57.8c0,0,3.1-7.2,3.1-11.3
			C547.8,71.2,541.9,71.9,541.9,71.9z"/>
		
			<linearGradient id="SVGID_00000072977439884347573940000015490506389032789656_" gradientUnits="userSpaceOnUse" x1="470.141" y1="454.0073" x2="505.541" y2="454.0073" gradientTransform="matrix(1 0 0 -1 0 543.8898)">
			<stop  offset="0" style="stop-color:#C17331"/>
			<stop  offset="0.8" style="stop-color:#834C00"/>
		</linearGradient>
		<path style="fill:url(#SVGID_00000072977439884347573940000015490506389032789656_);" d="M497.4,83.8l3.1-11l4.7-1.6l0.3,0.6
			l-3.2-26.1l0.1-0.6c0.2-2.3-0.6-3.7-1.4-4.5c-0.7-0.8-2.1-1.7-4.4-1.7H496c-0.6-1.1-1.6-2-3-2.3l-3.2-0.7
			c-1.3-0.3-2.5-0.1-3.5,0.6c0,0-0.1,0-0.1,0.1l-3.1-0.7c-1.3-0.3-2.5-0.1-3.5,0.6c-0.5,0.3-1.2,1.1-1.6,2.4c-0.9,0-1.6,0.2-2.4,0.4
			l-0.9,3.1L470.1,86l15.5,57.2l16.8,0.8L497.4,83.8z"/>
		
			<linearGradient id="SVGID_00000113316640734603765010000001999817218294785162_" gradientUnits="userSpaceOnUse" x1="538.3096" y1="453.3573" x2="581.6028" y2="453.3573" gradientTransform="matrix(1 0 0 -1 0 543.8898)">
			<stop  offset="0" style="stop-color:#C17331"/>
			<stop  offset="0.8" style="stop-color:#834C00"/>
		</linearGradient>
		<path style="fill:url(#SVGID_00000113316640734603765010000001999817218294785162_);" d="M577,73.7l4.6-37l-2.2-0.5
			c-1.3-0.3-2.5-0.1-3.5,0.6c-0.3,0.2-0.7,0.6-1,1.1c0,0,0,0-0.1,0l-2.4-1.3c0,0,0,0-0.1,0c-1.1-0.6-2.4-0.7-3.5-0.2
			c-0.8,0.3-1.9,1.1-2.5,2.8c0,0.1,0,0.1,0,0.2c-0.2,0.6-0.4,1.2-0.6,1.8l-0.9,4.2l-1.6,12.2l1.9,4.1l-3.1,9.7l-2.2,7.5l-0.3,7.2
			l-21.1,58.8l3.9,0.1l29.4-65L577,73.7z"/>
	</g>
	<defs>
		<filter id="Adobe_OpacityMaskFilter" filterUnits="userSpaceOnUse" x="401.5" y="36.2" width="196.9" height="109.8">
			<feColorMatrix  type="matrix" values="1 0 0 0 0  0 1 0 0 0  0 0 1 0 0  0 0 0 1 0"/>
		</filter>
	</defs>
	
		<mask maskUnits="userSpaceOnUse" x="401.5" y="36.2" width="196.9" height="109.8" id="SVGID_00000143615593695659756850000016131584393151204021_">
		<g class="st20">
			
				<linearGradient id="SVGID_00000138560330173659230150000009338368612338404789_" gradientUnits="userSpaceOnUse" x1="499.6" y1="475.7968" x2="499.6" y2="432.4691" gradientTransform="matrix(1 0 0 -1 0 543.8898)">
				<stop  offset="1.198740e-03" style="stop-color:#FFFFFF"/>
				<stop  offset="1" style="stop-color:#000000"/>
			</linearGradient>
			
				<rect x="388.7" y="23" style="fill:url(#SVGID_00000138560330173659230150000009338368612338404789_);" width="221.8" height="127.8"/>
		</g>
	</mask>
	<path class="st22" d="M597.7,54.6c-0.1-1.4-0.6-2.3-1.2-2.8l1-1.5c1-1.4,1-2.7,0.8-3.5c-0.2-1.1-0.9-2.1-1.9-2.7l-1.4-0.9
		c0.4-1.1,0.2-1.9,0.1-2.6c-0.3-1.1-1.1-2-2.1-2.5l-2.4-1.3c0,0-0.1,0-0.1-0.1c-1.1-0.6-2.4-0.7-3.5-0.2c-0.7,0.3-1.5,0.8-2.1,1.9
		c-0.5-0.4-1.2-0.8-1.9-0.9l-3.6-0.8c-1.3-0.3-2.5-0.1-3.5,0.6c-0.3,0.2-0.7,0.6-1,1.1c0,0,0,0-0.1,0l-2.4-1.3c0,0,0,0-0.1,0
		c-1.1-0.6-2.4-0.7-3.5-0.2c-0.8,0.3-1.9,1.1-2.5,2.8c0,0.1,0,0.1,0,0.2c-0.2,0.8-0.5,1.6-0.9,2.5v-0.3c0.2-2.4-1.2-4.4-3.6-4.8
		l-3.7-0.8H558c-1.3-0.2-2.5,0-3.4,0.7c-0.7,0.5-1.5,1.5-1.6,3.1v0.1l-6.7,11c-0.5-0.6-1.5-1.3-3.2-1.3H531l0.7-7.5
		c0.2-2.5-1.3-4.5-3.7-4.8l-5.4-0.9h-0.1c-1.2-0.2-2.4,0.1-3.3,0.8c-0.6,0.5-1.4,1.5-1.6,3.1l-0.2,2.4l-8.2,19l-6.7-15.8l0.1-0.6
		c0.2-2.3-0.6-3.7-1.4-4.5c-0.7-0.8-2.1-1.7-4.4-1.7h-0.6c-0.6-1.1-1.6-2-3-2.3l-3.2-0.7c-1.3-0.3-2.5-0.1-3.5,0.6
		c0,0-0.1,0-0.1,0.1l-3.1-0.7c-1.3-0.3-2.5-0.1-3.5,0.6c-0.5,0.3-1.2,1.1-1.6,2.4c-1,0-1.8,0.2-2.6,0.5c-0.2-0.3-0.4-0.5-0.6-0.7
		c-0.7-0.8-2.1-1.7-4.4-1.7h-11.3c-3.5,0-5.9,2.2-6.2,5.7l-0.1,0.9c0-1.1-0.4-2.1-1.1-2.9c-0.8-0.9-2-1.4-3.2-1.4h-14.3
		c-0.8-2-2.7-3.2-4.9-3l-4.5,0.4c-1.9,0.2-2.8,1.2-3.2,1.8c-0.1,0.2-0.3,0.5-0.4,0.8h-11c-3.5,0-5.8,2.2-6.2,5.7l-0.3,4
		c-0.1,0.8,0,1.5,0.3,2.1c-0.4,0.5-0.6,1-0.8,1.6l-1,2.7v0.1c-0.6,1.9,0.1,3.1,0.5,3.7c0.4,0.6,1.5,1.6,3.4,1.6h2.7
		c-0.8,0.9-1.3,2.2-1.5,3.7l-1,10.9c0,0.6,0,1.1,0,1.5c-0.4,0.1-0.8,0.1-1.2,0.1c-1.9,0.2-2.9,1.3-3.2,1.9c-0.4,0.6-0.9,2-0.2,3.7
		l1.2,2.9c0.4,1.1,1.2,1.9,2.1,2.4l29.2,53.6l122.8,3.8l35.4-58.3c0.6-0.4,1.2-0.9,1.8-1.5c1.5-1.6,2.4-3.2,2.8-4.9
		c0.8-2.3,0.1-4-0.4-4.8c0,0,0-0.1-0.1-0.1l-2-2.9c0.1-0.5,0.2-0.9,0.2-1.3c0.8-0.6,1.4-1.4,1.7-2.4l1-3.2c0.5-1.7,0-3-0.4-3.6
		c0.5-0.8,0.8-1.8,0.8-2.8L597.7,54.6z"/>
	<g>
		
			<linearGradient id="SVGID_00000001641873105773938470000017010171850852727705_" gradientUnits="userSpaceOnUse" x1="632.8678" y1="367.4324" x2="670.4642" y2="367.4324" gradientTransform="matrix(1 0 0 -1 0 543.8898)">
			<stop  offset="1.198740e-03" style="stop-color:#FD9600"/>
			<stop  offset="1" style="stop-color:#F46A02"/>
		</linearGradient>
		<path style="fill:url(#SVGID_00000001641873105773938470000017010171850852727705_);" d="M693.1,180l5.4-28.9l31.6-30.8l-0.9-5.3
			c-0.1-0.2-0.3-0.5-0.5-0.7l-8.1-11c-2.4-3.3-6.3-4.3-9.9-2.5c-8.6,4.1-18.7,7.2-30.1,9.3h-0.1c-6,1.2-9.2,4.1-10.9,7l-3.3,30.3
			L653.8,198l-2.7,8.7l-2.2,14.7l-49,31.6H630l60.4-33.7L693.1,180z"/>
		
			<linearGradient id="SVGID_00000009551362146593771480000002641615404837539470_" gradientUnits="userSpaceOnUse" x1="128.585" y1="352.1398" x2="163.0676" y2="352.1398" gradientTransform="matrix(1 0 0 -1 0 543.8898)">
			<stop  offset="1.198740e-03" style="stop-color:#FD9600"/>
			<stop  offset="1" style="stop-color:#F46A02"/>
		</linearGradient>
		<polygon style="fill:url(#SVGID_00000009551362146593771480000002641615404837539470_);" points="112.8,164.2 107.3,131 
			103.5,129.9 99.1,140.3 86.1,181.6 81.7,208.9 200.6,253.6 239.7,253.6 129.7,206.2 		"/>
		
			<linearGradient id="SVGID_00000086691297611782651260000000489863908582298253_" gradientUnits="userSpaceOnUse" x1="523.3478" y1="364.6398" x2="614.9453" y2="364.6398" gradientTransform="matrix(1 0 0 -1 0 543.8898)">
			<stop  offset="1.198740e-03" style="stop-color:#FD9600"/>
			<stop  offset="1" style="stop-color:#F46A02"/>
		</linearGradient>
		<path style="fill:url(#SVGID_00000086691297611782651260000000489863908582298253_);" d="M622.8,222c-1.6,0-4.9-9.8-4.9-9.8
			l-4.9-7.6l-4.4-14.2l-1.1-8.7l3.8-20.2l1.6-16.3l3.8-13.6l-4.1-14.4l-16.1,12.2c-0.5-0.6-1-1.2-1.4-1.9l-9.3-18.5
			c-0.4-1.4-1-2.7-1.7-3.8L543.8,203l-31.2,50.3L582,253C605.6,235.4,623.3,222,622.8,222z"/>
		
			<linearGradient id="SVGID_00000146485401176935882500000009778073264271102351_" gradientUnits="userSpaceOnUse" x1="262.6245" y1="368.0656" x2="318.226" y2="368.0656" gradientTransform="matrix(1 0 0 -1 0 543.8898)">
			<stop  offset="1.198740e-03" style="stop-color:#FD9600"/>
			<stop  offset="1" style="stop-color:#F46A02"/>
		</linearGradient>
		<path style="fill:url(#SVGID_00000146485401176935882500000009778073264271102351_);" d="M303.5,204.5l21.7-103.7
			c-0.9,1-1.6,2.4-2.1,4.1v0.1c-0.8,3.3-1.6,6.4-2.4,9.5l-2.7,0.9c0-2.9-0.9-5.3-2.6-7.2c-2-2.2-4.9-3.3-8.6-3.3h-9.9
			c-1.1-2.5-3.2-3.9-5.3-4.4l-7.6-1.9c-2.9-0.7-4.9,0.2-6.1,1c-1.1,0.8-2.5,2.4-2.9,5.2h-8.2c-7.1,0-11.7,4.2-12.3,11.3l-0.1,1.6
			c-2.8,0.5-4.9,2.2-6.1,4.7l-0.5,1.2l-1.9,10l2.7,29.4l-5.4,15.8l-0.5,8.7c0,0-0.5,8.7-4.4,14.2c-3.8,5.4,4.9,17.4,4.9,17.4
			l61.2,34.2l41.5-0.1l-45-34.2L303.5,204.5z"/>
		
			<linearGradient id="SVGID_00000040560930200832924730000008515269399096780717_" gradientUnits="userSpaceOnUse" x1="711.33" y1="367.664" x2="798" y2="367.664" gradientTransform="matrix(1 0 0 -1 0 543.8898)">
			<stop  offset="1.198740e-03" style="stop-color:#FD9600"/>
			<stop  offset="1" style="stop-color:#F46A02"/>
		</linearGradient>
		<path style="fill:url(#SVGID_00000040560930200832924730000008515269399096780717_);" d="M837.5,214.3l6.5-18l14.7-55l-2.8-31.7
			c-1-1.1-2.8-2.3-5.7-2.3h-38.4l-0.8-2.1c-1.5-3.8-4.8-5.9-8.9-5.5l-11.2,1c-3.2,0.3-4.9,1.8-5.7,3.1c-0.5,0.8-1,2-1.1,3.5h-30.6
			c-5.1,0-8.9,2.3-10.9,6.2l-4.5,2.4l-1,20.4l-0.5,13.1l2.2,5.4l2.7,10.9l-3.3,31.6c0,0-1.6,4.9-3.8,9.3s0,14.7,0,14.7l-69.5,31.5
			l79.4-0.1l76.7-25.4L837.5,214.3z"/>
		
			<linearGradient id="SVGID_00000137852154595836617910000011413665129592563845_" gradientUnits="userSpaceOnUse" x1="377.0485" y1="367.9614" x2="405.7012" y2="367.9614" gradientTransform="matrix(1 0 0 -1 0 543.8898)">
			<stop  offset="1.198740e-03" style="stop-color:#FD9600"/>
			<stop  offset="1" style="stop-color:#F46A02"/>
		</linearGradient>
		<path style="fill:url(#SVGID_00000137852154595836617910000011413665129592563845_);" d="M399.9,219.8c-2.7-2.7-6-12-6-12
			l7.6-13.1l8.2-67l6.9-13.9l-11-10.3c-1.1-1.6-2.8-2.6-5-3l-10.3-2.1c-2.9-0.5-4.8,0.4-6,1.3c-1.1,0.9-2.6,2.5-2.8,5.6l-1.3,15.1
			h-0.7c-4.2,0-7.3,2.4-8.4,6.4l-1.3,4.6h-0.1l0.7-2.5v-0.1c0.7-2.6,0.1-4.5-0.6-5.7l-1.7,14l-4.4,21.3l-1.1,15.8l0.5,21.8l-3.3,18
			l30.5,39.6h28.8L405.5,225C405.9,224.7,402.7,222.5,399.9,219.8z"/>
		
			<linearGradient id="SVGID_00000056388322319093785130000012985867970594162337_" gradientUnits="userSpaceOnUse" x1="437.5297" y1="367.2398" x2="483.3065" y2="367.2398" gradientTransform="matrix(1 0 0 -1 0 543.8898)">
			<stop  offset="1.198740e-03" style="stop-color:#FD9600"/>
			<stop  offset="1" style="stop-color:#F46A02"/>
		</linearGradient>
		<path style="fill:url(#SVGID_00000056388322319093785130000012985867970594162337_);" d="M487.7,177.3l9.3-8.7l-7.6-15.8
			l10.9-18.9l-12.4-24.7c-0.2-1.3-0.7-2.3-1.2-2.9c-0.9-1.2-2.7-2.7-5.9-2.7h-21.1c-1.2-1.7-3-2.8-5.4-3.1l-3.4-0.5l-17.7,104.6
			l0.5,12.5l7.5,36.2l37.8-0.1l9.2-44.9L487.7,177.3z"/>
		
			<linearGradient id="SVGID_00000121276493560662199320000015232700718454928054_" gradientUnits="userSpaceOnUse" x1="345.85" y1="436.4652" x2="345.85" y2="295.2491" gradientTransform="matrix(1 0 0 -1 0 543.8898)">
			<stop  offset="1.198740e-03" style="stop-color:#FD9600"/>
			<stop  offset="1" style="stop-color:#F46A02"/>
		</linearGradient>
		<path style="fill:url(#SVGID_00000121276493560662199320000015232700718454928054_);" d="M363.4,195.8l-0.5-21.8l1.1-15.8
			l4.4-21.3l1.7-14c-0.1-0.2-0.3-0.4-0.4-0.6c-0.9-1.2-2.7-2.6-5.9-2.6h-10.1l-6.9-10.4c-0.2-2.9-2-5.3-5-6.5l-8.4-3.7
			c-0.1,0-0.1,0-0.2-0.1c-2-0.8-4.1-0.7-5.9,0.2c-0.8,0.4-1.5,0.9-2,1.6l-21.7,103.7l-2.7,14.7l45,34.2l44.9-0.1l-30.5-39.6
			L363.4,195.8z"/>
		
			<linearGradient id="SVGID_00000021815805573833026320000015508079459198772142_" gradientUnits="userSpaceOnUse" x1="321.4711" y1="367.9611" x2="369.7549" y2="367.9611" gradientTransform="matrix(1 0 0 -1 0 543.8898)">
			<stop  offset="1.198740e-03" style="stop-color:#FD9600"/>
			<stop  offset="1" style="stop-color:#F46A02"/>
		</linearGradient>
		<path style="fill:url(#SVGID_00000021815805573833026320000015508079459198772142_);" d="M363.4,195.8l-0.5-21.8l1.1-15.8
			l4.4-21.3l1.7-14c-0.1-0.2-0.3-0.4-0.4-0.6c-0.9-1.2-2.7-2.6-5.9-2.6h-10.1l-6.9-10.4c-0.2-2.9-2-5.3-5-6.5l-8.4-3.7
			c-0.1,0-0.1,0-0.2-0.1c-2-0.8-4.1-0.7-5.9,0.2c-0.8,0.4-1.5,0.9-2,1.6l-21.7,103.7l-2.7,14.7l45,34.2l44.9-0.1l-30.5-39.6
			L363.4,195.8z"/>
		
			<linearGradient id="SVGID_00000163792978655124352450000010297912700384646829_" gradientUnits="userSpaceOnUse" x1="234.1" y1="436.4652" x2="234.1" y2="295.2491" gradientTransform="matrix(1 0 0 -1 0 543.8898)">
			<stop  offset="1.198740e-03" style="stop-color:#FD9600"/>
			<stop  offset="1" style="stop-color:#F46A02"/>
		</linearGradient>
		<path style="fill:url(#SVGID_00000163792978655124352450000010297912700384646829_);" d="M238.1,201.8c3.8-5.4,4.4-14.2,4.4-14.2
			l0.5-8.7l5.4-15.8l-2.7-29.4l1.9-10l-1,2.7l-8.6-8.9c-0.4-1.1-1-2.1-1.8-2.9c-2-2.2-4.9-3.3-8.6-3.3h-14.1
			c-5.8,0-10.5,2.6-13.8,7.4l-11.9,17.4l0.1,0.2l-21.8,30.5l-2.2,20.2l3.8,3.8l1.1,16.9L270,253.5l34.3-0.1L243,219.2
			C243,219.2,234.3,207.3,238.1,201.8z"/>
		
			<linearGradient id="SVGID_00000020377321792573739110000015805738732479403950_" gradientUnits="userSpaceOnUse" x1="216.0376" y1="361.4898" x2="252.8531" y2="361.4898" gradientTransform="matrix(1 0 0 -1 0 543.8898)">
			<stop  offset="1.198740e-03" style="stop-color:#FD9600"/>
			<stop  offset="1" style="stop-color:#F46A02"/>
		</linearGradient>
		<path style="fill:url(#SVGID_00000020377321792573739110000015805738732479403950_);" d="M238.1,201.8c3.8-5.4,4.4-14.2,4.4-14.2
			l0.5-8.7l5.4-15.8l-2.7-29.4l1.9-10l-1,2.7l-8.6-8.9c-0.4-1.1-1-2.1-1.8-2.9c-2-2.2-4.9-3.3-8.6-3.3h-14.1
			c-5.8,0-10.5,2.6-13.8,7.4l-11.9,17.4l0.1,0.2l-21.8,30.5l-2.2,20.2l3.8,3.8l1.1,16.9L270,253.5l34.3-0.1L243,219.2
			C243,219.2,234.3,207.3,238.1,201.8z"/>
		
			<linearGradient id="SVGID_00000048473873765168674170000007701984295229759374_" gradientUnits="userSpaceOnUse" x1="173.2" y1="436.4652" x2="173.2" y2="295.2491" gradientTransform="matrix(1 0 0 -1 0 543.8898)">
			<stop  offset="1.198740e-03" style="stop-color:#FD9600"/>
			<stop  offset="1" style="stop-color:#F46A02"/>
		</linearGradient>
		<path style="fill:url(#SVGID_00000048473873765168674170000007701984295229759374_);" d="M122.6,126.6l5.3-20.3h-2.1
			c-8.4,0-15,4.5-18,12.3l-8.6,21.6l4.4-10.4l3.8,1.1l5.4,33.2l16.9,42l110.1,47.4h7.4L139.5,205L122.6,126.6z"/>
		
			<linearGradient id="SVGID_00000134965579520555584900000013151248900813186454_" gradientUnits="userSpaceOnUse" x1="171.9026" y1="363.8898" x2="204.7582" y2="363.8898" gradientTransform="matrix(1 0 0 -1 0 543.8898)">
			<stop  offset="1.198740e-03" style="stop-color:#FD9600"/>
			<stop  offset="1" style="stop-color:#F46A02"/>
		</linearGradient>
		<path style="fill:url(#SVGID_00000134965579520555584900000013151248900813186454_);" d="M168.9,207.8l-1.1-16.9l-3.8-3.8
			l2.2-20.2l21.8-30.5l-0.1-0.2l-3.5,5.2L154,113.8c-3.1-4.7-8.4-7.4-14.7-7.4h-11.4h-2.1c-8.4,0-15,4.5-18,12.3l-8.6,21.6l4.4-10.4
			l3.8,1.1l5.4,33.2l16.9,42l110.1,47.4h7.4H270L168.9,207.8z"/>
		
			<linearGradient id="SVGID_00000114765790113760472630000007739420785784150957_" gradientUnits="userSpaceOnUse" x1="422.45" y1="436.4652" x2="422.45" y2="295.2491" gradientTransform="matrix(1 0 0 -1 0 543.8898)">
			<stop  offset="1.198740e-03" style="stop-color:#FD9600"/>
			<stop  offset="1" style="stop-color:#F46A02"/>
		</linearGradient>
		<path style="fill:url(#SVGID_00000114765790113760472630000007739420785784150957_);" d="M433.2,204.5l17.7-104.6l-8.2-1.1
			c-2.9-0.4-4.8,0.6-5.9,1.4c-1.1,0.9-2.5,2.5-2.7,5.4l-1.2,13.8h-10.2l-6-5.6l-6.9,13.9l-8.2,67l-7.6,13.1c0,0,3.3,9.3,6,12
			s6,4.9,6,4.9l13.6,28.6h21.7l-7.5-36.2L433.2,204.5z"/>
		
			<linearGradient id="SVGID_00000165202096834604234120000014688452925502850182_" gradientUnits="userSpaceOnUse" x1="408.9238" y1="367.8853" x2="433.4568" y2="367.8853" gradientTransform="matrix(1 0 0 -1 0 543.8898)">
			<stop  offset="1.198740e-03" style="stop-color:#FD9600"/>
			<stop  offset="1" style="stop-color:#F46A02"/>
		</linearGradient>
		<path style="fill:url(#SVGID_00000165202096834604234120000014688452925502850182_);" d="M433.2,204.5l17.7-104.6l-8.2-1.1
			c-2.9-0.4-4.8,0.6-5.9,1.4c-1.1,0.9-2.5,2.5-2.7,5.4l-1.2,13.8h-10.2l-6-5.6l-6.9,13.9l-8.2,67l-7.6,13.1c0,0,3.3,9.3,6,12
			s6,4.9,6,4.9l13.6,28.6h21.7l-7.5-36.2L433.2,204.5z"/>
		
			<linearGradient id="SVGID_00000082355335348940731740000009087645778464914344_" gradientUnits="userSpaceOnUse" x1="100.5059" y1="436.4652" x2="100.5059" y2="295.2491" gradientTransform="matrix(1 0 0 -1 0 543.8898)">
			<stop  offset="1.198740e-03" style="stop-color:#FD9600"/>
			<stop  offset="1" style="stop-color:#F46A02"/>
		</linearGradient>
		<path style="fill:url(#SVGID_00000082355335348940731740000009087645778464914344_);" d="M86.1,181.6l13-41.4l-12.4-15.4
			c-0.3-1.1-0.9-2.4-2.1-3.6c-6.8-7.6-17.1-11.5-30.6-11.5c-13.3,0-25.3,4.8-35.7,14.2c-10.2,9.4-16.1,22.3-17.5,38.3
			c-1.4,16.2,2.3,29.1,11.1,38.3c7.7,8.1,17.9,12.7,30.2,13.6l107.7,39.5l50.7-0.1L81.7,208.9L86.1,181.6z"/>
		
			<linearGradient id="SVGID_00000009567318788238225260000009955743089180863150_" gradientUnits="userSpaceOnUse" x1="85.2674" y1="362.2398" x2="127.9638" y2="362.2398" gradientTransform="matrix(1 0 0 -1 0 543.8898)">
			<stop  offset="1.198740e-03" style="stop-color:#FD9600"/>
			<stop  offset="1" style="stop-color:#F46A02"/>
		</linearGradient>
		<path style="fill:url(#SVGID_00000009567318788238225260000009955743089180863150_);" d="M86.1,181.6l13-41.4l-12.4-15.4
			c-0.3-1.1-0.9-2.4-2.1-3.6c-6.8-7.6-17.1-11.5-30.6-11.5c-13.3,0-25.3,4.8-35.7,14.2c-10.2,9.4-16.1,22.3-17.5,38.3
			c-1.4,16.2,2.3,29.1,11.1,38.3c7.7,8.1,17.9,12.7,30.2,13.6l107.7,39.5l50.7-0.1L81.7,208.9L86.1,181.6z"/>
		
			<linearGradient id="SVGID_00000003795277036644266790000005439838881267911063_" gradientUnits="userSpaceOnUse" x1="531.4" y1="436.4652" x2="531.4" y2="295.2489" gradientTransform="matrix(1 0 0 -1 0 543.8898)">
			<stop  offset="1.198740e-03" style="stop-color:#FD9600"/>
			<stop  offset="1" style="stop-color:#F46A02"/>
		</linearGradient>
		<path style="fill:url(#SVGID_00000003795277036644266790000005439838881267911063_);" d="M584,105.1c-2.3-3.5-6.1-5.4-10.9-5.4
			l0,0l-1-1.9l-4.3,1.9H554c-4.2,0-7.3,2.4-8.4,6.4l-1,3.8l-1.3,0.5c-0.6-0.5-1.2-0.9-2.1-1.3l-12.2-5.4c-2.5-1.1-4.6-0.8-5.9-0.3
			c-1.3,0.5-3.2,1.7-4.4,4.6c0,0.1-0.1,0.1-0.1,0.2c-0.6,1.6-1.3,3.3-2.1,5l-16.4,20.7l-10.9,18.9l7.6,15.8l-9.3,8.7l0.5,31.1
			l-9.2,44.9l33.5-0.1l31.2-50.3L584,105.1z"/>
		
			<linearGradient id="SVGID_00000182507683107846790930000011234462160422685095_" gradientUnits="userSpaceOnUse" x1="485.7513" y1="368.3398" x2="521.7131" y2="368.3398" gradientTransform="matrix(1 0 0 -1 0 543.8898)">
			<stop  offset="1.198740e-03" style="stop-color:#FD9600"/>
			<stop  offset="1" style="stop-color:#F46A02"/>
		</linearGradient>
		<path style="fill:url(#SVGID_00000182507683107846790930000011234462160422685095_);" d="M584,105.1c-2.3-3.5-6.1-5.4-10.9-5.4
			l0,0l-1-1.9l-4.3,1.9H554c-4.2,0-7.3,2.4-8.4,6.4l-1,3.8l-1.3,0.5c-0.6-0.5-1.2-0.9-2.1-1.3l-12.2-5.4c-2.5-1.1-4.6-0.8-5.9-0.3
			c-1.3,0.5-3.2,1.7-4.4,4.6c0,0.1-0.1,0.1-0.1,0.2c-0.6,1.6-1.3,3.3-2.1,5l-16.4,20.7l-10.9,18.9l7.6,15.8l-9.3,8.7l0.5,31.1
			l-9.2,44.9l33.5-0.1l31.2-50.3L584,105.1z"/>
		
			<linearGradient id="SVGID_00000071543289880368950020000008922667177721625251_" gradientUnits="userSpaceOnUse" x1="247.85" y1="436.4651" x2="247.85" y2="295.2496" gradientTransform="matrix(1 0 0 -1 0 543.8898)">
			<stop  offset="1.198740e-03" style="stop-color:#FD9600"/>
			<stop  offset="1" style="stop-color:#F46A02"/>
		</linearGradient>
		<path style="fill:url(#SVGID_00000071543289880368950020000008922667177721625251_);" d="M247.6,123.7l0.5-1.2
			C247.9,122.9,247.8,123.3,247.6,123.7z"/>
		
			<linearGradient id="SVGID_00000053547405675809365580000007537362472987841164_" gradientUnits="userSpaceOnUse" x1="-38.174" y1="420.7898" x2="1011.3561" y2="420.7898" gradientTransform="matrix(1 0 0 -1 0 543.8898)">
			<stop  offset="0" style="stop-color:#C17331"/>
			<stop  offset="0.8" style="stop-color:#834C00"/>
		</linearGradient>
		<path style="fill:url(#SVGID_00000053547405675809365580000007537362472987841164_);" d="M247.6,123.7l0.5-1.2
			C247.9,122.9,247.8,123.3,247.6,123.7z"/>
		
			<linearGradient id="SVGID_00000183242389965849838470000010733471010125005727_" gradientUnits="userSpaceOnUse" x1="729.8451" y1="436.4651" x2="729.8451" y2="295.2491" gradientTransform="matrix(1 0 0 -1 0 543.8898)">
			<stop  offset="1.198740e-03" style="stop-color:#FD9600"/>
			<stop  offset="1" style="stop-color:#F46A02"/>
		</linearGradient>
		<path style="fill:url(#SVGID_00000183242389965849838470000010733471010125005727_);" d="M729.3,115l0.9,5.3
			C730.5,119,730.6,117.1,729.3,115z"/>
		
			<linearGradient id="SVGID_00000060001615065175112010000002838809056298238124_" gradientUnits="userSpaceOnUse" x1="-38.1647" y1="426.2398" x2="1011.2906" y2="426.2398" gradientTransform="matrix(1 0 0 -1 0 543.8898)">
			<stop  offset="0" style="stop-color:#C17331"/>
			<stop  offset="0.8" style="stop-color:#834C00"/>
		</linearGradient>
		<path style="fill:url(#SVGID_00000060001615065175112010000002838809056298238124_);" d="M729.3,115l0.9,5.3
			C730.5,119,730.6,117.1,729.3,115z"/>
		
			<linearGradient id="SVGID_00000131331229827176974140000010405561616939670942_" gradientUnits="userSpaceOnUse" x1="836.3" y1="436.4653" x2="836.3" y2="295.2491" gradientTransform="matrix(1 0 0 -1 0 543.8898)">
			<stop  offset="1.198740e-03" style="stop-color:#FD9600"/>
			<stop  offset="1" style="stop-color:#F46A02"/>
		</linearGradient>
		<path style="fill:url(#SVGID_00000131331229827176974140000010405561616939670942_);" d="M898.5,186l4.4-20.2l10.4-27.8l14.7-36.1
			l-10.9,6.3l-2.1-2.3l-0.1-0.1c-2.1-2.2-5-3.3-8.3-3.3l0,0l-32.7,0.6c-3.3,0-6,1.5-7.4,4.2l-9,5.1c-0.4-1.2-1-2.1-1.5-2.7l2.8,31.7
			l-14.7,55l-6.5,18l-16.3,13.1l-76.7,25.4l32.9-0.1l116.3-34L898.5,186z"/>
		
			<linearGradient id="SVGID_00000029758858574080670490000017458974865303631806_" gradientUnits="userSpaceOnUse" x1="793.8787" y1="366.4898" x2="837.204" y2="366.4898" gradientTransform="matrix(1 0 0 -1 0 543.8898)">
			<stop  offset="1.198740e-03" style="stop-color:#FD9600"/>
			<stop  offset="1" style="stop-color:#F46A02"/>
		</linearGradient>
		<path style="fill:url(#SVGID_00000029758858574080670490000017458974865303631806_);" d="M898.5,186l4.4-20.2l10.4-27.8l14.7-36.1
			l-10.9,6.3l-2.1-2.3l-0.1-0.1c-2.1-2.2-5-3.3-8.3-3.3l0,0l-32.7,0.6c-3.3,0-6,1.5-7.4,4.2l-9,5.1c-0.4-1.2-1-2.1-1.5-2.7l2.8,31.7
			l-14.7,55l-6.5,18l-16.3,13.1l-76.7,25.4l32.9-0.1l116.3-34L898.5,186z"/>
		
			<linearGradient id="SVGID_00000013154835557503728780000008596416426916723858_" gradientUnits="userSpaceOnUse" x1="685.8" y1="436.4652" x2="685.8" y2="295.2498" gradientTransform="matrix(1 0 0 -1 0 543.8898)">
			<stop  offset="1.198740e-03" style="stop-color:#FD9600"/>
			<stop  offset="1" style="stop-color:#F46A02"/>
		</linearGradient>
		<path style="fill:url(#SVGID_00000013154835557503728780000008596416426916723858_);" d="M734.5,206.7c2.2-4.4,3.8-9.3,3.8-9.3
			l3.3-31.6l-2.7-10.9l-2.2-5.4l0.5-13.1l1-20.4l-8,4.3l-31.6,30.8l-5.4,28.9l-2.7,39.2L630,253l35-0.1l69.5-31.5
			C734.5,221.4,732.3,211.1,734.5,206.7z"/>
		
			<linearGradient id="SVGID_00000118389813637972583330000015039564394047725220_" gradientUnits="userSpaceOnUse" x1="666.3777" y1="359.3898" x2="703.9742" y2="359.3898" gradientTransform="matrix(1 0 0 -1 0 543.8898)">
			<stop  offset="1.198740e-03" style="stop-color:#FD9600"/>
			<stop  offset="1" style="stop-color:#F46A02"/>
		</linearGradient>
		<path style="fill:url(#SVGID_00000118389813637972583330000015039564394047725220_);" d="M734.5,206.7c2.2-4.4,3.8-9.3,3.8-9.3
			l3.3-31.6l-2.7-10.9l-2.2-5.4l0.5-13.1l1-20.4l-8,4.3l-31.6,30.8l-5.4,28.9l-2.7,39.2L630,253l35-0.1l69.5-31.5
			C734.5,221.4,732.3,211.1,734.5,206.7z"/>
		
			<linearGradient id="SVGID_00000116220270225149930470000011408276567990897316_" gradientUnits="userSpaceOnUse" x1="625.7501" y1="436.4652" x2="625.7501" y2="295.2491" gradientTransform="matrix(1 0 0 -1 0 543.8898)">
			<stop  offset="1.198740e-03" style="stop-color:#FD9600"/>
			<stop  offset="1" style="stop-color:#F46A02"/>
		</linearGradient>
		<path style="fill:url(#SVGID_00000116220270225149930470000011408276567990897316_);" d="M651.1,206.7l2.7-8.7l12.5-50.7l3.3-30.3
			c-0.1,0.2-0.2,0.3-0.3,0.5l-7.6,5.2h-4.1l1.2-13.4c0.4-4.5-2.2-7.9-6.5-8.7l-11.5-2.1c-2.9-0.5-4.8,0.4-6,1.2
			c-0.5,0.4-1.1,1-1.6,1.8l-20.7,15.6l4.1,14.4l-3.8,13.6l-1.6,16.3l-3.8,20.2l1.1,8.7l4.4,14.2l4.9,7.6c0,0,3.3,9.8,4.9,9.8
			c0.6,0-17.2,13.4-40.8,31.1h17.8l49.1-31.6L651.1,206.7z"/>
		
			<linearGradient id="SVGID_00000092430872093458212770000002827299988427639976_" gradientUnits="userSpaceOnUse" x1="609.1657" y1="368.2118" x2="632.0651" y2="368.2118" gradientTransform="matrix(1 0 0 -1 0 543.8898)">
			<stop  offset="1.198740e-03" style="stop-color:#FD9600"/>
			<stop  offset="1" style="stop-color:#F46A02"/>
		</linearGradient>
		<path style="fill:url(#SVGID_00000092430872093458212770000002827299988427639976_);" d="M651.1,206.7l2.7-8.7l12.5-50.7l3.3-30.3
			c-0.1,0.2-0.2,0.3-0.3,0.5l-7.6,5.2h-4.1l1.2-13.4c0.4-4.5-2.2-7.9-6.5-8.7l-11.5-2.1c-2.9-0.5-4.8,0.4-6,1.2
			c-0.5,0.4-1.1,1-1.6,1.8l-20.7,15.6l4.1,14.4l-3.8,13.6l-1.6,16.3l-3.8,20.2l1.1,8.7l4.4,14.2l4.9,7.6c0,0,3.3,9.8,4.9,9.8
			c0.6,0-17.2,13.4-40.8,31.1h17.8l49.1-31.6L651.1,206.7z"/>
		
			<linearGradient id="SVGID_00000030485086165059491870000007383862926957777574_" gradientUnits="userSpaceOnUse" x1="897.5048" y1="436.4652" x2="897.5048" y2="295.2492" gradientTransform="matrix(1 0 0 -1 0 543.8898)">
			<stop  offset="1.198740e-03" style="stop-color:#FD9600"/>
			<stop  offset="1" style="stop-color:#F46A02"/>
		</linearGradient>
		<path style="fill:url(#SVGID_00000030485086165059491870000007383862926957777574_);" d="M945.3,222.4c2.5-0.1,4.9-0.3,7.3-0.7
			c4.7-0.7,8.8-2.9,12.1-6.3c3-3,7.1-9.7,11.7-35c0-0.1,0-0.1,0-0.2c0.7-4.4-0.1-7.9-2.2-10.3c-1-1.1-2.6-2.4-5.1-3l11-10.1
			c2.9-2.7,2.7-5.3,2.3-6.7c-0.4-1.3-1.6-3.6-5.2-4.3l-9.7-3l6.5-8.6c2.8-0.8,4.8-2.9,5.7-5.9l2.9-9.1c0-0.1,0-0.1,0.1-0.2
			c0.8-3.1-0.1-5.2-1-6.4c-0.9-1.2-2.7-2.6-5.9-2.6H956l2.1,11.7l-21.8,69.2l-2.2,16.9l-0.5,8.7L812,252.7h23.6L945.3,222.4z"/>
		
			<linearGradient id="SVGID_00000063613238589945771420000011999770719879906494_" gradientUnits="userSpaceOnUse" x1="841.283" y1="368.2678" x2="932.8804" y2="368.2678" gradientTransform="matrix(1 0 0 -1 0 543.8898)">
			<stop  offset="1.198740e-03" style="stop-color:#FD9600"/>
			<stop  offset="1" style="stop-color:#F46A02"/>
		</linearGradient>
		<path style="fill:url(#SVGID_00000063613238589945771420000011999770719879906494_);" d="M977.1,145.8l-9.7-3l6.5-8.6
			c2.8-0.8,4.8-2.9,5.7-5.9l2.9-9.1c0-0.1,0-0.1,0.1-0.2c0.8-3.1-0.1-5.2-1-6.4c-0.9-1.2-2.7-2.6-5.9-2.6h-19.8h-4.1
			c0-0.4-0.1-0.7-0.2-1c-0.4-1.4-1.3-3.3-3.9-4.6h-0.1l-9.8-4.9c-3.7-1.9-7.5-0.9-9.9,2.4L913.2,138l-10.4,27.8l-4.4,20.2l-4.9,32.7
			l-116.3,34l34.5-0.1h23.6l110-30.2c2.5-0.1,4.9-0.3,7.3-0.7c4.7-0.7,8.8-2.9,12.1-6.3c3-3,7.1-9.7,11.7-35c0-0.1,0-0.1,0-0.2
			c0.7-4.4-0.1-7.9-2.2-10.3c-1-1.1-2.6-2.4-5.1-3l11-10.1c2.9-2.7,2.7-5.3,2.3-6.7C982,148.8,980.8,146.6,977.1,145.8z"/>
	</g>
	<defs>
		
			<filter id="Adobe_OpacityMaskFilter_00000146490104424540400550000009653876532458340520_" filterUnits="userSpaceOnUse" x="0.6" y="97.9" width="982.3" height="155.8">
			<feColorMatrix  type="matrix" values="1 0 0 0 0  0 1 0 0 0  0 0 1 0 0  0 0 0 1 0"/>
		</filter>
	</defs>
	
		<mask maskUnits="userSpaceOnUse" x="0.6" y="97.9" width="982.3" height="155.8" id="SVGID_00000009578132036265052890000011333946160861025980_">
		<g style="filter:url(#Adobe_OpacityMaskFilter_00000146490104424540400550000009653876532458340520_);">
			
				<linearGradient id="SVGID_00000114770363576374480000000010510367970202903196_" gradientUnits="userSpaceOnUse" x1="491.5" y1="363.3328" x2="491.5" y2="300.0895" gradientTransform="matrix(1 0 0 -1 0 543.8898)">
				<stop  offset="1.198740e-03" style="stop-color:#FFFFFF"/>
				<stop  offset="1" style="stop-color:#000000"/>
			</linearGradient>
			
				<rect x="-23.4" y="97" style="fill:url(#SVGID_00000114770363576374480000000010510367970202903196_);" width="1029.8" height="158"/>
		</g>
	</mask>
	
		<linearGradient id="SVGID_00000032612650152314107210000011438885535594925752_" gradientUnits="userSpaceOnUse" x1="491.7607" y1="436.4653" x2="491.7607" y2="295.249" gradientTransform="matrix(1 0 0 -1 0 543.8898)">
		<stop  offset="1.198740e-03" style="stop-color:#FD9600"/>
		<stop  offset="1" style="stop-color:#F46A02"/>
	</linearGradient>
	
		<path style="mask:url(#SVGID_00000009578132036265052890000011333946160861025980_);fill:url(#SVGID_00000032612650152314107210000011438885535594925752_);" d="
		M977.1,145.8l-9.7-3l6.5-8.6c2.8-0.8,4.8-2.9,5.7-5.9l2.9-9.1c0-0.1,0-0.1,0.1-0.2c0.8-3.1-0.1-5.2-1-6.4c-0.9-1.2-2.7-2.6-5.9-2.6
		h-23.9c0-0.4-0.1-0.7-0.2-1c-0.4-1.4-1.3-3.3-3.9-4.6h-0.1l-9.8-4.9c-3.7-1.9-7.5-0.9-9.9,2.4l-10.9,6.3l-2.1-2.3l-0.1-0.1
		c-2.1-2.2-5-3.3-8.3-3.3l0,0l-32.7,0.6c-3.3,0-6,1.5-7.4,4.2l-9,5.1c-0.4-1.2-1-2.1-1.5-2.7c-1-1.1-2.8-2.3-5.7-2.3h-38.4l-0.8-2.1
		c-1.5-3.8-4.8-5.9-8.9-5.5l-11.2,1c-3.2,0.3-4.9,1.8-5.7,3.1c-0.5,0.8-1,2-1.1,3.5h-30.6c-5.1,0-8.9,2.3-10.9,6.2l-12.5,6.8
		c0.4-1.4,0.4-3.6-1.4-6.1l-8.1-11c-2.4-3.3-6.3-4.3-9.9-2.5c-8.6,4.1-18.7,7.2-30.1,9.3h-0.1c-6.4,1.3-9.6,4.4-11.1,7.5l-7.6,5.2
		h-4.1l1.2-13.4c0.4-4.5-2.2-7.9-6.5-8.7l-11.5-2.1c-2.9-0.5-4.8,0.4-6,1.2c-0.5,0.4-1.1,1-1.6,1.8l-36.8,27.8
		c-0.5-0.6-1-1.2-1.4-1.9l-9.3-18.5c-1.7-5.9-6.3-9.2-12.6-9.2l0,0l-1-1.9l-4.3,1.9H554c-4.2,0-7.3,2.4-8.4,6.4l-1,3.8l-1.3,0.5
		c-0.6-0.5-1.2-0.9-2.1-1.3l-12.2-5.4c-2.5-1.1-4.6-0.8-5.9-0.3c-1.3,0.5-3.2,1.7-4.4,4.6c0,0.1-0.1,0.1-0.1,0.2
		c-0.6,1.6-1.3,3.3-2.1,5L500.1,134l-12.4-24.7c-0.2-1.3-0.7-2.3-1.2-2.9c-0.9-1.2-2.7-2.7-5.9-2.7h-21.1c-1.2-1.7-3-2.8-5.4-3.1
		L442.6,99c-2.9-0.4-4.8,0.6-5.9,1.4c-1.1,0.9-2.5,2.5-2.7,5.4l-1.2,13.8h-10.2l-17-15.9c-1.1-1.6-2.8-2.6-5-3l-10.3-2.1
		c-2.9-0.5-4.8,0.4-6,1.3c-1.1,0.9-2.6,2.5-2.8,5.6l-1.3,15.1h-0.7c-4.2,0-7.3,2.4-8.4,6.4l-1.3,4.6h-0.1l0.7-2.5V129
		c0.8-3.1-0.1-5.2-1-6.4c-0.9-1.2-2.7-2.6-5.9-2.6h-10.1l-6.9-10.4c-0.2-2.9-2-5.3-5-6.5l-8.4-3.7c-0.1,0-0.1,0-0.2-0.1
		c-2-0.8-4.1-0.7-5.9,0.2c-2,1-3.4,2.9-4.1,5.7v0.1c-0.8,3.3-1.6,6.4-2.4,9.5l-2.7,0.9c0-2.9-0.9-5.3-2.6-7.2
		c-2-2.2-4.9-3.3-8.6-3.3h-9.9c-1.1-2.5-3.2-3.9-5.3-4.4l-7.6-1.9c-2.9-0.7-4.9,0.2-6.1,1c-1.1,0.8-2.5,2.4-2.9,5.2h-8.2
		c-7.1,0-11.7,4.2-12.3,11.3l-0.1,1.6c-3.2,0.6-5.6,2.7-6.6,6l-1,2.7l-8.6-8.9c-0.4-1.1-1-2.1-1.8-2.9c-2-2.2-4.9-3.3-8.6-3.3h-14.1
		c-5.8,0-10.5,2.6-13.8,7.4l-15.4,22.6L154,113.8c-3.1-4.7-8.4-7.4-14.7-7.4h-13.5c-8.4,0-15,4.5-18,12.3l-8.6,21.6l-12.4-15.4
		c-0.3-1.1-0.9-2.4-2.1-3.6c-6.8-7.6-17.1-11.5-30.6-11.5c-13.3,0-25.3,4.8-35.7,14.2c-10.2,9.4-16.1,22.3-17.5,38.3
		c-1.4,16.2,2.3,29.1,11.1,38.3c7.7,8.1,17.9,12.7,30.2,13.6l107.7,39.5l685.5-1.1l110-30.2c2.5-0.1,4.9-0.3,7.3-0.7
		c4.7-0.7,8.8-2.9,12.1-6.3c3-3,7.1-9.7,11.7-35c0-0.1,0-0.1,0-0.2c0.7-4.4-0.1-7.9-2.2-10.3c-1-1.1-2.6-2.4-5.1-3l11-10.1
		c2.9-2.7,2.7-5.3,2.3-6.7C982,148.8,980.8,146.6,977.1,145.8z"/>
	<g>
		<g>
			<path class="st57" d="M47,209.4c-13.2,0-23.6-4.1-31.4-12.3s-11-19.7-9.7-34.5s6.6-26.5,15.9-35.1c9.4-8.6,20.2-12.9,32.3-12.9
				s21.1,3.3,27,9.9c1.4,1.3,1.3,2.5-0.2,3.7L70,136.8c-1.5,1.1-3,1.2-4.5,0.1c-1.7-2.3-5.8-3.4-12.2-3.4s-12,2.5-16.7,7.6
				s-7.4,12.1-8.2,21.1c-0.8,9,0.7,16,4.4,21c3.7,4.9,9.8,7.4,18.2,7.4c3.7,0,5.6-0.2,5.7-0.7c2.1-1.1,3.2-2.8,3.4-5.2l0.7-7.7
				c0.2-2.3-0.9-3.4-3.3-3.4h-8.1c-1.9,0-2.6-0.9-2.2-2.7l3.4-12.5c0.4-1.8,1.5-2.7,3.4-2.7h21.3c4.5,0,6.5,2.2,6.2,6.7l-3.1,35.9
				c-3.6,3.3-8.2,6-13.8,8.1C59,208.4,53.1,209.4,47,209.4z"/>
			<path class="st57" d="M223.7,207.3L209,205c-1.8-0.2-2.6-1.3-2.4-3.2l1.5-16.9h-35.6c-1.9,0-2.7-0.9-2.5-2.8l2.3-12
				c0.2-1.9,0.9-3.6,2.1-5.3l29.5-43.2c2.4-3.5,5.6-5.3,9.7-5.3h14.1c4.5,0,6.5,2.2,6.2,6.7l-4,45.3h7.2c1.9,0,2.6,0.9,2.1,2.7
				l-3.1,11.2c-0.5,1.8-1.7,2.7-3.5,2.7h-4.2l-1.7,20C226.5,206.8,225.5,207.6,223.7,207.3z M193.9,165.3c-1.3,2-0.8,3.1,1.6,3.1h14
				l3.4-30.9c0.2-1.9-0.2-2-1.2-0.4l-8,13.4c-1,1.6-2,3.3-3.1,4.9L193.9,165.3z"/>
			<path class="st57" d="M365.8,127.4l-3,10.1c-0.5,1.8-1.7,2.7-3.5,2.7h-1.7c-3.7,18.4-8.6,33.2-14.8,44.5c4.6,9.5,10,16,16.2,19.5
				c1.5,0.9,1.5,2,0,3.2l-10.2,8.2c-1.5,1.2-2.9,1.3-4.3,0.1c-3.9-2.5-7.9-7.9-12-16.1c-7.2,8.3-14.2,13.9-21,16.9
				c-4.3,2.3-7.4,1.5-9.2-2.3l-0.9-2c-2.7,2.3-5.3,2.7-7.7,1.3c-0.9-0.6-4.3-2.1-10-4.5c-9.2,4.7-20.3,7.8-33.2,9.6
				c-2.2,0.4-3.5-0.3-3.9-2.1l-1.3-6.3c-0.3-1.8,0.5-2.9,2.6-3.2c5.5-0.7,11.8-2.1,18.9-4.4l-8.6-2.5c-4.9-1.4-5.6-4.2-2.1-8.3
				l2.1-2.5h-8.8c-1.9,0-2.5-0.9-2-2.7l2.4-6.3c0.6-1.8,1.8-2.7,3.7-2.7h13.2l2.7-4h-9.8c-4.5,0-6.5-2.2-6.2-6.7l0.8-9.4
				c0.4-4.5,2.8-6.7,7.3-6.7H276l0.2-2.6h-12.8c-4.5,0-6.5-2.2-6.2-6.7l0.6-6.5h-5.9c-1.9,0-2.5-0.9-2-2.7l2.5-7
				c0.6-1.8,1.8-2.7,3.7-2.7h2.8l0.5-6c0.4-4.5,2.8-6.7,7.3-6.7h12.8l0.4-4.2c0.2-1.9,1.1-2.6,2.9-2.2l7.6,1.8
				c1.8,0.4,2.5,1.9,2.3,4.5h14.1c4.5,0,6.5,2.2,6.2,6.7l-0.5,6h3.4c1.9,0,2.5,0.9,2,2.7l-2.5,7c-0.6,1.8-1.9,2.7-4,2.7l-0.6,6.5
				c-0.4,4.5-2.8,6.7-7.3,6.7h-14.1l-0.2,2.6h18.4c2.5,0,3.6,1.2,3.4,3.7c6.7-12.6,12.4-28.7,17.1-48.3c0.6-2.3,1.7-3.1,3.4-2.5
				l8.5,3.7c1.7,0.7,2.2,1.9,1.8,3.8l-4,13.5h26.1C365.6,124.7,366.3,125.6,365.8,127.4z M271.8,160.4c-2.3,0-3.5,1.3-3.8,3.8h6.7
				l0.3-3.8H271.8z M270.9,134c-0.2,2.2,0.9,3.3,3.3,3.3h2.9l0.3-3.3H270.9z M278.5,120.6h-2.9c-2.4,0-3.6,1-3.8,2.9h6.5
				L278.5,120.6z M274,189.4c-1.2,1.5-0.7,2.5,1.4,3.2l7.2,2.3l5-5.5H274z M312.3,180.5l-2.4,6.3c-0.6,1.8-1.8,2.7-3.7,2.7h-3.9
				L296,200l5.4,2.3c2.1,0.9,4.3,0.7,6.4-0.5c6.8-3.5,13-9.4,18.7-17.5l-4.3-21.2l-0.9,1.5c-2.6,4.8-5.6,5.3-8.8,1.5l-2.6-2.9
				l-0.3,3.9c-0.4,4.5-2.8,6.7-7.2,6.7h-18l-2.4,4h8.5c0.2-1.8,1.2-2.7,3.1-2.7l8.1,0.2c1.9,0,2.8,0.8,2.6,2.5h6.1
				C312.2,177.8,312.9,178.7,312.3,180.5z M294.9,160.4h-6.7l-0.3,3.8h3.3C293.5,164.2,294.7,162.9,294.9,160.4z M290.2,137.3h3.4
				c2.4,0,3.7-1.1,3.8-3.3h-7L290.2,137.3z M298.4,123.6c0.2-2-0.9-2.9-3.3-2.9h-3.4l-0.3,2.9H298.4z M342.6,140.1h-9.7
				c0.6,9.7,1.7,18.1,3.3,25C338.7,157.9,340.9,149.5,342.6,140.1z"/>
			<path class="st57" d="M405.6,156.9l-1.5,11c-0.2,1.9-1.3,3.1-3.1,3.6l-4.5,1.3l-4.4,37.9c-0.9,2.3-2.5,4.1-4.6,5.4
				c-3.5,2.2-8.3,3.3-14.1,3.2c-2.5,0.1-3.6-0.8-3.6-2.7l-0.2-10.5c0.1-1.9,1.1-2.8,2.9-2.8h3.6c1.3,0.2,2-0.4,2.1-1.8l2.1-24.2
				l-7.3,2c-1.8,0.4-2.7-0.3-2.5-2.2l0.3-12c0.2-1.9,1.2-3,3.1-3.4l7.9-1.7l1.6-18.3h-8.3c-1.9,0-2.6-0.9-2.1-2.7l3-10.9
				c0.5-1.8,1.7-2.7,3.5-2.7h5.3l1.7-19.6c0.2-1.9,1.1-2.7,2.9-2.3l10.2,2.1c1.8,0.3,2.6,1.4,2.4,3.3l-1.4,16.6h5.6
				c1.9,0,2.6,0.9,2.1,2.7l-3,10.9c-0.5,1.8-1.7,2.7-3.5,2.7h-2.6l-1.3,14.5l5.3-1.3C405.1,154.3,405.9,155.1,405.6,156.9z
				 M473.5,175.7c1.7-0.7,3-0.3,3.8,1.2l2.9,4.7c0.8,1.6,0.4,2.7-1.3,3.6c0.2,0-19.8,7.6-19.8,7.6c1,4.7,1,9.2-0.1,13.4
				c-1,4.1-2.7,7.2-5.1,9.2c-2.9,2.8-6.1,4.2-9.7,4.3c-5,0-7.6-2.3-8-6.9l-1.4-4.2c-5.7,2.8-9.3,4.3-10.8,4.5c-4,1.4-7.1,0.3-9-3.2
				l-1.8-3.1c-2.1,4.8-4,8.2-5.7,10.2c-1,1.5-2.1,1.6-3.3,0.2l-6.8-7.5c-1.2-1.3-1.3-2.7-0.4-4.3c2.4-2.7,4.6-8.1,6.6-16.2
				c2-8.1,3.5-17.2,4.4-27.3l2.7-30.8c0.4-4.5,2.8-6.7,7.2-6.7h19.6l1.6-18.4c0.2-1.8,1.1-2.6,2.9-2.3l11.5,1.6
				c1.8,0.2,2.6,1.3,2.4,3.2h24.8c1.9,0,2.5,0.9,2,2.7l-2.4,6.6c-0.6,1.8-1.8,2.7-3.7,2.7h-21.7l-0.3,3.9l25.5,1.2
				c5.3,0.2,7,2.9,5.2,8L481,145c-0.6,1.8-1.8,2.3-3.5,1.6l-6.9-3.4c-1.7-0.7-2.2-2-1.6-3.8s0.1-2.7-1.7-2.7H451l-0.3,3.1l12-1.1
				c1.9-0.1,2.5,0.8,2,2.6l-1.2,4c-0.6,1.8-1.8,2.8-3.7,2.9l-9.8,1c0.2,1.3,1.3,2,3.3,2h12.1c5.3,0,8.4-0.1,9.4-0.4
				c1.3-0.3,1.8,0.4,1.5,2.3l-0.9,5c-0.3,1.9-1.4,2.9-3.1,3.1c1.2,0.1-1,0.1-6.8,0.1H449c-4.3,0-7.5-0.6-9.5-1.8
				c-1.9-1.3-3.1-3.3-3.5-6l-7.2,0.7c-1.9,0.2-2.6-0.7-2.2-2.6l1.6-7.1c0.4-1.9,1.6-2.9,3.4-2.9l4.8-0.5l0.4-4.4H429
				c-2.4,0-3.7,1.2-3.9,3.6l-1.9,21.8c-0.6,6.9-1.4,12.8-2.3,17.9c7.1-1.5,13.9-3.5,20.4-6.1h-14.6c-1.9,0-2.5-0.9-1.8-2.7l2.1-5.6
				c0.6-1.8,1.9-2.7,3.8-2.7h51c1.9,0,2.5,0.9,1.8,2.7l-2.1,5.6c-0.6,1.8-1.9,2.7-3.8,2.7h-19.1l-7.8,4.7l4.7,5.5L473.5,175.7z
				 M446,192.6c-0.5-1.1-3.3-0.3-8.4,2.5c-2.3,1.4-5.4,2.6-9.2,3.7c-4.1,1.3-7.2,0.2-9.1-3.4l-1.3-2.2l-3.3,9.6
				c-0.8,2.3,0,3.1,2.2,2.5l14.3-4.5L446,192.6z M432.3,186.4c-5.1,1.3-8.5,0.1-10.2-3.6l-1.2-2.6l-2.7,12.1
				c8.8-1.9,16.5-4.4,22.9-7.6c-0.8-0.8-3.2-0.5-7.2,1L432.3,186.4z M441.3,208c3.3,0,5.2-2,5.7-5.9c-3.5,2.2-6.9,4.1-10.3,5.6
				C439.1,207.9,440.6,208,441.3,208z"/>
			<path class="st57" d="M547.4,118.4l3-11c0.5-1.8,1.7-2.7,3.5-2.7H573c4.2,0,6.9,2,7.9,6l9.7,19.3c5.5,7.7,11.5,13.2,18.2,16.7
				c1.6,0.8,1.8,1.9,0.3,3.2l-12,11.1c-1.4,1.3-2.9,1.4-4.3,0.4l-2.4-2.1c-2.1,17.3-3.9,29.7-5.5,37.3c-1.6,7.5-3.4,12.5-5.6,15
				c-3.1,3.7-7.4,6-12.9,6.9c-3.3,0.6-8.1,0.8-14.4,0.6c-2.5,0-3.8-0.9-3.9-2.7l-1-12.4c-0.1-1.8,0.8-2.6,2.7-2.5
				c1.1,0.1,4.2,0.1,9.1,0.1c2,0,3.7-0.6,5.1-1.8c2.2-2.2,4.6-14,7.3-35.3H551c-1.1,5.1-2.4,9.6-3.8,13.6c-1.3,4-3.3,8.2-5.8,12.5
				s-5.4,8.2-8.7,11.5c-7.5,7.6-15.3,12.8-23.2,15.5c-4.6,1.9-7.8,1-9.6-2.7l-1.7-3.3l-1.2-1.7c-3.1-4-1.6-7.2,4.5-9.4
				c7.2-2,13.7-6.5,19.5-13.6c2.8-3.5,5-7,6.6-10.4l3.9-11.9h-11.8c-4.4,0-6.4-2.6-5.9-7.7c-3.2,3.2-5.6,5.4-7.1,6.5
				c-1.3,1.1-2.5,1-3.5-0.4l-8.4-10.9c-1-1.4-0.8-2.7,0.7-3.8c4-2.5,8.9-7.6,14.8-15.5c5.9-7.8,10.3-15.4,13-22.7
				c0.8-1.9,2.1-2.5,3.7-1.7l12.2,5.4c1.7,0.7,2.1,2,1.3,3.8c-3.7,9.2-9,17.9-15.8,26.4c-1.7,2.2-1.5,3.3,0.8,3.3h49.8
				c2.4,0,2.9-0.9,1.5-2.7c-4.7-6.2-8.2-12.8-10.7-19.6c-0.8-2.5-2.5-3.7-4.8-3.7h-11.8C547.7,121.1,547,120.2,547.4,118.4z"/>
			<path class="st57" d="M644.5,216.5c-0.2,1.9-1.1,2.7-2.9,2.3l-11.5-2.1c-1.8-0.3-2.6-1.4-2.4-3.3l3.1-35.7
				c-4,8.8-7.8,15.3-11.1,19.4c-1,1.3-1.7,1.1-2.2-0.6l-3.7-13.7c-0.4-1.7-0.1-3.3,1-4.8c1.7-1.6,4.4-5.9,8-12.8l8.9-20.8H621
				c-1.9,0-2.6-0.9-2.1-2.7l3.1-11.4c0.5-1.8,1.7-2.7,3.5-2.7h9.6l1.9-22c0.2-1.9,1.1-2.7,2.9-2.3l11.5,2.1c1.8,0.3,2.6,1.4,2.4,3.3
				l-1.7,18.9h13.4c1.9,0,2.6,0.9,2.1,2.7l-3.1,11.4c-0.5,1.8-1.7,2.7-3.5,2.7h-10.3L644.5,216.5z M730,143.9c1.9,0,2.6,0.9,2.1,2.7
				L729,158c-0.5,1.8-1.7,2.7-3.5,2.7h-8.7l-4.9,55.7c-0.2,1.9-1.1,2.7-2.9,2.5l-12.1-2.3c-1.8-0.2-2.6-1.3-2.4-3.2l4.6-52.6h-12.8
				c-3.1,26.2-8.5,44-16.1,53.6c-2.1,3.1-4.8,3.4-8.3,0.9l-1.5-1.1l-1.5-0.9c-3.9-2-4.6-4.9-2.1-8.6l9.2-23.4c2-9.2,3.5-19,4.4-29.2
				L673,123c0.4-4.3,3.2-7,8.6-8.1c11.9-2.1,22.3-5.4,31.4-9.7c1.5-0.7,2.7-0.4,3.7,1l8.1,11c1,1.4,0.8,2.4-0.7,2.9
				c-7.3,3-17.3,5.8-30.2,8.2c-3.1,0.6-4.7,2-4.9,4.4l-1,11.2H730z"/>
			<path class="st57" d="M833.6,195.9c-0.4,4.5-2.8,6.7-7.3,6.7h-39.4c-3.9,0-5.1,2.1-3.5,6.4l-3.1,1.8l-12.5,4.7
				c-8,2.2-15,3.6-21,4.3c-1.8,0.3-3.1-0.3-3.8-2l-3.1-7.5c-0.7-1.6-0.1-2.5,1.7-2.7c5.8-0.6,13.4-2.2,22.8-5h-6.1
				c-4.5,0-6.5-2.2-6.2-6.7l2.4-27.5c0.4-4.5,2.8-6.7,7.3-6.7h68.1c4.5,0,6.5,2.2,6.2,6.7L833.6,195.9z M832.5,137.7h19.3
				c1.9,0,2.5,0.9,2,2.7l-2.5,7c-0.6,1.8-1.8,2.7-3.7,2.7h-17.5l-0.5,2.5c-0.8,4.4-3.4,6.6-7.8,6.6h-57.1c-4.6,0-6.4-2.3-5.4-6.9
				l0.6-2.2h-16.7c-1.9,0-2.5-0.9-2-2.7l2.5-7c0.6-1.8,1.8-2.7,3.7-2.7h15.2l0.6-2.3c0.9-4.3,3.5-6.5,7.8-6.5h56.4
				c4.6,0,6.5,2.3,5.7,6.9L832.5,137.7z M765.2,125.9c-2.4,0-3.7,1.2-3.9,3.6l-0.2,2.7c-0.2,1.9-1.1,2.7-2.9,2.3l-10.4-2.1
				c-1.8-0.3-2.6-1.4-2.4-3.3l0.9-10.1c0.4-4.5,2.8-6.7,7.2-6.7h37l-1.3-3.8c-0.6-1.7,0.1-2.7,2-2.8l11.2-1c1.9-0.2,3.2,0.6,3.8,2.3
				l2,5.3H850c1.9,0,2.7,0.9,2.6,2.8l-1.5,15.3c-0.2,1.9-1.1,3.2-2.9,4l-11.1-2.1c-1.8-0.3-2.6-1.4-2.4-3.3c0.2-2.1-0.8-3.2-2.9-3.2
				h-66.6V125.9z M769.7,191.4c-0.2,1.9,0.9,2.8,3.3,2.8h39.1c2.4,0,3.6-0.9,3.8-2.8H769.7z M770.6,180.7l-0.2,2.7h46.2l0.2-2.7
				H770.6z M775.1,170.2c-2.4,0-3.6,0.9-3.8,2.6h46.2c0.2-1.7-1-2.6-3.3-2.6H775.1z M775.9,148.1c-0.4,1.7,0.6,2.6,2.8,2.6h8.8
				l0.6-2.6H775.9z M790.3,137.3h-12.1l-0.4,2.3h12.1L790.3,137.3z M802.2,150.7h8c2.4,0,3.7-0.9,4-2.6h-11.4L802.2,150.7z
				 M815.6,139.7l0.4-2.3h-11.2l-0.4,2.3H815.6z"/>
			<path class="st57" d="M977.7,117.7l-2.9,9.2c-0.5,1.8-1.7,2.7-3.5,2.7h-0.1l-11.9,15.9l16.7,5.2c1.9,0.3,2.2,1.1,0.8,2.5
				l-11.3,10.4c-1.4,1.3-3,1.7-4.9,1.1c-4.6-1.1-9.1-3-13.4-5.6c-2.3-1.5-4.6-1.7-6.8-0.7l-6.1,2.9h6.9c4.6,0,6.5,2.3,5.7,6.9
				l-0.7,3.4h19.9c4.5,0,6.3,2.7,5.6,8c-3.3,18-6.7,28.8-10.3,32.4c-2.6,2.7-5.7,4.3-9.4,4.9c-3.6,0.6-7.3,0.8-11.2,0.6
				c-2.3,0-3.4-0.9-3.3-2.8l-0.2-10.3c0.1-1.9,1.1-2.8,2.9-2.7h2.3c2.3,0,4-0.5,5-1.5l3.9-10.5c0.8-2.3,0-3.4-2.4-3.4h-7
				c-2.9,7.5-7.2,14-12.7,19.5s-12,9.6-19.5,12.5c-2,0.9-3.4,0.5-3.9-1.2L902,207c-0.6-1.7,0.1-3,2.2-3.9c7.9-2.5,14.2-8.2,19-16.9
				h-5.4c-4.5,0-6.5-2.2-6.2-6.7l0.7-7.7l-3,7.8c-0.6,1.8-1.7,2.2-3,1.1l-6.4-5.3c-1.4-1.1-1.8-2.5-1.3-4.4l2.6-9.6h-3.8l-5.5,48.9
				c-1,2.4-2.8,4.2-5.3,5.5c-3.8,2-7.4,2.9-10.8,2.7c-5.3,0.2-8.4-1.7-9.2-5.8l-0.8-3.3c-1-5.1,1.1-7.6,6.4-7.5l2.8,0.1
				c0.7-0.1,1.2-0.2,1.5-0.4s0.6-0.7,0.6-1.5l1.7-19.3c-4.9,8.3-9.4,14-13.5,17.2c-1.2,1.1-2,0.7-2.4-1.1l-3.2-13.9
				c-0.3-1.8,0.2-3.3,1.5-4.5c3.8-2.6,8.4-8.4,13.7-17.3h-10.7c-1.9,0-2.6-0.9-2.1-2.7l3-10.1c0.5-1.8,1.7-2.7,3.5-2.7h15.9
				c1.9,0,2-0.4,0.3-1.1l-13-6.1c-1.7-0.7-2.4-2-2.1-3.7l10.2-7.2c1.6-1.1,3.2-1.3,5-0.6l2.7,1l2.9-2.7c1.8-1.6,1.5-2.5-0.9-2.5
				h-20.2c-1.9,0-2.6-0.9-2.1-2.7l2.9-9.4c0.5-1.8,1.7-2.7,3.5-2.7l32.8-0.6c1.9,0,3.4,0.6,4.6,1.8l5.4,5.8c1.2,1.2,1.2,2.5,0.1,3.9
				c-2.2,3.6-7.3,8.7-15.3,15.3l1.2,0.7c4.4,2.5,4.7,5.6,0.6,9.4l-1.3,1.3l6.6-0.7l10.2,4.3c4.3-1,8.1-2.2,11.5-3.8l-5.6-7.2
				l-1.6,1.5c-1.5,1.2-2.8,1.2-4,0l-7.5-7.8c-1.2-1.2-1.1-2.4,0.4-3.6c2-1.1,5.3-4.3,9.9-9.6c4.7-5.2,8-9.8,10-13.6
				c1-1.7,2.2-2.2,3.8-1.3l9.9,4.9c1.6,0.8,1.8,2,0.8,3.7l-1.6,2.5h31C977.5,115,978.2,115.9,977.7,117.7z M912.3,171.5h16.1
				l1.6-8.7l-5.2,1.6c-4.1,1.2-7.2,0-9.1-3.6L912.3,171.5z M949,132.5c1.5-2,1-2.9-1.3-2.9h-6.5c-2.4,0-2.9,0.9-1.5,2.7
				c0.7,1,2.4,2.5,5.1,4.7C947.3,134.7,948.6,133.2,949,132.5z"/>
		</g>
		<g>
			<path class="st57" d="M442.1,75.7c-0.2,1.8-1.1,2.7-2.9,2.7h-1.8l7.9,2.4c0.7,0.2,0.7,0.5,0.1,0.9l-4.3,2.6
				c-0.7,0.4-1.3,0.5-2,0.2c-3-1.2-5.9-2.2-8.8-3c-2.4-0.6-2.8-1.7-1.3-3.2h-5.5c-1.6,0-2,0.8-1.4,2.5l-1.2,0.7l-5,1.8
				c-3.2,0.9-6,1.4-8.3,1.7c-0.7,0.1-1.2-0.1-1.5-0.8l-1.2-3c-0.3-0.6,0-1,0.7-1.1c2.3-0.2,5.3-0.9,9-2h-2.4c-1.8,0-2.6-0.9-2.4-2.7
				l1-10.9c0.2-1.8,1.1-2.7,2.9-2.7h27c1.8,0,2.6,0.9,2.4,2.7L442.1,75.7z M441.6,52.6h7.6c0.7,0,1,0.4,0.8,1.1l-1,2.8
				c-0.2,0.7-0.7,1.1-1.5,1.1h-7l-0.2,1c-0.3,1.8-1.3,2.6-3.1,2.6h-22.7c-1.8,0-2.5-0.9-2.1-2.7l0.2-0.9H406c-0.7,0-1-0.4-0.8-1.1
				l1-2.8c0.2-0.7,0.7-1.1,1.5-1.1h6l0.2-0.9c0.3-1.7,1.4-2.6,3.1-2.6h22.4c1.8,0,2.6,0.9,2.2,2.7V52.6z M415,47.9
				c-0.9,0-1.5,0.5-1.5,1.4l-0.1,1.1c-0.1,0.7-0.4,1.1-1.2,0.9l-4.1-0.8c-0.7-0.1-1-0.6-1-1.3l0.3-4c0.2-1.8,1.1-2.7,2.9-2.7H425
				l-0.5-1.5c-0.2-0.7,0-1.1,0.8-1.1l4.5-0.4c0.8-0.1,1.3,0.2,1.5,0.9l0.8,2.1h16.6c0.7,0,1.1,0.4,1,1.1l-0.6,6.1
				c-0.1,0.7-0.5,1.3-1.2,1.6l-4.4-0.8c-0.7-0.1-1-0.6-1-1.3c0.1-0.8-0.3-1.3-1.2-1.3H415z M416.7,73.9c-0.1,0.7,0.4,1.1,1.3,1.1
				h15.5c0.9,0,1.4-0.4,1.5-1.1H416.7z M417.1,69.7l-0.1,1.1h18.3l0.1-1.1H417.1z M418.9,65.5c-0.9,0-1.4,0.3-1.5,1h18.3
				c0.1-0.7-0.4-1-1.3-1H418.9z M419.2,56.7c-0.2,0.7,0.2,1,1.1,1h3.5l0.2-1H419.2z M424.9,52.5h-4.8l-0.2,0.9h4.8L424.9,52.5z
				 M429.6,57.8h3.2c0.9,0,1.5-0.3,1.6-1h-4.5L429.6,57.8z M435,53.4l0.2-0.9h-4.4l-0.2,0.9H435z"/>
			<path class="st57" d="M473.2,62.3h-2L469,82.2c-0.3,0.7-0.9,1.3-1.6,1.7c-1.2,0.6-2.6,0.9-4.4,0.9c-1,0-1.4-0.3-1.4-1.1v-2.9
				c0-0.7,0.4-1.1,1.2-1.1h0.5c0.4,0,0.6-0.1,0.6-0.5l0.3-3.3l-1.1,0.7c-1.9,1.2-3.1,0.9-3.7-0.9c-0.9,4.2-1.9,7.1-3.2,8.7
				c-0.3,0.5-0.7,0.5-1.2,0l-2.7-2.7c-0.5-0.5-0.6-1-0.3-1.5c1.2-1.5,2.1-5.1,2.6-10.8l0.6-7.2H454c-0.7,0-1.1-0.4-1-1.1l1.1-5.7
				c0.1-0.7,0.5-1.1,1.3-1.1l1-11.4c0.2-1.8,1.1-2.7,2.9-2.7h11.3c1.8,0,2.6,0.9,2.4,2.7l-1,11.4c1.3,0,1.9,0.7,1.8,2l-0.3,3.3h23.9
				c0.7,0,1,0.4,0.8,1.1l-1,2.8c-0.2,0.7-0.7,1.1-1.5,1.1h-20.6C473.7,64.5,473,63.8,473.2,62.3z M468.3,60.2l0.1-1.3h-10.3
				c-0.1,0.9,0.4,1.3,1.3,1.3H468.3z M460.3,69.2l-0.4,4.2l4.7-2l0.2-1.8c-1.3,1.4-2.6,1.5-3.8,0.3L460.3,69.2z M465,67.6l0.3-2.9
				h-4.6c-0.1,1.5,0.5,1.9,1.9,1.5l1.5,0.7L465,67.6z M463,45.1c-0.9,0-1.5,0.5-1.5,1.4l-0.7,7.8h1.2l0.5-5.2
				c0.2-1.8,1.1-2.7,2.9-2.7h1.8c0.1-0.9-0.4-1.3-1.3-1.3H463z M465.3,54.3h1l0.4-4.1c-0.7,0-1.1,0.5-1.1,1.4L465.3,54.3z
				 M491.6,79.4h4.6c0.7,0,1,0.4,0.8,1.1l-1,2.9c-0.2,0.7-0.7,1.1-1.5,1.1h-22.6c-0.7,0-1-0.4-0.8-1.1l1-2.9
				c0.2-0.7,0.7-1.1,1.5-1.1h2.7c-0.5-2,0.1-3.2,2-3.8h-1.9c-1.8,0-2.6-0.9-2.4-2.7l0.4-4.5c0.2-1.8,1.1-2.7,2.9-2.7h16.5
				c1.8,0,2.6,0.9,2.4,2.7l-0.4,4.5c-0.2,1.8-1.1,2.7-2.9,2.7h-2.6l0.5,0.1C492.8,76.3,493,77.5,491.6,79.4z M496.7,42.2
				c1.8,0,2.6,0.9,2.4,2.7l-0.9,10.8c-0.2,1.8-1.1,2.7-2.9,2.7h-18.5c-1.8,0-2.6-0.9-2.4-2.7l0.9-10.8c0.2-1.8,1.1-2.7,2.9-2.7h2.9
				l0.2-2.2c0.1-0.7,0.4-1,1.1-0.9l3.2,0.7c0.7,0.2,1,0.6,1,1.4l-0.1,1h1.3L488,40c0.1-0.7,0.4-1,1.1-0.9l3.2,0.7
				c0.7,0.2,1,0.6,1,1.4l-0.1,1H496.7z M479.7,52.3c-0.1,1,0.5,1.6,1.7,1.6l0.1-1.6H479.7z M481.6,69.8c-0.9,0-1.5,0.6-1.6,1.7h9.2
				c0.1-1.1-0.3-1.7-1.3-1.7H481.6z M482,46.7c-1.2,0-1.8,0.5-1.9,1.5h1.8L482,46.7z M489,77.5h-5.5l1,3.3h3L489,77.5z M487.2,52.3
				h-1.6l-0.1,1.6h1.6L487.2,52.3z M486,48.2h1.6l0.1-1.5h-1.6L486,48.2z M491.2,53.9c1.2,0,1.8-0.5,1.9-1.6h-1.8L491.2,53.9z
				 M493.5,48.2c0.1-1-0.5-1.5-1.7-1.5l-0.1,1.5H493.5z"/>
			<path class="st57" d="M525.4,75.4h19.1c0.7,0,1,0.4,0.9,1.1l-1.4,5c-0.2,0.7-0.6,1.1-1.4,1.1h-41.4c-0.7,0-1-0.4-0.9-1.1l1.4-5
				c0.2-0.7,0.6-1.1,1.4-1.1h14.7l3.1-35c0.1-0.7,0.4-1.1,1.2-1l5.4,0.9c0.7,0.1,1,0.5,1,1.3l-1,11.1H543c0.7,0,1,0.4,0.8,1.1
				l-1.4,5c-0.2,0.7-0.6,1.1-1.4,1.1h-14.4L525.4,75.4z"/>
			<path class="st57" d="M564.3,61.8c0.3,0.6,0.2,1.2-0.3,1.7l-2,1.9c-0.6,0.5-1,0.4-1.2-0.2l-0.6-2.1l-1.8,20.7
				c-0.1,0.7-0.4,1.1-1.2,0.9l-3.8-0.8c-0.7-0.1-1-0.6-1-1.3l1.2-14.1c-1,2.7-1.9,4.6-2.7,5.7c-0.3,0.6-0.6,0.5-0.7-0.2l-1.1-5.6
				c-0.1-0.7,0-1.3,0.3-1.8c1.6-2,3.3-6.1,5.1-12.3h-2.4c-0.7,0-1-0.4-0.8-1.1l1.2-4.4c0.2-0.7,0.7-1.1,1.4-1.1h1.5l0.7-7.8
				c0.1-0.7,0.4-1.1,1.2-0.9l3.8,0.8c0.7,0.1,1,0.6,1,1.3l-0.6,6.6h1.9c0.7,0,1,0.4,0.8,1.1l-1.2,4.4c-0.2,0.7-0.7,1.1-1.4,1.1h-0.7
				l-0.1,1.5L564.3,61.8z M589.2,69.2l1,0.4c1.6,0.6,1.9,1.7,0.8,3.3c-0.4,0.9-1.7,2.3-3.9,4.4l1.8,0.9c0.8,0.1,1.3-0.9,1.7-3
				c0.3-1.3,0.7-1.7,1-1.1l2.4,3.5c0.4,0.6,0.4,1.3,0.1,2.1c-0.2,1.2-0.9,2.3-2.1,3.5c-1.1,1.2-2.3,1.8-3.5,1.7
				c-2.6-0.2-4.5-1.1-5.6-2.6c-0.6-0.7-1.4-0.8-2.3-0.3c-1.4,0.9-3.1,1.7-5.1,2.4c-0.7,0.3-1.2,0.1-1.5-0.5l-1.2-3
				c-0.3-0.6,0-1.1,0.7-1.4c1.5-0.4,3.5-1.5,6.1-3.2l-1.7-7.2H572l-0.2,0.7l4.6,4.2c0.5,0.5,0.4,0.9-0.2,1.3l-3.4,2.2
				c-0.7,0.4-1.2,0.3-1.7-0.2L570,76c-1.6,3.6-3.7,6.4-6.2,8.2c-0.6,0.5-1.1,0.5-1.5-0.1l-2.1-3c-0.4-0.6-0.3-1.1,0.3-1.7
				c2.8-1.8,4.7-5.3,5.6-10.2h-1.3c-0.7,0-1-0.4-0.8-1.1l1-3.2c0.2-0.7,0.7-1.1,1.5-1.1h10.9c-0.3-4.7-0.4-10.1-0.2-16.1
				c-1.3,2.2-2.9,4.5-4.9,7l2.8-0.7c0.7-0.2,1.1,0.1,1,0.9l-0.1,5c0,0.7-0.4,1.2-1.1,1.4l-0.6,0.2c-0.9,0.3-1.4,0-1.5-1
				c-4,0.6-6.3,1.1-6.7,1.4c-0.3,0.1-0.5-0.2-0.5-0.9l-0.2-3c0-0.7,0.2-1.3,0.8-1.9l0.8-1l1.3-1.8c0.6-0.8,0.4-1.1-0.6-0.9l-1.1,0.2
				c-0.5,0.2-0.8-0.1-0.8-0.9l-0.1-3c0-0.7,0.2-1.5,0.8-2.1l0.1-0.1c1.4-2.2,2.4-4.4,3-6.4c0.3-0.8,0.7-1,1.3-0.7l2.5,1.4
				c0.6,0.3,0.7,0.8,0.4,1.5l-3.3,5.6l1.4-0.1c0.9-1.9,2.2-2.6,3.8-2l1.8,0.6l0.2-6.2c0.1-0.7,0.4-1,1.1-0.9l3.6,0.8
				c0.7,0.2,1,0.6,1,1.5c-0.3,4.6-0.5,9.7-0.4,15.1c0.7-0.3,1.6-1,2.6-2.2l1.3-1.8c0.6-0.8,0.4-1.1-0.6-0.9l-1.2,0.2
				c-0.5,0.2-0.8-0.1-0.8-0.8l-0.2-3c0-0.7,0.2-1.4,0.8-2.2c1.4-2.3,2.4-4.3,2.9-6.1c0.3-0.7,0.7-1,1.3-0.6l2.4,1.4
				c0.6,0.3,0.7,0.8,0.4,1.5l-3,5.3l1.4-0.1l0.9-1.8c0.3-0.7,0.8-0.8,1.4-0.5l2.4,1.6c0.6,0.4,0.7,0.9,0.2,1.5l-4.3,6.3l2.7-0.7
				c0.7-0.2,1.1,0.1,1.1,0.8l0.2,5.2c0,0.7-0.3,1.2-1.1,1.5c-1.3,0.4-2.1,0-2.2-1.2l-1.9,0.3l1.7,1.7c0.8,0.7,0.7,1.4-0.2,2.1h2.7
				c0.7,0,1,0.4,0.8,1.1l-1,3.2c-0.2,0.7-0.7,1.1-1.5,1.1h-3V69.2z M570.7,56.7l1.7-0.2c-0.1-1-0.6-1.1-1.3-0.2L570.7,56.7z
				 M584.1,63.9c1.6,0,2.2-0.7,2-2.2l1.1-1.1l-0.8,0.2c-1.7,0.5-2.8-0.1-3.2-1.8l-0.5-1.9l0.4,6.9L584.1,63.9L584.1,63.9z
				 M586.5,69.2h-2.7c0.2,0.9,0.4,1.8,0.6,2.8C585.3,71.1,586,70.1,586.5,69.2z M589.1,56.1c1.1-0.1,1.5-0.6,1.3-1.6
				C589.9,55.3,589.4,55.8,589.1,56.1z"/>
		</g>
		
			<ellipse transform="matrix(0.7224 -0.6915 0.6915 0.7224 79.9109 621.6705)" class="st6" cx="814.2" cy="211.3" rx="14.1" ry="12.9"/>
		<path class="st6" d="M665.8,162.7c-0.5,5.5-5.3,10-10.9,10c-5.5,0-9.6-4.5-9.1-10s5.3-10,10.9-10
			C662.2,152.7,666.3,157.1,665.8,162.7z"/>
		<ellipse transform="matrix(0.7224 -0.6915 0.6915 0.7224 -8.323 381.2212)" class="st6" cx="470.6" cy="201" rx="10.4" ry="9.6"/>
		<path class="st6" d="M136.9,177.9c-0.5,5.5-5.3,10-10.9,10c-5.5,0-9.6-4.5-9.1-10s5.3-10,10.9-10
			C133.3,168,137.4,172.4,136.9,177.9z"/>
		<path class="st57" d="M165.4,205.1l-18.5-82.8c-0.9-4-3.4-6-7.7-6h-13.5c-4.3,0-7.2,2-8.7,6l-31.8,79.8c-0.7,1.8-0.2,2.8,1.6,3.1
			l15.9,2.1c1.8,0.2,2.9-0.5,3.5-2.3l14.5-42.9c2-5.8,5.3-15.6,10-29.3c0.5,2.9,1.2,7.8,2.3,14.5c1,6.7,1.8,11.7,2.4,14.8l6.6,40
			c0.3,1.8,1.3,2.8,3.1,2.9l18.2,2.5C165.1,207.6,165.8,206.9,165.4,205.1z"/>
	</g>
	<g>
		<path class="st11" d="M670.3,81.4c-0.8-0.3-1.7-0.7-2.5-1c-3.5-1.5-5.2-4.2-5.2-7.9c0-17.6,0-35.2,0-52.8c0-4.2,3.4-7.2,7.1-8
			c3.3-0.7,6.3,0.1,8.8,2.3c1.7,1.5,2.3,3.6,2.4,5.9c0,0.5,0,1,0,1.5c0,16.6,0,33.2,0,49.9c0,1.5,0,2.9-0.5,4.4
			c-1,3.2-3.5,4.6-6.5,5.5c-0.3,0.1-0.7-0.1-0.8,0.3C672.1,81.4,671.2,81.4,670.3,81.4z"/>
		<path class="st10" d="M646,81.4c-1-0.7-2.2-0.7-3.2-1.3c-2.7-1.5-4.5-3.7-4.5-6.8c-0.1-9.1,0-18.2-0.1-27.3c0-3.9,4-7.4,8-7.8
			c5.4-0.5,9.4,2.4,10.5,7.4c0.1,0.5,0.1,1,0.1,1.5c0,8.1-0.1,16.2,0,24.2c0.1,4.8-2.6,8.8-7.4,9.8c-0.2,0-0.6,0-0.7,0.3
			C647.8,81.4,646.9,81.4,646,81.4z"/>
		<path class="st10" d="M613.7,70.9c0.7-0.7,1-1.6,1.6-2.4c2.4-3.6,8.3-5,12.3-2.8c2.6,1.4,4.4,3.4,4.7,6.5c0.5,4.1-2.9,7.7-6.5,8.6
			c-0.5,0.1-1.2,0.1-1.6,0.5c-0.8,0-1.7,0-2.5,0c-0.1-0.3-0.4-0.3-0.7-0.4c-2.5-0.6-4.5-1.8-6-4c-0.5-0.7-0.6-1.7-1.3-2.3
			C613.7,73.5,613.7,72.2,613.7,70.9z"/>
	</g>
	<g>
		<polyline class="st58" points="274.6,20.3 299.6,45.2 328.2,16.6 374.8,63.2 		"/>
		<circle class="st59" cx="275.2" cy="20.2" r="6"/>
		<circle class="st59" cx="299.9" cy="45.3" r="6"/>
		<circle class="st59" cx="328.1" cy="17.1" r="6"/>
		<circle class="st59" cx="375" cy="63" r="6"/>
	</g>
</g>
<g>
	<polygon class="st60" points="860.4,339.9 119.5,339.9 150.1,254 829.8,254 	"/>
	<rect x="118" y="339.6" class="st61" width="743.9" height="29.2"/>
	<polygon class="st62" points="365.9,339.9 119.5,339.9 148.3,254 346.4,254 	"/>
	<polygon class="st63" points="860.4,339.9 607.3,339.9 637.9,254 831.3,254 	"/>
	<g class="st64">
		<g>
			<path class="st57" d="M421.9,264.3h4.2l1.6,10c0.3,2.2,0.7,4.3,1,6.5h0.1c0.4-2.2,0.9-4.4,1.3-6.5l2.4-10h3.5l2.4,10
				c0.4,2.1,0.9,4.3,1.3,6.5h0.1c0.3-2.2,0.6-4.4,1-6.5l1.6-10h4l-3.8,20.6h-5.1l-2.3-10.2c-0.4-1.6-0.7-3.1-0.9-4.8h-0.1
				c-0.3,1.5-0.5,3.1-0.9,4.8l-2.2,10.2H426L421.9,264.3z"/>
			<path class="st57" d="M448.1,277.1c0-5.1,3.5-8.2,7.3-8.2c4.3,0,6.5,3.1,6.5,7.5c0,0.7-0.1,1.5-0.1,1.9h-9.6
				c0.4,2.5,2,3.9,4.3,3.9c1.3,0,2.4-0.4,3.5-1l1.4,2.5c-1.5,1-3.5,1.7-5.5,1.7C451.5,285.4,448.1,282.3,448.1,277.1z M458.3,275.6
				c0-2.1-1-3.4-2.9-3.4c-1.6,0-3.1,1.2-3.4,3.4H458.3z"/>
			<path class="st57" d="M468.8,283.3L468.8,283.3l-0.4,1.6h-3.1v-22.2h4v5.6l-0.1,2.5c1.3-1.1,2.8-1.9,4.3-1.9
				c3.8,0,6.1,3.1,6.1,7.9c0,5.4-3.1,8.5-6.6,8.5C471.6,285.4,470.2,284.6,468.8,283.3z M475.4,276.9c0-3-1-4.6-3.1-4.6
				c-1,0-2,0.5-3.1,1.6v6.8c1,0.9,2,1.2,2.8,1.2C474,281.9,475.4,280.4,475.4,276.9z"/>
			<path class="st57" d="M487.5,276h-5.6v-2.9h5.6v-5.9h3v5.9h5.6v2.9h-5.6v5.9h-3V276z"/>
			<path class="st57" d="M509.5,279.6h-6.7l-1.5,5.3h-4.2l6.6-20.6h4.8l6.6,20.6h-4.3L509.5,279.6z M508.6,276.5l-0.6-2.2
				c-0.7-2.1-1.2-4.6-1.8-6.7H506c-0.5,2.2-1.1,4.6-1.8,6.7l-0.6,2.2H508.6z"/>
			<path class="st57" d="M517.3,269.3h3.4l0.3,1.6h0.1c1.3-1.1,2.9-2,4.6-2c3.8,0,6.1,3.1,6.1,7.9c0,5.4-3.1,8.4-6.6,8.4
				c-1.3,0-2.6-0.6-3.9-1.7l0.1,2.5v4.7h-4L517.3,269.3L517.3,269.3z M527.5,276.9c0-3-1-4.6-3.1-4.6c-1,0-2,0.5-3.1,1.6v6.8
				c1,0.9,2,1.2,2.8,1.2C526.1,281.9,527.5,280.4,527.5,276.9z"/>
			<path class="st57" d="M535.2,269.3h3.4l0.3,1.6h0.1c1.3-1.1,2.9-2,4.6-2c3.8,0,6.1,3.1,6.1,7.9c0,5.4-3.1,8.4-6.6,8.4
				c-1.3,0-2.6-0.6-3.9-1.7l0.1,2.5v4.7h-4L535.2,269.3L535.2,269.3z M545.4,276.9c0-3-1-4.6-3.1-4.6c-1,0-2,0.5-3.1,1.6v6.8
				c1,0.9,2,1.2,2.8,1.2C544,281.9,545.4,280.4,545.4,276.9z"/>
		</g>
		<g>
			<path class="st57" d="M413,302.4c-0.5,1.8-1.3,3.3-2.3,4.6c1.3,1,2.8,1.6,4.6,2.1c-0.6,0.6-1.5,1.8-1.8,2.5
				c-1.9-0.7-3.5-1.5-4.8-2.7c-1.4,1.1-3,2-4.9,2.6c-0.3-0.6-1.3-1.8-1.8-2.3c1.9-0.5,3.5-1.3,4.8-2.2c-0.6-0.7-1.2-1.6-1.6-2.4
				c-0.4,0.4-0.7,1-1.2,1.3c-0.4-0.4-1-1.3-1.7-1.9v2.8h-2.6c1,0.5,2,1.3,2.6,1.7l-1.3,1.8c-0.7-0.7-1.9-1.5-3-2.2v2.8h-2.9v-2.2
				c-1.1,1.1-2.5,2.1-3.7,2.8c-0.4-0.7-1.3-1.6-1.9-2.1c1.6-0.6,3.2-1.6,4.5-2.7h-3.2v-5.3h4.4v-1H390v-2.3h5.1v-1.3h2.9v1.3h4.8
				v2.3H398v1h4.4v1.6c1.6-1.5,2.8-3.7,3.4-6.2l2.9,0.7c-0.2,0.7-0.4,1.4-0.7,2.1h7v2.6L413,302.4L413,302.4z M403.8,319.5H415v2.7
				h-25.3v-2.7h4.1v-4.2h3.1v4.2h3.7v-5.2h-9.3v-2.6h21.9v2.6h-9.4v1.4h7.2v2.4h-7.2L403.8,319.5L403.8,319.5z M393,304.8h1.9v-1.4
				H393V304.8z M397.8,303.5v1.4h1.7v-1.4H397.8z M398.6,306.8h-0.7v1L398.6,306.8z M406.8,302.4c0.4,1,1,1.8,1.8,2.6
				c0.5-0.7,1-1.6,1.3-2.6H406.8z"/>
			<path class="st57" d="M433.3,298.3c-0.3,0.4-0.6,0.8-1,1.3c3.5,3.3,7.3,5.2,11,6.5c-0.9,0.7-1.8,2-2.3,3c-1.3-0.7-2.7-1.3-4-2.1
				v1.8h-13.9v-1.3c-1.3,0.7-2.5,1.5-3.7,2c-0.5-1-1.5-2.2-2.4-3c5.1-2,10.3-5.4,13.3-9.7L433.3,298.3z M421.3,311.4h18v11.5h-3.5
				v-1.1h-11v1.3h-3.4v-11.7H421.3z M424.8,314.2v4.4h11v-4.4H424.8z M435.1,305.9c-1.6-1-3.1-2.3-4.8-4c-1.4,1.5-2.9,2.8-4.6,4
				H435.1z"/>
			<path class="st57" d="M467,303c1,1.6,2.6,3.2,4.2,4.2c-0.7,0.5-1.6,1.7-2.2,2.5c-1-0.7-2-1.8-2.9-3v1.8h-7.2v-1.3
				c-1,0.9-1.9,1.7-3,2.4c-0.1-0.5-0.7-1.7-1.1-2.5v0.1h-2.2v3h2.3v2.9h-2.3v3.7l3.1-0.8l0.4,2.8c-3.7,1-7.6,2.2-10.6,3l-0.7-3.1
				c0.4-0.1,0.7-0.1,1.1-0.2v-9.2h2.5v8.6l1.3-0.4v-10.3H446v-9.1h8.8v8.3c1.4-0.9,2.6-2,3.7-3.3h-2.7v-2.8h4.6c0.4-1,1-1.9,1.3-2.9
				l2.8,0.7c-0.2,0.7-0.5,1.5-0.8,2.1h7v2.8L467,303L467,303z M448.5,304.4h3.4v-3.6h-3.4V304.4z M455.6,309.9h14.9v2.7h-9.1
				c-0.1,0.7-0.4,1.3-0.5,1.9h8.5c0,0-0.1,0.8-0.1,1.3c-0.3,3.7-0.7,5.5-1.5,6.2c-0.7,0.7-1.5,1-2.9,1c-1,0.1-2.9,0.1-4.8,0
				c-0.1-0.9-0.5-2-1.2-2.8c2,0.1,4.1,0.1,5.1,0.1c0.6,0,1,0,1.3-0.2c0.4-0.3,0.7-1.2,0.9-2.9H457c0.4-1.3,1-3,1.4-4.6h-2.7
				L455.6,309.9L455.6,309.9L455.6,309.9L455.6,309.9z M465.5,305.9c-0.7-1-1.2-1.9-1.6-2.8h-1.8c-0.6,1-1.3,1.9-2,2.8H465.5z"/>
			<path class="st57" d="M477.9,306.5c-0.4,2.2-1.3,3.8-3.7,4.8c-0.3-0.7-1-1.6-1.6-2.1c1.5-0.6,2-1.5,2.3-2.7H473V304h7v-1.3h-5.8
				v-5.4h2.8v2.8h3V297h3.1v13.7H480v-4.2H477.9L477.9,306.5z M497.1,315.6c-1.3,1-3,1.9-4.4,2.6c1.6,1,3.7,1.6,6.1,2.1
				c-0.7,0.7-1.5,1.8-1.9,2.6c-5.8-1.3-9.3-4.1-11.5-8.8l0,0c-1,0.8-2.2,1.5-3.5,2.2v3.1l5.5-1c-0.1,0.8-0.2,2-0.2,2.6
				c-7,1.5-8.1,1.7-8.8,2.1c-0.1-0.7-0.7-1.9-1.3-2.5c0.6-0.4,1.5-1,1.5-2.5v-0.4c-1.4,0.5-2.9,0.9-4.5,1.1
				c-0.4-0.7-1.2-1.8-1.8-2.3c3-0.4,6-1.3,8.4-2.4h-7.9v-2.5h10.9c-0.1-0.4-0.4-1-0.6-1.3l3.2-1c0.4,0.7,0.8,1.5,1.1,2.2H498v2.5h-3
				L497.1,315.6z M489.3,303.2h-5.4v-2.8h5.4V297h3.3v3.4h5.5v2.8h-5.5v3.4h4.9v2.8h-12.8v-2.8h4.6V303.2z M488.6,314.2
				c0.5,1,1.2,1.7,2,2.5c1.3-0.7,2.8-1.6,3.8-2.5H488.6z"/>
			<path class="st57" d="M526,319.9v2.3h-24.9v-2.3h3.2v-11.2h6.8c0.1-0.4,0.1-0.7,0.1-1h-9.8v-2.5h10c0.1-0.4,0.1-0.7,0.1-1.1h-9.1
				V298h21.9v6.1H515c-0.1,0.4-0.1,0.7-0.1,1.1h10.3v2.4h-10.7l-0.1,1h8.4v11.2L526,319.9L526,319.9z M508.8,300.1h-3.1v1.6h3.1
				V300.1z M507.4,310.6v1h12v-1H507.4z M519.4,313.4h-12v1h12V313.4z M507.4,317.2h12v-1.1h-12L507.4,317.2L507.4,317.2z
				 M507.4,319.9h12v-1h-12L507.4,319.9L507.4,319.9z M511.8,301.8h3.1v-1.6h-3.1L511.8,301.8L511.8,301.8z M518,301.8h3.2v-1.6H518
				V301.8z"/>
			<path class="st57" d="M552.4,304.9c-0.4,4-1.2,7.6-2.4,10.5c1,2.1,2.5,3.8,4.4,4.9c-0.7,0.4-1.5,1.5-1.9,2.2
				c-1.6-1.1-2.9-2.6-4-4.4c-1.3,2-2.9,3.6-5,4.9c-0.1-0.4-0.7-1.3-1.3-2l-1.8,1.5c-1-0.6-2.2-1.3-3.6-1.9c-1.8,0.8-4.3,1.5-7.8,2.1
				c-0.2-0.7-0.7-1.6-1.2-2.1c2.5-0.4,4.3-0.7,5.9-1.3c-1.3-0.5-2.5-1-3.7-1.3c0.4-0.4,0.8-1,1.3-1.6l-2.5,0.1l-0.2-2.2
				c1.3-0.1,2.6-0.1,4.3-0.1c0.4-0.5,0.7-1.2,1-1.7h-4v-5.1h5v-0.7h-4.3v-2.9h-2.1v-2.4h2.1v-2.8h4.3v-1.7h2.5v1.7h4.5v2.8h1.9v2.3
				h-1.9v2.9h-4.5v0.7h5.1v2c1.8-3,2.8-7.7,3.2-12.5l2.8,0.4c-0.1,1.5-0.4,3.1-0.7,4.6h6.4v2.9L552.4,304.9L552.4,304.9z
				 M532.4,310.5h2.3v-1h-2.3V310.5z M533.1,300.7v0.9h1.5v-0.9H533.1z M534.7,304.6v-1h-1.5v1H534.7z M534,317.1
				c1,0.3,1.9,0.7,2.8,1c1-0.6,1.6-1.3,1.9-2l-4.3,0.2L534,317.1z M541.5,315.9c-0.2,1.1-0.9,2.2-2.1,3.3c1,0.4,1.9,0.9,2.6,1.3
				c2.2-1.3,3.8-3.1,4.9-5.3c-0.7-1.6-1.2-3.5-1.6-5.5c-0.3,0.7-0.7,1.4-1,2c-0.4-0.5-1.4-1.5-2-2v2.9h-5.5c-0.3,0.5-0.6,1-0.9,1.6
				l3.2-0.1v-1h2.6v0.9l0.9-0.1v2.1L541.5,315.9L541.5,315.9z M537.2,300.7v0.9h1.6v-0.9H537.2z M538.8,304.6v-1h-1.6v1H538.8z
				 M537.2,309.5v1h2.2v-1H537.2z M547,304.9c0.4,2.3,0.8,4.6,1.4,6.7c0.6-2,1-4.2,1.2-6.7H547z"/>
			<path class="st57" d="M562.1,312.3v7.2c0,1.5-0.2,2.3-1.1,2.8c-0.7,0.5-2,0.7-3.7,0.6c-0.1-0.8-0.4-2.1-0.9-3
				c1,0.1,2,0.1,2.3,0.1c0.4,0,0.4-0.1,0.4-0.5v-6.3c-1,0.3-1.8,0.5-2.6,0.7l-0.7-3.1c1-0.2,2.1-0.5,3.4-0.8v-4.6h-2.8v-3.1h2.8V297
				h2.9v5.2h2.1v3.1h-2.1v3.9l2.1-0.6l0.4,3L562.1,312.3z M567.7,310.1c0,4-0.4,9.4-2.8,12.8c-0.5-0.4-1.8-1.3-2.4-1.6
				c2.2-3.1,2.4-7.7,2.4-11.2v-8.2h6.1v-4.8h3.1v1.3h6.4v2.3h-6.4v1.1h5.2l0.4-0.1l2,0.4c-0.4,1.5-0.9,3.4-1.3,4.6l-2.5-0.5
				c0.1-0.5,0.4-1.3,0.5-2h-5v1l3.7-0.4l0.1,1.8l-4,0.4c0,0.5,0.1,0.7,0.8,0.7h3.1c0.7,0,1.8-0.1,2.3-0.1c0.1,0.7,0.1,1.3,0.1,1.9
				c-0.4,0.1-1.5,0.1-2.3,0.1h-4c-1.9,0-2.6-0.7-2.8-1.9l-2.6,0.3l-0.2-2.3l2.8-0.2v-1.3h-3.1v5.8L567.7,310.1L567.7,310.1z
				 M581.9,314.3c-0.8,0.4-1.8,1-2.7,1.3c0.7,1.9,1.7,3.7,3.1,4.6c-0.6,0.4-1.5,1.4-1.8,2c-1.6-1.2-2.6-3.4-3.3-5.7
				c-0.4,0.1-0.7,0.2-1,0.4c0.7,2.2,0.4,4.5-0.7,5.4c-0.6,0.7-1.3,0.9-2.2,1c-0.4,0-1,0-1.5,0c0-0.7-0.2-1.6-0.7-2.3
				c0.7,0.1,1.1,0.1,1.5,0.1s0.7-0.1,1-0.4c0.2-0.3,0.4-0.9,0.4-1.6c-1.9,1.3-4.4,2.6-6.5,3.3c-0.3-0.4-0.7-1.3-1.2-1.7
				c2.5-0.7,5.6-2.1,7.3-3.4c-0.1-0.2-0.1-0.4-0.3-0.6c-1.5,1-3.5,1.9-5.2,2.5c-0.1-0.4-0.7-1.3-1-1.6c1.8-0.4,4-1.3,5.5-2.1
				c-0.1-0.1-0.3-0.3-0.4-0.4c-1.2,0.5-2.5,1-3.6,1.3c-0.1-0.4-0.6-1.3-1-1.6c1.7-0.4,3.6-1,5.1-1.8h-4.6v-2.3h13.5v2.1h-5.8
				c-0.4,0.4-1.1,0.8-1.8,1.2c0.5,0.4,1,1,1.3,1.5c1.6-0.7,3.4-1.6,4.7-2.3L581.9,314.3z"/>
		</g>
	</g>
	<g>
		<g>
			<path class="st57" d="M691.9,270.3h-10.3v-2.5h4.4c-0.4-1-1-2.5-1.6-3.5l2.3-1.2c0.7,1.1,1.5,2.6,1.9,3.7l-1.7,1h5.1v2.5H691.9z
				 M682.7,274.1v-2.5h8.1v2.5H682.7z M690.8,277.8h-8.1v-2.5h8.1V277.8z M699.2,270.8c-0.1,1.1-0.1,2.2-0.1,3.2h7.1c0,0,0,1,0,1.3
				c-0.4,7.9-0.7,11-1.5,12.1c-0.6,0.8-1.3,1-2.1,1.3c-0.8,0.1-2.1,0.1-3.4,0.1c-0.1-1-0.4-2.3-1-3.1c1.3,0.1,2.3,0.1,2.9,0.1
				c0.4,0,0.7-0.1,1-0.4c0.5-0.5,0.7-2.8,1-8.2h-4.3c-0.7,4.8-2.1,9.1-5.9,12c-0.4-0.7-1.3-1.8-2.1-2.3v0.7h-5.5v1.2h-2.5v-9.6h8.1
				v7.6c4.8-3.5,5.1-9.5,5.3-15.9h-3.4v-3.1h6.1c-0.2-1.1-0.7-2.5-1.1-3.7l2.8-0.7c0.6,1.4,1.2,3.2,1.4,4.4h5.3v3.1L699.2,270.8
				L699.2,270.8z M688.2,281.8h-2.9v3.1h2.9V281.8z"/>
			<path class="st57" d="M730.4,271.4c-1.3,2-2.9,3.7-4.9,5.1c2.9,1,6.2,1.7,9.7,2.1c-0.7,0.7-1.6,2.2-2.1,3.1c-1-0.1-2-0.3-2.9-0.5
				v7.8h-3.4v-0.8h-9.4v0.9h-3.2v-7.6c-1.2,0.3-2.4,0.5-3.6,0.7c-0.3-0.8-1-2.2-1.6-2.9c3.4-0.4,6.9-1.3,9.9-2.6
				c-0.9-0.6-1.7-1.3-2.5-2.1c-1,0.7-2.1,1.3-3.4,1.9c-0.4-0.7-1.5-1.9-2.2-2.5c3.9-1.5,6.4-3.5,7.8-5.5h-5.2v3.1h-3.2v-6.1h10.3
				c-0.3-0.7-0.7-1.3-1-1.8l3.3-0.8c0.4,0.8,1,1.8,1.4,2.6h9.7v6.1h-3.4v-2.9h-11.6l3.1,0.7c-0.3,0.4-0.6,0.7-0.9,1.1h6.2l0.5-0.1
				L730.4,271.4z M726.9,285.6v-2.4h-9.4v2.4H726.9z M726.9,280.4c-1.6-0.5-3.3-1.1-4.8-1.9c-1.3,0.7-2.9,1.3-4.4,1.9H726.9z
				 M718.9,272.8c1,0.9,2,1.6,3.3,2.3c1.2-0.7,2.3-1.5,3.1-2.4H719L718.9,272.8z"/>
			<path class="st57" d="M762.3,278.1c0,0,0,0.9-0.1,1.3c-0.4,5.4-1,7.7-1.8,8.6c-0.7,0.7-1.3,0.9-2.2,1c-0.7,0.1-2,0.1-3.3,0.1
				c0-0.9-0.4-2.1-0.9-2.8c1.1,0.1,2.2,0.1,2.8,0.1c0.4,0,0.7,0,1-0.3c0.4-0.4,0.8-1.9,1.1-5h-16.5c-0.4,0.4-1,0.7-1.5,1l2.6,0.8
				c-0.6,2.4-1.5,4.8-3.4,6.4l-2.5-1.7c1.5-1.3,2.5-3.2,3.1-5.4c-0.7,0.4-1.3,0.7-2,1.1c-0.4-0.8-1.2-2.1-1.8-2.9
				c4.6-2.1,8.1-5.5,10.6-9.5h-8.9V268h4.6c-0.4-1-1-2.5-1.7-3.5l2.8-1.2c0.9,1.3,1.8,2.9,2.1,4l-1.5,0.7h4.1
				c0.7-1.5,1.4-3.1,1.9-4.8l3.3,1c-0.4,1.3-1,2.6-1.6,3.8h5.4c-0.3,1.6-0.7,3.5-1,5.1h3.1c-0.3,1.6-0.7,3.5-1,5.1L762.3,278.1
				L762.3,278.1z M747.1,282.6c0.4,1.6,0.7,3.7,0.7,5.1l-2.8,0.4c0.1-1.3-0.1-3.5-0.6-5.1L747.1,282.6z M747.8,275.8
				c-0.7,0.7-1.3,1.5-2.1,2.3h10.6c0.1-0.7,0.4-1.5,0.5-2.3H747.8z M751.3,282.1c0.6,1.4,1.2,3.2,1.4,4.6l-2.6,0.7
				c-0.1-1.3-0.7-3.1-1.3-4.6L751.3,282.1z M751.3,270.8c-0.4,0.7-0.9,1.5-1.3,2.2h4.3c0.1-0.7,0.4-1.4,0.4-2.2H751.3z M754.4,286
				c-0.2-1-1-2.6-1.6-3.9l2.2-0.9c0.7,1.2,1.5,2.7,1.8,3.7L754.4,286z"/>
			<path class="st57" d="M790.3,285v3.2h-24.9V285H776v-5.4h-8v-3.1h7.9v-4.8h-9.4v-3.2h11.2c-1.2-1.1-2.8-2.4-4.2-3.4l2.7-1.9
				c1.8,1.1,4.2,2.9,5.4,4.2l-1.5,1h8.8v3.2h-9.3v4.8h8v3.1h-8v5.4L790.3,285L790.3,285z"/>
		</g>
		<g>
			<path class="st57" d="M671.9,298.1c1.3,4,4.1,8,8,10c-0.7,0.7-1.8,2.1-2.3,3.1c-0.7-0.4-1.5-1-2.1-1.6
				c-0.3,8.2-0.7,11.4-1.6,12.5c-0.7,1-1.5,1.2-2.5,1.3c-1,0.1-2.5,0.1-4.2,0.1c-0.1-1-0.4-2.4-1-3.4c1.5,0.1,3,0.1,3.7,0.1
				c0.5,0,0.8-0.1,1.1-0.4c0.5-0.6,0.9-3.1,1.1-8.9h-5.5c-0.7,5.4-2.5,10-9.7,12.8c-0.4-1-1.4-2.3-2.2-3.1c6.3-2,7.7-5.7,8.3-9.7
				h-4.7v-1.8c-0.7,0.7-1.3,1.4-2.1,2c-0.6-0.7-2-1.9-2.8-2.5c3.1-2.2,5.6-6,6.9-10.1l3.4,0.8c-1,3.1-2.5,6-4.3,8.4h14.5
				c-1.8-2-3.2-4.3-4.2-6.7h-4.4v-3.1L671.9,298.1L671.9,298.1z"/>
			<path class="st57" d="M690.4,315.1c-0.4-0.9-1-2.1-1.8-3.4v11.9h-3.1v-10.8c-0.8,2.3-1.8,4.6-2.9,6.1c-0.3-1-1-2.2-1.5-3.1
				c1.8-2.2,3.3-6,4.1-9.2h-3.4v-3.1h3.7v-5.8h3.1v5.7h3.7v3.1h-3.7v1c1,1.3,3.1,4.2,3.7,4.9L690.4,315.1z M707.3,310.2h-3.6v13.5
				h-3.3v-13.5h-3.7c-0.1,4.3-0.7,9.8-3.1,13.4c-0.6-0.5-2-1.3-2.8-1.6c2.5-3.7,2.8-9.1,2.8-13v-8.2c3.4-0.7,7.1-1.6,9.4-2.8
				l2.8,2.6c-2.6,1-5.9,1.9-9,2.5v4h10.6L707.3,310.2L707.3,310.2z"/>
			<path class="st57" d="M719.5,304.8c-0.8,1.4-1.8,2.8-2.9,4.2v14.6h-3.3v-10.9c-0.8,0.7-1.6,1.5-2.3,2.1c-0.4-0.7-1.6-2.1-2.3-2.8
				c2.9-2,5.9-5.2,7.8-8.4L719.5,304.8z M718.5,299c-2,2.6-5,5.5-7.6,7.3c-0.4-0.7-1.3-2-1.9-2.7c2.3-1.5,5-4,6.3-5.9L718.5,299z
				 M734.9,310H731v9.7c0,1.8-0.4,2.6-1.6,3.1c-1.2,0.4-3,0.5-5.4,0.5c-0.1-1-0.6-2.3-1-3.3c1.5,0.1,3.4,0.1,4,0.1s0.7-0.1,0.7-0.5
				V310h-8.2v-3.1h15.4V310L734.9,310L734.9,310z M734.2,302.4h-13.6v-3.1h13.6V302.4z"/>
			<path class="st57" d="M762.2,312.6c0,0,0,0.9-0.1,1.3c-0.4,5.4-1,7.7-1.8,8.6c-0.7,0.7-1.3,0.9-2.2,1c-0.7,0.1-2,0.1-3.3,0.1
				c0-0.9-0.4-2.1-0.9-2.8c1.1,0.1,2.2,0.1,2.8,0.1c0.4,0,0.7,0,1-0.3c0.4-0.4,0.8-1.9,1.1-5h-16.5c-0.4,0.4-1,0.7-1.5,1l2.6,0.8
				c-0.6,2.4-1.5,4.8-3.4,6.4l-2.5-1.7c1.5-1.3,2.5-3.2,3.1-5.4c-0.7,0.4-1.3,0.7-2,1.1c-0.4-0.8-1.2-2.1-1.8-2.9
				c4.6-2.1,8.1-5.5,10.6-9.5h-8.8v-2.9h4.6c-0.4-1-1-2.5-1.7-3.5l2.8-1.2c0.9,1.3,1.8,2.9,2.1,4l-1.5,0.7h4.1
				c0.7-1.5,1.4-3.1,1.9-4.8l3.3,1c-0.4,1.3-1,2.6-1.6,3.8h5.4c-0.3,1.6-0.7,3.5-1,5.1h3.1c-0.3,1.6-0.7,3.5-1,5.1L762.2,312.6
				L762.2,312.6z M747,317.1c0.4,1.6,0.7,3.7,0.7,5.1l-2.8,0.4c0.1-1.3-0.1-3.5-0.6-5.1L747,317.1z M747.7,310.3
				c-0.7,0.7-1.3,1.5-2.1,2.3h10.6c0.1-0.7,0.4-1.5,0.5-2.3H747.7z M751.1,316.7c0.6,1.4,1.2,3.2,1.4,4.6l-2.6,0.7
				c-0.1-1.3-0.7-3.1-1.3-4.6L751.1,316.7z M751.2,305.4c-0.4,0.7-0.9,1.5-1.3,2.2h4.3c0.1-0.7,0.4-1.4,0.4-2.2H751.2z M754.3,320.5
				c-0.2-1-1-2.6-1.6-3.9l2.2-0.9c0.7,1.2,1.5,2.7,1.8,3.7L754.3,320.5z"/>
			<path class="st57" d="M782.5,302.6c1.5,1.5,4.5,2.2,8.2,2.3c-0.7,0.7-1.5,1.8-1.8,2.6c-3.1-0.4-5.5-1.3-7.3-2.8
				c-1,1.3-3.4,2.3-8.1,2.8c-0.2-0.5-0.7-1.3-1.1-1.8H765v-2.5h8.4v1.7c5.3-0.5,6-1.8,6-2.8v-0.4h-1.6c-0.6,1-1.3,1.8-1.9,2.4
				c-0.5-0.5-1.8-1.3-2.5-1.7c1.5-1.3,2.6-3.1,3.2-4.9l2.9,0.7c-0.1,0.4-0.3,0.8-0.4,1.3h7.9l0.5-0.1l2.2,0.7
				c-0.7,1.5-1.6,3.3-2.5,4.4l-2.5-1c0.3-0.4,0.7-1,1-1.6h-3.1v0.5L782.5,302.6L782.5,302.6z M783.2,319c2.5,1,5.3,2.1,7,2.9l-3,1.8
				c-1.6-1-4.5-2.3-7.3-3.3l1.7-1.3h-7.9l2.4,1.1c-2.3,1.5-5.9,2.8-8.7,3.6c-0.5-0.7-1.7-1.9-2.5-2.4c2.6-0.5,5.6-1.3,7.6-2.3h-4
				v-11.3h18.6v11.3L783.2,319L783.2,319z M772.7,301.5h-7.1v-2.4h7.1V301.5z M771.8,310.8h12.1v-1.1h-12.1V310.8z M771.8,313.9
				h12.1v-1.2h-12.1V313.9z M771.8,317.1h12.1v-1.3h-12.1V317.1z"/>
			<path class="st57" d="M802.9,304.8h-10.2v-2.6h4.4c-0.4-1-1-2.5-1.6-3.5l2.3-1.2c0.7,1.1,1.5,2.6,1.9,3.7l-1.7,1h4.9L802.9,304.8
				L802.9,304.8z M793.9,308.7v-2.5h8.1v2.5H793.9z M793.9,309.9h8.1v2.5h-8.1V309.9z M802,322.1h-5.5v1.2H794v-9.6h8.1L802,322.1
				L802,322.1z M796.5,316.4v3.1h2.9v-3.1H796.5z M815.7,299.1c-0.2,9.1-0.2,20.5,0.8,20.9c0.1,0.1,0.3-1.8,0.4-3.5
				c0.4,0.9,1.3,2.2,1.7,2.6c-0.4,4-1.8,4.9-3.5,4.2c-2.6-1.1-2.6-10.7-2.6-21h-3.4v7.3h2.6v3.1h-2.6v10.9H806v-10.9h-3.1v-3.1h3.1
				v-7.3h-2.7v-3.1h12.4V299.1z"/>
		</g>
	</g>
	<g>
		<g class="st64">
			<path class="st57" d="M225,275.7c-0.6,2.7-1.5,5.4-2.6,7.6c0.4,0.2,0.7,0.5,1.3,0.9c1.9,1.1,4.5,1.3,7.7,1.3
				c3.1,0,8.2-0.3,11.2-0.7c-0.4,0.9-0.9,2.5-1,3.4c-2.3,0.1-7.2,0.4-10.5,0.4c-3.7,0-6-0.3-8-1.5c-1.2-0.7-2.1-1.5-2.7-1.5
				c-0.7,0-1.5,1.9-2.2,3.4l-2.2-3.1c1.1-1.4,2.4-2.5,3.4-2.9c0.7-1.3,1.3-3.1,1.7-4.7h-3.7c0.7-1.5,1.4-3.7,2.1-5.8h-2.9v-2.9h6.8
				c-0.6,1.9-1.3,4-2,5.9h1.6l0.4-0.1L225,275.7z M219.7,268.7c-0.4-1.3-1-3.1-1.5-4.6l3-0.9c0.5,1.5,1.2,3.3,1.6,4.5L219.7,268.7z
				 M226.2,265.5h4.4c0.3-1,0.5-1.9,0.7-2.8l4,0.4c-0.3,0.8-0.7,1.5-1,2.3h5.4v7.9h-10.2v1.7h11.2v8.6h-14.5L226.2,265.5
				L226.2,265.5z M229.4,268.2v2.4h7v-2.4H229.4z M229.4,277.7v3.1h8v-3.1H229.4z"/>
			<path class="st57" d="M266.4,285.7c0.1,0,0.4,0,0.5,0c0.6,0,2.8,0,3.7,0c-0.4,0.7-0.7,2-0.8,2.8h-3.1c-2.4,0-4.3-0.7-5.5-3.4
				c-0.4,1.4-1,2.7-1.8,3.7c-0.4-0.4-1.3-1.2-1.9-1.5v1.5h-2.6v-11.6c-0.4,0.4-0.7,0.9-1,1.3c-0.1-0.3-0.4-0.7-0.7-1v1.7H251v3.7
				l2.5-0.6l0.4,2.8c-3.1,0.8-6.5,1.6-9.1,2.3l-0.6-3l1-0.1v-9.1h2.4v8.6l1-0.2v-10.3h-3.1V264h7.7v4.3c1.3-1.5,2.6-3.6,3.1-5.3
				l2.8,0.8c-1.1,2.6-3,5.5-4.9,7.3c-0.2-0.4-0.7-0.9-1-1.3v3.5H251v3.2h1.4c1.7-2,3.3-5.1,4-7.6l2.6,0.7c-0.4,1.1-1,2.3-1.5,3.4
				v14.1c1.9-2.7,2.1-7.8,2.1-11.1l2.6,0.1c0,1.3-0.1,2.6-0.2,4.1c0.4,2,0.9,3.3,1.5,4v-10.6h1.3c-0.4-0.5-1.3-1.4-1.8-1.8
				c1.9-2,2.6-5.3,2.9-9.1l2.6,0.2c-0.1,1.6-0.4,3.1-0.7,4.5c1,1.5,2.1,3.2,2.7,4.3l-1.8,2c-0.4-0.9-1.1-2.1-1.8-3.3
				c-0.5,1.2-1.1,2.3-1.9,3.1h1.3v4.2h3.4v2.8h-3.4L266.4,285.7L266.4,285.7z M247.8,270.3h2.6v-3.7h-2.6V270.3z M263.1,271.5
				c-0.1-0.4-0.4-1-0.7-1.5c-0.5,1.6-1.2,3.1-2.1,4.3c-0.4-0.4-1.5-1.5-2-1.9c1.6-2.2,2.3-5.8,2.6-9.5l2.6,0.3
				c-0.1,1.3-0.4,2.6-0.5,3.9c0.6,0.7,1.3,1.5,1.6,1.8L263.1,271.5z"/>
		</g>
		<g>
			<path class="st57" d="M183.2,305.5c1,1.6,2.6,3.2,4.2,4.2c-0.7,0.5-1.6,1.7-2.2,2.5c-1-0.7-2-1.8-2.9-3v1.8h-7.2v-1.3
				c-1,0.9-1.9,1.7-3,2.4c-0.1-0.5-0.7-1.7-1.1-2.5v0.1h-2.2v3h2.3v2.9h-2.3v3.7l3.1-0.8l0.4,2.8c-3.7,1-7.6,2.2-10.6,3l-0.7-3.1
				c0.4-0.1,0.7-0.1,1.1-0.2v-9.2h2.5v8.6l1.3-0.4v-10.3H162v-9.1h8.9v8.3c1.4-0.9,2.6-2,3.7-3.3H172v-2.9h4.6c0.5-1,1-1.9,1.3-2.9
				l2.8,0.7c-0.2,0.7-0.5,1.5-0.8,2.1h7v2.8L183.2,305.5L183.2,305.5z M164.8,306.9h3.4v-3.6h-3.4V306.9z M171.7,312.5h14.9v2.7
				h-9.1c-0.1,0.7-0.4,1.3-0.5,1.9h8.5c0,0-0.1,0.8-0.1,1.3c-0.3,3.7-0.7,5.5-1.5,6.2c-0.7,0.7-1.5,1-2.9,1c-1,0.1-2.9,0.1-4.8,0
				c-0.1-0.9-0.5-2-1.2-2.8c2,0.1,4.1,0.1,5.1,0.1c0.6,0,1,0,1.3-0.2c0.4-0.3,0.7-1.2,0.9-2.9H173c0.4-1.3,1-3,1.4-4.6h-2.5v-2.8
				L171.7,312.5L171.7,312.5L171.7,312.5z M181.7,308.4c-0.7-1-1.2-1.9-1.6-2.8h-1.8c-0.6,1-1.3,1.9-2,2.8H181.7z"/>
			<path class="st57" d="M192.3,318.1c-0.1,2.5-0.6,5.1-1.2,6.7c-0.5-0.3-1.7-0.7-2.3-0.8c0.6-1.6,1-4.1,1-6.4L192.3,318.1z
				 M214.3,322.1c0,1.5-0.2,2.2-1.1,2.7c-0.9,0.4-2.1,0.5-3.9,0.5c-0.1-0.8-0.4-2.1-0.8-2.8c1,0.1,2,0.1,2.3,0.1
				c0.4,0,0.4-0.1,0.4-0.5v-18.6h-8.9v21.9h-2.9v-9.7l-2.2,1c-0.1-0.4-0.1-0.7-0.3-1.2c-5.5,0.9-6.4,1.2-7,1.4
				c-0.1-0.5-0.6-1.9-1-2.6c0.7-0.1,1.3-0.8,2.1-1.9c0.4-0.4,1-1.3,1.8-2.5c-2.1,0.2-2.8,0.4-3.1,0.6c-0.1-0.5-0.6-1.9-1-2.6
				c0.5-0.1,1-0.7,1.5-1.5c0.5-0.7,2.2-3.9,3.1-6.7l2.6,1.1c-1,2.3-2.3,4.8-3.7,6.7l1.9-0.1c0.7-1.3,1.4-2.6,2-4l2.4,1.5
				c-1.5,3-3.5,6.1-5.6,8.7l3-0.4c-0.2-0.7-0.4-1.3-0.7-1.9l2.1-0.8c0.7,1.5,1.4,3.7,1.8,4.9v-14.8H214L214.3,322.1L214.3,322.1z
				 M195,317.5c0.4,1.8,0.7,4.2,0.7,5.8l-2.3,0.6c-0.1-1.6-0.3-4-0.6-5.8L195,317.5z M197.8,316.8c0.7,1.6,1.3,3.8,1.6,5.2l-2.1,0.8
				c-0.2-1.5-0.9-3.7-1.5-5.4L197.8,316.8z M208.9,318.1c0.4,0,1.2-0.1,1.6-0.1c0.1,0.7,0.1,1.6,0.1,2.2c-0.4,0.1-1.1,0.1-1.7,0.1
				h-2.3c-2.3,0-2.8-0.9-2.8-3.1v-1.6H203v-2.5h2.8c-0.1-0.6-0.4-1.3-0.7-1.8l1.6-0.5h-4v-2.5h1.5c-0.1-1-0.5-2.5-1-3.6l1.9-0.6
				c0.5,1.1,1,2.6,1.2,3.7l-1.6,0.5h2.5c0.4-1.3,0.8-2.9,1-4.2l2.2,0.6c-0.4,1.2-0.7,2.5-1.1,3.6h1.4v2.5h-3.2
				c0.4,0.7,0.7,1.4,0.8,1.9l-1.1,0.4h3.4v2.5h-4.2v1.6c0,0.6,0.1,0.9,0.5,0.9H208.9L208.9,318.1L208.9,318.1z"/>
			<path class="st57" d="M225.3,317.9c-2.5,1.5-5.1,3-7.4,4.2l-1.3-3.4c0.7-0.4,1.7-0.7,2.8-1.3v-8.2h-2.5V306h2.5v-6.2h3.1v6.2h2.1
				v3.1h-2.1v6.7l1.9-1L225.3,317.9z M242,308.7c-0.9,3.7-2.1,6.9-3.7,9.7c0.4,2.5,1.1,4,1.8,4c0.4,0,0.6-1,0.7-3.5
				c0.6,0.7,1.5,1.5,2.2,1.8c-0.4,3.7-1.3,4.8-3.4,4.8c-1.5,0-2.7-1.5-3.6-3.8c-1.1,1.4-2.5,2.6-3.9,3.7c-0.4-0.5-1.6-1.6-2.3-2.1
				c1.3-0.8,2.5-1.8,3.5-2.9c-2.9,0.7-6.1,1.6-8.5,2.2l-0.7-3.1c2.4-0.4,6.1-1.3,9.6-2.1l0.2,2.2c0.4-0.4,0.8-1,1.2-1.5
				c-0.7-3.3-1-7.3-1.2-11.7h-9v-3.1h8.9c0-1.3-0.1-2.5-0.1-3.8h3.1c0,1.3,0,2.5,0,3.8h2.9c-0.7-0.7-1.6-1.5-2.4-2.2l1.9-1.6
				c1,0.7,2.4,1.9,3.1,2.7l-1.2,1.1h1.3v3H237c0.1,2.5,0.3,4.9,0.5,7c0.7-1.6,1.1-3.4,1.5-5.2L242,308.7z M232.9,308.1v8.5h-7.1
				v-8.5H232.9L232.9,308.1z M230.3,310.7h-2.2v3.4h2.1L230.3,310.7L230.3,310.7z"/>
			<path class="st57" d="M262.9,315.3c-0.2,1.7-0.7,3.4-1.5,4.8c2.5,1.3,5.8,2,9.5,2.3c-0.7,0.7-1.5,2.1-2,2.9
				c-3.7-0.4-7-1.5-9.5-2.9c-1.3,1.3-3.2,2.2-5.7,3c-0.4-0.7-1.4-2.1-2.1-2.8c2.2-0.5,3.9-1.3,5.1-2.1c-1.3-1.1-2.5-2.5-3.4-4.1
				l2.7-0.8c0.7,1,1.5,2,2.6,2.9c0.5-1,0.9-2,1-3.1h-6.1v-8.1h6.4v-1.9h-7v-2.5c-0.5,1-1,2.1-1.6,3.1v19.7H248v-15
				c-0.7,1-1.5,1.8-2.3,2.6c-0.3-0.8-1.2-2.6-1.8-3.4c2.6-2.5,5.2-6.4,6.7-10.3l3.1,1c-0.2,0.6-0.5,1.2-0.7,1.8h6.7v-2.5h3.3v2.5
				h7.3v3H263v1.9h6.6v8.1L262.9,315.3L262.9,315.3z M259.8,312.6v-0.4v-2.4h-3.4v2.8H259.8z M263.1,309.8v2.4v0.4h3.4v-2.8H263.1z"
				/>
			<path class="st57" d="M296.4,321.5c0,1.8-0.4,2.6-1.5,3.1c-1,0.5-2.8,0.6-5.4,0.6c-0.1-0.9-0.7-2.3-1-3.1
				c1.5,0.1,3.4,0.1,3.9,0.1s0.7-0.1,0.7-0.7v-4.2h-5.9v7.7h-3.4v-7.8h-5.6c-0.5,3-1.5,6.1-3.5,8.2c-0.5-0.6-1.9-1.8-2.6-2.1
				c3-3.4,3.3-8.3,3.3-12.2v-10h21V321.5L296.4,321.5L296.4,321.5z M283.8,314.2v-3.4h-5.2v0.5c0,0.9,0,1.9-0.1,2.9H283.8
				L283.8,314.2z M278.7,304.5v3.2h5.2v-3.2H278.7z M293.1,304.5h-5.9v3.2h5.9V304.5z M293.1,314.2v-3.4h-5.9v3.4H293.1z"/>
			<path class="st57" d="M315.5,310.8c-1,0.7-2.1,1.5-3.3,2.2h10v12.4h-3.4v-0.7h-9.5v0.8H306v-9.1c-1.4,0.6-2.8,1.3-4.3,1.8
				c-0.4-0.7-1.4-2.1-2-2.7c3.7-1.1,7.1-2.7,10.3-4.6h-9.4V308h9v-2.5h-6.5v-2.9h6.5v-3h3.3v3h6.1v1.3c1-1.1,2-2.3,2.9-3.5l2.8,1.5
				c-1.6,2.2-3.4,4.3-5.5,6.1h6.4v2.9h-10.2L315.5,310.8L315.5,310.8z M318.9,315.7h-9.5v1.8h9.6L318.9,315.7L318.9,315.7z
				 M318.9,321.9V320h-9.5v1.9H318.9z M312.8,307.8h1.5c1-0.8,2.1-1.6,3-2.5h-4.6L312.8,307.8L312.8,307.8z"/>
		</g>
	</g>
	<polygon class="st65" points="860.4,339.9 119.5,339.9 150.1,254 829.8,254 	"/>
</g>
<g>
	<g>
		
			<linearGradient id="SVGID_00000170245801716972173990000017705211062314773665_" gradientUnits="userSpaceOnUse" x1="363.7645" y1="110.7468" x2="411.544" y2="110.7468" gradientTransform="matrix(1 0 0 -1 0 543.8898)">
			<stop  offset="1.198740e-03" style="stop-color:#FD9600"/>
			<stop  offset="1" style="stop-color:#F46A02"/>
		</linearGradient>
		<path style="fill:url(#SVGID_00000170245801716972173990000017705211062314773665_);" d="M410.5,440c0.8,0,1.1,0.4,1,1.1l-0.9,5
			c-0.1,0.8-0.6,1.1-1.4,1.1h-14.7v9.4c0,0.8-0.4,1.1-1.1,1l-5.5-1c-0.8-0.1-1.1-0.6-1.1-1.3v-8.2h-21.9c-0.8,0-1.1-0.4-1-1.1l0.9-5
			c0.1-0.8,0.6-1.1,1.4-1.1h5.5v-11.7l-1.1,1.2c-0.5,0.6-1.1,0.6-1.6,0.1l-3.9-4c-0.6-0.6-0.6-1.1-0.1-1.6c1.1-0.9,2.6-2.8,4.4-5.9
			c1.9-3.1,3.2-5.9,4-8.5c0.3-0.8,0.8-1,1.5-0.7l5.1,2.2c0.7,0.3,1,0.8,0.7,1.6l-0.5,1.3h27.4c0.8,0,1.1,0.4,1,1.1l-0.9,5
			c-0.1,0.8-0.6,1.1-1.4,1.1h-11.7v5.3h11.7c0.8,0,1.1,0.4,1,1.1l-0.9,4.7c-0.1,0.8-0.6,1.1-1.4,1.1h-10.4v6.4h15.9V440z
			 M386.7,421.2h-10.3l-2.7,4c-0.5,0.8-0.3,1.2,0.7,1.2h12.2L386.7,421.2L386.7,421.2z M379.2,440h7.5v-6.4h-6c-1,0-1.5,0.5-1.5,1.5
			V440z"/>
		
			<linearGradient id="SVGID_00000167387025848761399330000016234175864733182386_" gradientUnits="userSpaceOnUse" x1="415.0981" y1="110.4775" x2="463.801" y2="110.4775" gradientTransform="matrix(1 0 0 -1 0 543.8898)">
			<stop  offset="1.198740e-03" style="stop-color:#FD9600"/>
			<stop  offset="1" style="stop-color:#F46A02"/>
		</linearGradient>
		<path style="fill:url(#SVGID_00000167387025848761399330000016234175864733182386_);" d="M427.9,419.6c-1,0-1.5,0.5-1.5,1.5v5.2
			c0,14.2-1.5,24.4-4.6,30.6c-0.2,0.5-0.7,0.6-1.3,0.2l-4.6-2.8c-0.7-0.4-0.9-0.9-0.6-1.3c2.5-4.7,3.7-13.6,3.7-26.5v-10.9
			c0-1.9,1-2.9,2.9-2.9h16.4l-0.6-1.8c-0.2-0.8,0-1.2,0.8-1.2l5.7-0.4c0.8,0,1.3,0.3,1.6,1.1l0.8,2.2h15.5c0.8,0,1.1,0.4,1,1.1
			l-0.9,4.7c-0.1,0.8-0.6,1.1-1.4,1.1L427.9,419.6L427.9,419.6z M455,438.4c0.8,0,1.5,0.3,2.1,0.8l2.3,2c0.6,0.5,0.7,1.1,0.3,1.8
			c-1,2.2-3.3,4.6-6.9,7c3.3,0.6,6.6,1.1,10.2,1.3c0.9,0,1.1,0.3,0.6,0.9l-4.3,4.6c-0.5,0.6-1.2,0.8-2.1,0.7
			c-4.4-0.3-8.9-1.4-13.6-3.2c-4.3,1.5-9.1,2.5-14.2,3c-0.9,0.1-1.4-0.2-1.6-1l-1.1-4.1c-0.2-0.8,0.2-1.2,1-1.2
			c2-0.1,4.6-0.5,7.6-1.1c-2-1.5-3.2-2.4-3.6-3c-1-1.1-0.8-1.9,0.7-2.5h-3.6c-0.8,0-1.1-0.4-0.9-1.1l0.8-3.5
			c0.2-0.8,0.7-1.1,1.5-1.1L455,438.4z M455.9,434.4c0,1.9-0.9,2.9-2.8,2.9h-16.6c-1.9,0-2.9-1-2.9-2.9v-5h-5.1
			c-0.8,0-1.1-0.4-0.9-1.1l0.8-3.6c0.2-0.8,0.7-1.1,1.5-1.1h3.8V422c0-0.8,0.4-1.1,1.1-1l4.8,0.9c0.8,0.1,1.1,0.7,1.1,1.7h7.7V422
			c0-0.8,0.4-1.1,1.1-1l5.1,1c0.8,0.1,1.1,0.7,1.1,1.7h5.8c0.8,0,1.1,0.4,0.9,1.1l-0.8,3.6c-0.2,0.8-0.7,1.1-1.5,1.1h-4.5v4.9H455.9
			z M447.9,445.3c0.8-0.6,0.7-0.8-0.3-0.8h-7.7c-1,0-1.1,0.3-0.3,0.8c0.7,0.6,2.1,1.3,4.3,2.1C445.9,446.6,447.3,445.9,447.9,445.3z
			 M448.4,429.4h-7.7v0.8c0,1,0.5,1.5,1.5,1.5h4.7c1,0,1.5-0.5,1.5-1.5V429.4z"/>
		
			<linearGradient id="SVGID_00000109714748996357263320000009118099228512061825_" gradientUnits="userSpaceOnUse" x1="468.0815" y1="110.1806" x2="515.332" y2="110.1806" gradientTransform="matrix(1 0 0 -1 0 543.8898)">
			<stop  offset="1.198740e-03" style="stop-color:#FD9600"/>
			<stop  offset="1" style="stop-color:#F46A02"/>
		</linearGradient>
		<path style="fill:url(#SVGID_00000109714748996357263320000009118099228512061825_);" d="M509.2,434.8l2,0.8c1.7,0.6,2.3,2,1.6,4
			c-0.7,2.8-2.1,5.5-4.4,8.2c-0.6,0.7-0.4,1.4,0.6,1.9c1.5,0.9,3.4,1.5,5.5,2c0.8,0.2,1,0.5,0.4,1l-4,3.9c-0.6,0.5-1.2,0.6-2,0.4
			c-1.7-0.4-3.8-1.6-6.5-3.5c-2.2,1.6-3.9,2.6-5.3,3.1c-1.8,0.8-3.2,0.4-4-1.1c-0.8-1.6-1.4-2.5-1.9-2.6v3.8c0,0.8-0.4,1.1-1.1,1
			l-4.9-0.9c-0.8-0.1-1.1-0.6-1.1-1.4V454c-3.3,0.3-8.1,0.8-14.4,1.3c-1,0.1-1.5-0.2-1.5-1l0.4-3.9c0.1-0.8,0.5-1.2,1.3-1.2l1.9-0.2
			v-15.2h-2.7c-0.8,0-1.1-0.4-1-1.1l0.9-3.6c0.1-0.8,0.6-1.1,1.4-1.1h43.3c0.8,0,1.1,0.4,1,1.1l-0.9,3.6c-0.1,0.8-0.6,1.1-1.4,1.1
			h-21.1v17.8c2.3-0.8,4.3-1.7,6.1-3c-1.6-1.9-2.5-3.2-2.6-3.7c-1.1-2.1-0.5-3.5,1.7-4l0.7-0.2h-3.6c-0.8,0-1.1-0.4-0.9-1.1l0.8-3.4
			c0.2-0.8,0.7-1.1,1.5-1.1L509.2,434.8z M481.5,415c-1,0-1.5,0.5-1.5,1.5v9.4c0,0.8-0.4,1.1-1.1,1l-5-0.9c-0.8-0.1-1.1-0.6-1.1-1.4
			v-12c0-1.9,0.9-2.9,2.8-2.9h31.8c1.9,0,2.9,1,2.9,2.9V426c0,0.8-0.4,1.1-1.1,1l-5.4-1c-0.8-0.1-1.1-0.6-1.1-1.3v-8.2
			c0-1-0.5-1.5-1.5-1.5H481.5z M484,433.8h-5.3v1.2h5.3V433.8z M478.7,440.2v1.4h5.3v-1.4H478.7z M478.7,448.5l5.3-0.4v-1.5h-5.3
			V448.5z M500.1,416.4c0.8,0,1.1,0.4,0.9,1.1l-0.7,2c-0.2,0.8-0.7,1.1-1.5,1.1h-16.2c-0.8,0-1.1-0.4-0.9-1.1l0.7-2
			c0.2-0.8,0.7-1.1,1.5-1.1H500.1z M482.6,426.6c-0.8,0-1.1-0.4-0.9-1.1l0.7-2.2c0.2-0.8,0.7-1.1,1.5-1.1h16c0.8,0,1.1,0.4,0.9,1.1
			l-0.7,2.2c-0.2,0.8-0.7,1.1-1.5,1.1H482.6z M504,441.9c0.5-0.8,0.2-1.2-0.8-1.2h-3.9c0.7,1.3,1.6,2.6,2.7,3.8
			C503.2,443.2,503.9,442.3,504,441.9z"/>
		
			<linearGradient id="SVGID_00000111156245229501021280000000550469665620293306_" gradientUnits="userSpaceOnUse" x1="519.0342" y1="110.7341" x2="568.4412" y2="110.7341" gradientTransform="matrix(1 0 0 -1 0 543.8898)">
			<stop  offset="1.198740e-03" style="stop-color:#FD9600"/>
			<stop  offset="1" style="stop-color:#F46A02"/>
		</linearGradient>
		<path style="fill:url(#SVGID_00000111156245229501021280000000550469665620293306_);" d="M520.3,445.2c0.1-1.2,0.5-1.7,1.2-1.4
			l3.6,1.7c0.7,0.3,1,1,0.9,2c-0.1,3.3-0.7,6.1-1.6,8.7c-0.2,0.6-0.6,0.8-1.3,0.4l-3.3-1.8c-0.7-0.3-1-0.8-0.8-1.4
			C519.7,452.1,520.1,449.4,520.3,445.2z M560.4,413c0.8,0,1.4,0.3,2,0.8l2.4,2.3c0.6,0.5,0.7,1.2,0.3,1.9
			c-1.3,3.4-3.7,6.9-7.2,10.7c3.3,2.4,6.6,4,9.8,5c0.8,0.2,0.9,0.6,0.4,1.1l-4.4,4.1c-0.6,0.5-1.2,0.6-1.9,0.3c-2.6-1-5.6-2.9-9-5.8
			c-3.3,2.7-6.2,4.5-8.8,5.5c-1.7,0.7-3.1,0.4-4.1-1l-3-3.8l1.1,5c0.1,0.8-0.2,1.2-1,1.2l-3.4,0.4c-0.8,0.1-1.3-0.3-1.4-1.1
			c-6.5,1.1-10.2,1.9-11.1,2.4c-0.3,0.1-0.5-0.2-0.7-1l-1.1-4.6c-0.2-0.8,0-1.3,0.5-1.6c0.7,0,2.5-2,5.4-6c-2.5,0.3-3.9,0.5-4.2,0.8
			c-0.4,0.2-0.7-0.1-0.9-0.9l-0.9-4.4c-0.1-0.8,0.1-1.4,0.7-1.9c-0.2,0.5,0.2,0,1.2-1.6c0.7-1,1.7-2.8,3-5.2
			c1.2-2.5,2.1-4.6,2.6-6.2c0.2-0.8,0.7-0.9,1.3-0.5l4.1,2.6c0.7,0.4,0.8,1,0.5,1.6c-1,2.5-2.6,5.3-4.8,8.4c-0.7,1-0.5,1.5,0.5,1.5
			l0.7-0.1l3.2-6.1c0.3-0.7,0.8-0.8,1.4-0.3l3.8,3.4c0.6,0.5,0.7,1.1,0.3,1.8l-0.8,1.5c4.5-3.9,7.6-8.3,9.3-13.4
			c0.3-0.8,0.8-1.1,1.6-0.8l4.6,1.7c0.7,0.2,0.9,0.7,0.6,1.5l-0.5,1.2L560.4,413z M527,445.9c-0.1-1.1,0.2-1.6,1-1.6l3.1,0.3
			c0.8,0.1,1.3,0.6,1.4,1.5c0.4,2.1,0.7,4.6,0.8,7.2c0.1,0.8-0.3,1.1-1.1,1.1H529c-0.8,0-1.2-0.3-1.2-1
			C527.8,451.7,527.5,449.2,527,445.9z M529.7,433.3c-0.7,0.8-0.5,1.1,0.5,1l1-0.2c-0.2-0.8-0.4-1.5-0.5-2L529.7,433.3z M532.3,430
			l0.6-0.2c1.8-0.5,3,0.2,3.5,2c0.6,1.7,0.8,2.4,0.6,2.2c4.1-1.4,7.7-3.3,10.9-5.6l-2.7-3.5l-1.3,1.4c-1.4,1.3-2.7,1.4-4.1,0.1
			l-3-2.9L532.3,430z M532.7,444.5c-0.2-0.8,0.1-1.2,0.9-1.2l2.9-0.3c0.8-0.1,1.3,0.3,1.6,1l2,5.9c0.2,0.7,0,1.1-0.8,1.2l-3.2,0.5
			c-0.8,0.1-1.3-0.2-1.5-1L532.7,444.5z M541.6,450.5c-0.7-0.2-0.7-0.6-0.2-1.1l3.8-3.3c0.6-0.5,1.3-0.7,2-0.4
			c4.9,1.2,10.2,3.4,15.8,6.4c0.8,0.4,0.9,0.8,0.3,1.4l-3.6,3.6c-0.6,0.6-1.1,0.7-1.8,0.3c-1-0.7-3.3-1.8-7-3.4
			C547.5,452.4,544.3,451.3,541.6,450.5z M547.6,441.8c-0.9-0.4-1.1-0.8-0.5-1.3l3.7-2.8c0.6-0.4,1.3-0.5,2.2-0.2
			c2.4,0.8,4.8,2.1,7.3,3.9c0.7,0.4,0.7,0.9,0.1,1.4l-3.5,3c-0.6,0.5-1.2,0.6-1.8,0.1C553.3,444.4,550.8,443,547.6,441.8z
			 M555.4,421c0.6-0.9,0.4-1.3-0.6-1.3h-4.3c-1,0-1.2,0.4-0.6,1.2c0.5,0.8,1.4,1.9,2.8,3.3C554.1,422.9,555,421.8,555.4,421z"/>
		
			<linearGradient id="SVGID_00000078744848242556335610000016897318183555265938_" gradientUnits="userSpaceOnUse" x1="571.3813" y1="110.3795" x2="619.6187" y2="110.3795" gradientTransform="matrix(1 0 0 -1 0 543.8898)">
			<stop  offset="1.198740e-03" style="stop-color:#FD9600"/>
			<stop  offset="1" style="stop-color:#F46A02"/>
		</linearGradient>
		<path style="fill:url(#SVGID_00000078744848242556335610000016897318183555265938_);" d="M619.6,430.4l-0.9,4
			c-0.1,0.8-0.6,1.1-1.4,1.1h-17.9l-0.3,0.5c-0.5,0.9-0.2,1.3,0.7,1.3H616c1.9,0,2.8,1.1,2.6,3.4c-0.6,8.3-1.5,13.3-2.9,14.8
			c-0.9,1.1-2,1.7-3.4,1.9c-1.4,0.2-2.2,0.3-2.5,0.2c-2.1,0-3.3-0.9-3.6-2.9c-0.1-1.9-0.4-2.6-0.8-2.1c-1.7,2.4-3.1,3.9-4.3,4.7
			c-0.5,0.4-1,0.4-1.6-0.2l-2.8-3.1c-0.5-0.6-0.5-1.1,0.1-1.5c2.4-1.4,4.9-4.5,7.4-9.4h-1.8c-1.4,2.4-3.2,4.7-5.4,7
			s-4.1,3.9-5.7,4.9c-0.6,0.4-1.1,0.3-1.6-0.3l-2.4-3.1c-0.5-0.6-0.4-1.1,0.3-1.5c2.2-1,4.8-3.3,7.8-7h-1.8c-1.7,1.8-2.8,2.8-3.3,3
			c-1.5,1-2.8,1-3.9-0.2c-0.9-1-1.6-1.7-2.1-1.9c-3.5,1.8-7,3.6-10.5,5.3c-0.8,0.3-1.2,0.1-1.3-0.6l-1.1-5.8
			c-0.1-0.8,0.2-1.3,0.9-1.6l3.7-1.4v-13.7h-3.6c-0.8,0-1.1-0.4-1-1.1l0.9-4.8c0.1-0.8,0.6-1.1,1.4-1.1h2.3v-8.8
			c0-0.8,0.4-1.1,1.1-1l4.7,0.9c0.8,0.1,1.1,0.6,1.1,1.4v7.5h3.2c0.8,0,1.1,0.4,1,1.1l-0.9,4.8c-0.1,0.8-0.6,1.1-1.4,1.1H583v10.9
			l0.8-0.4c1.8-0.7,2.9-0.2,3.4,1.7c0.3,1.1,0.8,1.3,1.5,0.6l3.3-3.7h-3.9c-0.8,0-1.1-0.4-1-1.1l0.9-4c0.1-0.8,0.6-1.1,1.4-1.1h29.3
			C619.4,429.3,619.7,429.6,619.6,430.4z M613.4,409.7c1.9,0,2.9,1,2.9,2.9V425c0,1.9-1,2.9-2.9,2.9H594c-1.9,0-2.9-1-2.9-2.9v-12.4
			c0-1.9,1-2.9,2.9-2.9H613.4z M609.3,416.4c0-1-0.5-1.6-1.5-1.6h-8.6c-1,0-1.5,0.5-1.5,1.6H609.3z M607.8,422.7
			c1,0,1.5-0.5,1.5-1.6h-11.6c0,1,0.5,1.6,1.5,1.6H607.8z M611.3,444.7c0.2-1,0-1.5-0.6-1.5c-1.2,3-2.5,5.5-3.9,7.5
			c-0.6,0.8-0.3,1.2,0.7,1.2l0.7,0.1c0.8,0,1.4-0.2,1.7-0.6L611.3,444.7z"/>
	</g>
	<g>
		<g>
			<path class="st71" d="M410.5,434.7c0.8,0,1.1,0.4,1,1.1l-0.9,5c-0.1,0.8-0.6,1.1-1.4,1.1h-14.7v9.4c0,0.8-0.4,1.1-1.1,1l-5.5-1
				c-0.8-0.1-1.1-0.6-1.1-1.3v-8h-21.9c-0.8,0-1.1-0.4-1-1.1l0.9-5c0.1-0.8,0.6-1.1,1.4-1.1h5.5V423l-1.1,1.2
				c-0.5,0.6-1.1,0.6-1.6,0.1l-3.9-4c-0.6-0.6-0.6-1.1-0.1-1.6c1.1-0.9,2.6-2.8,4.4-5.9c1.9-3.1,3.2-5.9,4-8.5
				c0.3-0.8,0.8-1,1.5-0.7l5.1,2.2c0.7,0.3,1,0.8,0.7,1.6l-0.5,1.3h27.4c0.8,0,1.1,0.4,1,1.1l-0.9,5c-0.1,0.8-0.6,1.1-1.4,1.1h-11.7
				v5.3h11.7c0.8,0,1.1,0.4,1,1.1l-0.9,4.7c-0.1,0.8-0.6,1.1-1.4,1.1h-10.4v6.4h15.9V434.7z M386.7,415.9h-10.3l-2.7,4
				c-0.5,0.8-0.3,1.2,0.7,1.2h12.2L386.7,415.9L386.7,415.9z M379.2,434.7h7.5v-6.4h-6c-1,0-1.5,0.5-1.5,1.5V434.7z"/>
			<path class="st71" d="M427.9,414.3c-1,0-1.5,0.5-1.5,1.5v5.2c0,14.2-1.5,24.4-4.6,30.6c-0.2,0.5-0.7,0.6-1.3,0.2l-4.6-2.8
				c-0.7-0.4-0.9-0.9-0.6-1.3c2.5-4.7,3.7-13.6,3.7-26.5v-10.9c0-1.9,1-2.9,2.9-2.9h16.4l-0.6-1.8c-0.2-0.8,0-1.2,0.8-1.2l5.7-0.4
				c0.8,0,1.3,0.3,1.6,1.1l0.8,2.2h15.5c0.8,0,1.1,0.4,1,1.1l-0.9,4.7c-0.1,0.8-0.6,1.1-1.4,1.1L427.9,414.3L427.9,414.3z
				 M455,433.1c0.8,0,1.5,0.3,2.1,0.8l2.3,2c0.6,0.5,0.7,1.1,0.3,1.8c-1,2.2-3.3,4.6-6.9,7c3.3,0.6,6.6,1.1,10.2,1.3
				c0.9,0,1.1,0.3,0.6,0.9l-4.3,4.6c-0.5,0.6-1.2,0.8-2.1,0.7c-4.4-0.3-8.9-1.4-13.6-3.2c-4.3,1.5-9.1,2.5-14.2,3
				c-0.9,0.1-1.4-0.2-1.6-1l-1.1-4.1c-0.2-0.8,0.2-1.2,1-1.2c2-0.1,4.6-0.5,7.6-1.1c-2-1.5-3.2-2.4-3.6-3c-1-1.1-0.8-1.9,0.7-2.5
				h-3.6c-0.8,0-1.1-0.4-0.9-1.1l0.8-3.5c0.2-0.8,0.7-1.1,1.5-1.1L455,433.1z M455.9,429.2c0,1.9-0.9,2.9-2.8,2.9h-16.6
				c-1.9,0-2.9-1-2.9-2.9v-5h-5.1c-0.8,0-1.1-0.4-0.9-1.1l0.8-3.6c0.2-0.8,0.7-1.1,1.5-1.1h3.8v-1.6c0-0.8,0.4-1.1,1.1-1l4.8,0.9
				c0.8,0.1,1.1,0.7,1.1,1.7h7.7v-1.6c0-0.8,0.4-1.1,1.1-1l5.1,1c0.8,0.1,1.1,0.7,1.1,1.7h5.8c0.8,0,1.1,0.4,0.9,1.1l-0.8,3.6
				c-0.2,0.8-0.7,1.1-1.5,1.1h-4.5v4.9H455.9z M447.9,440c0.8-0.6,0.7-0.8-0.3-0.8h-7.7c-1,0-1.1,0.3-0.3,0.8
				c0.7,0.6,2.1,1.3,4.3,2.1C445.9,441.3,447.3,440.6,447.9,440z M448.4,424.1h-7.7v0.8c0,1,0.5,1.5,1.5,1.5h4.7
				c1,0,1.5-0.5,1.5-1.5V424.1z"/>
			<path class="st71" d="M509.2,429.5l2,0.8c1.7,0.6,2.3,2,1.6,4c-0.7,2.8-2.1,5.5-4.4,8.2c-0.6,0.7-0.4,1.4,0.6,1.9
				c1.5,0.9,3.4,1.5,5.5,2c0.8,0.2,1,0.5,0.4,1l-4,3.9c-0.6,0.5-1.2,0.6-2,0.4c-1.7-0.4-3.8-1.6-6.5-3.5c-2.2,1.6-3.9,2.6-5.3,3.1
				c-1.8,0.8-3.2,0.4-4-1.1c-0.8-1.6-1.4-2.5-1.9-2.6v3.8c0,0.8-0.4,1.1-1.1,1l-4.9-0.9c-0.8-0.1-1.1-0.6-1.1-1.4v-1.3
				c-3.3,0.3-8.1,0.8-14.4,1.3c-1,0.1-1.5-0.2-1.5-1l0.4-3.9c0.1-0.8,0.5-1.2,1.3-1.2l1.9-0.2v-15.2h-2.7c-0.8,0-1.1-0.4-1-1.1
				l0.9-3.6c0.1-0.8,0.6-1.1,1.4-1.1h43.3c0.8,0,1.1,0.4,1,1.1l-0.9,3.6c-0.1,0.8-0.6,1.1-1.4,1.1h-21.1v17.8c2.3-0.8,4.3-1.7,6.1-3
				c-1.6-1.9-2.5-3.2-2.6-3.7c-1.1-2.1-0.5-3.5,1.7-4l0.7-0.2h-3.6c-0.8,0-1.1-0.4-0.9-1.1l0.8-3.4c0.2-0.8,0.7-1.1,1.5-1.1
				L509.2,429.5z M481.5,409.8c-1,0-1.5,0.5-1.5,1.5v9.4c0,0.8-0.4,1.1-1.1,1l-5-0.9c-0.8-0.1-1.1-0.6-1.1-1.4v-12
				c0-1.9,0.9-2.9,2.8-2.9h31.8c1.9,0,2.9,1,2.9,2.9v13.3c0,0.8-0.4,1.1-1.1,1l-5.4-1c-0.8-0.1-1.1-0.6-1.1-1.3v-8.2
				c0-1-0.5-1.5-1.5-1.5h-19.7V409.8z M484,428.6h-5.3v1.2h5.3V428.6z M478.7,434.9v1.4h5.3v-1.4H478.7z M478.7,443.3l5.3-0.4v-1.5
				h-5.3V443.3z M500.1,411.1c0.8,0,1.1,0.4,0.9,1.1l-0.7,2c-0.2,0.8-0.7,1.1-1.5,1.1h-16.2c-0.8,0-1.1-0.4-0.9-1.1l0.7-2
				c0.2-0.8,0.7-1.1,1.5-1.1H500.1z M482.6,421.3c-0.8,0-1.1-0.4-0.9-1.1l0.7-2.2c0.2-0.8,0.7-1.1,1.5-1.1h16c0.8,0,1.1,0.4,0.9,1.1
				l-0.7,2.2c-0.2,0.8-0.7,1.1-1.5,1.1H482.6z M504,436.7c0.5-0.8,0.2-1.2-0.8-1.2h-3.9c0.7,1.3,1.6,2.6,2.7,3.8
				C503.2,437.9,503.9,437,504,436.7z"/>
			<path class="st71" d="M520.3,439.9c0.1-1.2,0.5-1.7,1.2-1.4l3.6,1.7c0.7,0.3,1,1,0.9,2c-0.1,3.3-0.7,6.1-1.6,8.7
				c-0.2,0.6-0.6,0.8-1.3,0.4l-3.3-1.8c-0.7-0.3-1-0.8-0.8-1.4C519.7,446.8,520.1,444.1,520.3,439.9z M560.4,407.7
				c0.8,0,1.4,0.3,2,0.8l2.4,2.3c0.6,0.5,0.7,1.2,0.3,1.9c-1.3,3.4-3.7,6.9-7.2,10.7c3.3,2.4,6.6,4,9.8,5c0.8,0.2,0.9,0.6,0.4,1.1
				l-4.4,4.1c-0.6,0.5-1.2,0.6-1.9,0.3c-2.6-1-5.6-2.9-9-5.8c-3.3,2.7-6.2,4.5-8.8,5.5c-1.7,0.7-3.1,0.4-4.1-1l-3-3.8l1.1,5
				c0.1,0.8-0.2,1.2-1,1.2l-3.4,0.4c-0.8,0.1-1.3-0.3-1.4-1.1c-6.5,1.1-10.2,1.9-11.1,2.4c-0.3,0.1-0.5-0.2-0.7-1l-1.1-4.6
				c-0.2-0.8,0-1.3,0.5-1.6c0.7,0,2.5-2,5.4-6c-2.5,0.3-3.9,0.5-4.2,0.8c-0.4,0.2-0.7-0.1-0.9-0.9l-0.9-4.4
				c-0.1-0.8,0.1-1.4,0.7-1.9c-0.2,0.5,0.2,0,1.2-1.6c0.7-1,1.7-2.8,3-5.2c1.2-2.5,2.1-4.6,2.6-6.2c0.2-0.8,0.7-0.9,1.3-0.5l4.1,2.6
				c0.7,0.4,0.8,1,0.5,1.6c-1,2.5-2.6,5.3-4.8,8.4c-0.7,1-0.5,1.5,0.5,1.5l0.7-0.1l3.2-6.1c0.3-0.7,0.8-0.8,1.4-0.3l3.8,3.4
				c0.6,0.5,0.7,1.1,0.3,1.8l-0.8,1.5c4.5-3.9,7.6-8.3,9.3-13.4c0.3-0.8,0.8-1.1,1.6-0.8l4.6,1.7c0.7,0.2,0.9,0.7,0.6,1.5l-0.5,1.2
				L560.4,407.7z M527,440.6c-0.1-1.1,0.2-1.6,1-1.6l3.1,0.3c0.8,0.1,1.3,0.6,1.4,1.5c0.4,2.1,0.7,4.6,0.8,7.2
				c0.1,0.8-0.3,1.1-1.1,1.1H529c-0.8,0-1.2-0.3-1.2-1C527.8,446.4,527.5,443.9,527,440.6z M529.7,428c-0.7,0.8-0.5,1.1,0.5,1l1-0.2
				c-0.2-0.8-0.4-1.5-0.5-2L529.7,428z M532.3,424.8l0.6-0.2c1.8-0.5,3,0.2,3.5,2c0.6,1.7,0.8,2.4,0.6,2.2c4.1-1.4,7.7-3.3,10.9-5.6
				l-2.7-3.5l-1.3,1.4c-1.4,1.3-2.7,1.4-4.1,0.1l-3-2.9L532.3,424.8z M532.7,439.2c-0.2-0.8,0.1-1.2,0.9-1.2l2.9-0.3
				c0.8-0.1,1.3,0.3,1.6,1l2,5.9c0.2,0.7,0,1.1-0.8,1.2l-3.2,0.5c-0.8,0.1-1.3-0.2-1.5-1L532.7,439.2z M541.6,445.2
				c-0.7-0.2-0.7-0.6-0.2-1.1l3.8-3.3c0.6-0.5,1.3-0.7,2-0.4c4.9,1.2,10.2,3.4,15.8,6.4c0.8,0.4,0.9,0.8,0.3,1.4l-3.6,3.6
				c-0.6,0.6-1.1,0.7-1.8,0.3c-1-0.7-3.3-1.8-7-3.4C547.5,447.1,544.3,446,541.6,445.2z M547.6,436.6c-0.9-0.4-1.1-0.8-0.5-1.3
				l3.7-2.8c0.6-0.4,1.3-0.5,2.2-0.2c2.4,0.8,4.8,2.1,7.3,3.9c0.7,0.4,0.7,0.9,0.1,1.4l-3.5,3c-0.6,0.5-1.2,0.6-1.8,0.1
				C553.3,439.1,550.8,437.8,547.6,436.6z M555.4,415.7c0.6-0.9,0.4-1.3-0.6-1.3h-4.3c-1,0-1.2,0.4-0.6,1.2c0.5,0.8,1.4,1.9,2.8,3.3
				C554.1,417.6,555,416.5,555.4,415.7z"/>
			<path class="st71" d="M619.6,425.1l-0.9,4c-0.1,0.8-0.6,1.1-1.4,1.1h-17.9l-0.3,0.5c-0.5,0.9-0.2,1.3,0.7,1.3H616
				c1.9,0,2.8,1.1,2.6,3.4c-0.6,8.3-1.5,13.3-2.9,14.8c-0.9,1.1-2,1.7-3.4,1.9c-1.4,0.2-2.2,0.3-2.5,0.2c-2.1,0-3.3-0.9-3.6-2.9
				c-0.1-1.9-0.4-2.6-0.8-2.1c-1.7,2.4-3.1,3.9-4.3,4.7c-0.5,0.4-1,0.4-1.6-0.2l-2.8-3.1c-0.5-0.6-0.5-1.1,0.1-1.5
				c2.4-1.4,4.9-4.5,7.4-9.4h-1.8c-1.4,2.4-3.2,4.7-5.4,7s-4.1,3.9-5.7,4.9c-0.6,0.4-1.1,0.3-1.6-0.3l-2.4-3.1
				c-0.5-0.6-0.4-1.1,0.3-1.5c2.2-1,4.8-3.3,7.8-7h-1.8c-1.7,1.8-2.8,2.8-3.3,3c-1.5,1-2.8,1-3.9-0.2c-0.9-1-1.6-1.7-2.1-1.9
				c-3.5,1.8-7,3.6-10.5,5.3c-0.8,0.3-1.2,0.1-1.3-0.6l-1.1-5.8c-0.1-0.8,0.2-1.3,0.9-1.6l3.7-1.4v-13.7h-3.6c-0.8,0-1.1-0.4-1-1.1
				l0.9-4.8c0.1-0.8,0.6-1.1,1.4-1.1h2.3v-8.8c0-0.8,0.4-1.1,1.1-1l4.7,0.9c0.8,0.1,1.1,0.6,1.1,1.4v7.5h3.2c0.8,0,1.1,0.4,1,1.1
				l-0.9,4.8c-0.1,0.8-0.6,1.1-1.4,1.1H583V432l0.8-0.4c1.8-0.7,2.9-0.2,3.4,1.7c0.3,1.1,0.8,1.3,1.5,0.6l3.3-3.7h-3.9
				c-0.8,0-1.1-0.4-1-1.1l0.9-4c0.1-0.8,0.6-1.1,1.4-1.1h29.3C619.4,424,619.7,424.4,619.6,425.1z M613.4,404.5c1.9,0,2.9,1,2.9,2.9
				v12.4c0,1.9-1,2.9-2.9,2.9H594c-1.9,0-2.9-1-2.9-2.9v-12.4c0-1.9,1-2.9,2.9-2.9H613.4z M609.3,411.1c0-1-0.5-1.6-1.5-1.6h-8.6
				c-1,0-1.5,0.5-1.5,1.6H609.3z M607.8,417.5c1,0,1.5-0.5,1.5-1.6h-11.6c0,1,0.5,1.6,1.5,1.6H607.8z M611.3,439.4
				c0.2-1,0-1.5-0.6-1.5c-1.2,3-2.5,5.5-3.9,7.5c-0.6,0.8-0.3,1.2,0.7,1.2l0.7,0.1c0.8,0,1.4-0.2,1.7-0.6L611.3,439.4z"/>
		</g>
	</g>
</g>
</svg>
